Dotak-Light.ufo
<glyph name="comma" format="1">
  <advance width="262"/>
  <unicode hex="002C"/>
  <outline>
    <contour>
      <point x="186" y="25"/>
      <point x="167" y="45"/>
      <point x="132" y="45" type="curve" smooth="yes"/>
      <point x="101" y="45"/>
      <point x="82" y="30"/>
      <point x="82" y="11" type="curve" smooth="yes"/>
      <point x="82" y="-8"/>
      <point x="100" y="-20"/>
      <point x="125" y="-20" type="curve" smooth="yes"/>
      <point x="140" y="-20"/>
      <point x="153" y="-18"/>
      <point x="165" y="-15" type="curve"/>
      <point x="158" y="-59"/>
      <point x="117" y="-103"/>
      <point x="67" y="-148" type="curve"/>
      <point x="78" y="-160" type="line"/>
      <point x="139" y="-112"/>
      <point x="186" y="-50"/>
      <point x="186" y="-7" type="curve" smooth="yes"/>
    </contour>
  </outline>
</glyph>
<glyph name="period" format="1">
  <advance width="246"/>
  <unicode hex="002E"/>
  <outline>
    <contour>
      <point x="92" y="44"/>
      <point x="74" y="31"/>
      <point x="74" y="12" type="curve"/>
      <point x="74" y="-6"/>
      <point x="92" y="-20"/>
      <point x="123" y="-20" type="curve"/>
      <point x="155" y="-20"/>
      <point x="172" y="-6"/>
      <point x="172" y="12" type="curve"/>
      <point x="172" y="31"/>
      <point x="155" y="44"/>
      <point x="123" y="44" type="curve"/>
    </contour>
  </outline>
</glyph>
<glyph name="three" format="1">
  <advance width="795"/>
  <unicode hex="0033"/>
  <outline>
    <contour>
      <point x="101" y="67" type="line"/>
      <point x="148" y="34"/>
      <point x="252" y="-20"/>
      <point x="416" y="-20" type="curve" smooth="yes"/>
      <point x="588" y="-20"/>
      <point x="698" y="39"/>
      <point x="698" y="115" type="curve" smooth="yes"/>
      <point x="698" y="208"/>
      <point x="569" y="234"/>
      <point x="403" y="234" type="curve"/>
      <point x="403" y="223" type="line"/>
      <point x="570" y="223"/>
      <point x="670" y="279"/>
      <point x="670" y="352" type="curve" smooth="yes"/>
      <point x="670" y="441"/>
      <point x="565" y="490"/>
      <point x="428" y="490" type="curve" smooth="yes"/>
      <point x="307" y="490"/>
      <point x="199" y="461"/>
      <point x="117" y="419" type="curve"/>
      <point x="126" y="398" type="line"/>
      <point x="206" y="438"/>
      <point x="307" y="467"/>
      <point x="428" y="467" type="curve" smooth="yes"/>
      <point x="561" y="467"/>
      <point x="645" y="420"/>
      <point x="645" y="352" type="curve" smooth="yes"/>
      <point x="645" y="292"/>
      <point x="568" y="240"/>
      <point x="398" y="240" type="curve" smooth="yes"/>
      <point x="236" y="240" type="line"/>
      <point x="236" y="218" type="line"/>
      <point x="398" y="218" type="line" smooth="yes"/>
      <point x="593" y="218"/>
      <point x="673" y="184"/>
      <point x="673" y="115" type="curve" smooth="yes"/>
      <point x="673" y="50"/>
      <point x="567" y="3"/>
      <point x="418" y="3" type="curve" smooth="yes"/>
      <point x="261" y="3"/>
      <point x="160" y="53"/>
      <point x="115" y="86" type="curve"/>
    </contour>
  </outline>
</glyph>
<glyph name="four" format="1">
  <advance width="663"/>
  <unicode hex="0034"/>
  <outline>
    <contour>
      <point x="495" y="490" type="line"/>
      <point x="457" y="490" type="line"/>
      <point x="10" y="148" type="line"/>
      <point x="40" y="140" type="line"/>
    </contour>
    <contour>
      <point x="653" y="125" type="line"/>
      <point x="653" y="148" type="line"/>
      <point x="10" y="148" type="line"/>
      <point x="10" y="125" type="line"/>
    </contour>
    <contour>
      <point x="470" y="-20" type="line"/>
      <point x="495" y="-20" type="line"/>
      <point x="495" y="490" type="line"/>
      <point x="470" y="490" type="line"/>
    </contour>
  </outline>
</glyph>
<glyph name="five" format="1">
  <advance width="708"/>
  <unicode hex="0035"/>
  <outline>
    <contour>
      <point x="112" y="447" type="line"/>
      <point x="623" y="447" type="line"/>
      <point x="623" y="470" type="line"/>
      <point x="112" y="470" type="line"/>
    </contour>
    <contour>
      <point x="642" y="232"/>
      <point x="546" y="273"/>
      <point x="391" y="275" type="curve" smooth="yes"/>
      <point x="277" y="277"/>
      <point x="192" y="260"/>
      <point x="111" y="244" type="curve"/>
      <point x="111" y="220" type="line"/>
      <point x="190" y="237"/>
      <point x="270" y="253"/>
      <point x="381" y="252" type="curve" smooth="yes"/>
      <point x="546" y="251"/>
      <point x="618" y="211"/>
      <point x="617" y="132" type="curve" smooth="yes"/>
      <point x="616" y="50"/>
      <point x="506" y="3"/>
      <point x="387" y="3" type="curve" smooth="yes"/>
      <point x="240" y="3"/>
      <point x="139" y="53"/>
      <point x="94" y="86" type="curve"/>
      <point x="80" y="67" type="line"/>
      <point x="127" y="34"/>
      <point x="231" y="-20"/>
      <point x="385" y="-20" type="curve" smooth="yes"/>
      <point x="527" y="-20"/>
      <point x="642" y="40"/>
      <point x="642" y="132" type="curve" smooth="yes"/>
    </contour>
    <contour>
      <point x="111" y="220" type="line"/>
      <point x="135" y="236" type="line"/>
      <point x="135" y="470" type="line"/>
      <point x="111" y="470" type="line"/>
    </contour>
  </outline>
</glyph>
<glyph name="six" format="1">
  <advance width="726"/>
  <unicode hex="0036"/>
  <outline>
    <contour>
      <point x="612" y="457" type="line"/>
      <point x="555" y="473"/>
      <point x="494" y="489"/>
      <point x="391" y="489" type="curve" smooth="yes"/>
      <point x="210" y="489"/>
      <point x="63" y="387"/>
      <point x="63" y="222" type="curve" smooth="yes"/>
      <point x="63" y="72"/>
      <point x="175" y="-20"/>
      <point x="366" y="-20" type="curve" smooth="yes"/>
      <point x="524" y="-20"/>
      <point x="652" y="47"/>
      <point x="652" y="141" type="curve" smooth="yes"/>
      <point x="652" y="237"/>
      <point x="546" y="283"/>
      <point x="401" y="285" type="curve" smooth="yes"/>
      <point x="267" y="287"/>
      <point x="158" y="257"/>
      <point x="81" y="224" type="curve"/>
      <point x="81" y="200" type="line"/>
      <point x="156" y="234"/>
      <point x="260" y="263"/>
      <point x="391" y="262" type="curve" smooth="yes"/>
      <point x="546" y="261"/>
      <point x="629" y="216"/>
      <point x="627" y="140" type="curve" smooth="yes"/>
      <point x="625" y="67"/>
      <point x="520" y="4"/>
      <point x="366" y="4" type="curve" smooth="yes"/>
      <point x="197" y="4"/>
      <point x="87" y="89"/>
      <point x="87" y="219" type="curve" smooth="yes"/>
      <point x="87" y="371"/>
      <point x="219" y="465"/>
      <point x="391" y="465" type="curve" smooth="yes"/>
      <point x="487" y="465"/>
      <point x="551" y="449"/>
      <point x="606" y="434" type="curve"/>
    </contour>
  </outline>
</glyph>
<glyph name="seven" format="1">
  <advance width="642"/>
  <unicode hex="0037"/>
  <outline>
    <contour>
      <point x="207" y="0" type="line"/>
      <point x="240" y="0" type="line"/>
      <point x="652" y="447" type="line"/>
      <point x="624" y="453" type="line"/>
    </contour>
    <contour>
      <point x="49" y="470" type="line"/>
      <point x="49" y="298" type="line"/>
      <point x="73" y="298" type="line"/>
      <point x="73" y="447" type="line"/>
      <point x="652" y="447" type="line"/>
      <point x="652" y="470" type="line"/>
    </contour>
  </outline>
</glyph>
<glyph name="eight" format="1">
  <advance width="829"/>
  <unicode hex="0038"/>
  <outline>
    <contour>
      <point x="170" y="227"/>
      <point x="109" y="293"/>
      <point x="109" y="358" type="curve" smooth="yes"/>
      <point x="109" y="429"/>
      <point x="209" y="490"/>
      <point x="401" y="490" type="curve" smooth="yes"/>
      <point x="607" y="490"/>
      <point x="708" y="419"/>
      <point x="708" y="344" type="curve" smooth="yes"/>
      <point x="708" y="279"/>
      <point x="644" y="239"/>
      <point x="579" y="212" type="curve"/>
      <point x="551" y="219" type="line"/>
      <point x="617" y="246"/>
      <point x="683" y="280"/>
      <point x="683" y="344" type="curve" smooth="yes"/>
      <point x="683" y="408"/>
      <point x="588" y="467"/>
      <point x="399" y="467" type="curve" smooth="yes"/>
      <point x="230" y="467"/>
      <point x="134" y="418"/>
      <point x="134" y="358" type="curve" smooth="yes"/>
      <point x="134" y="299"/>
      <point x="197" y="252"/>
      <point x="409" y="247" type="curve" smooth="yes"/>
      <point x="669" y="241"/>
      <point x="728" y="178"/>
      <point x="728" y="112" type="curve" smooth="yes"/>
      <point x="728" y="41"/>
      <point x="628" y="-20"/>
      <point x="416" y="-20" type="curve" smooth="yes"/>
      <point x="190" y="-20"/>
      <point x="89" y="51"/>
      <point x="89" y="126" type="curve" smooth="yes"/>
      <point x="89" y="191"/>
      <point x="143" y="231"/>
      <point x="218" y="258" type="curve"/>
      <point x="246" y="251" type="line"/>
      <point x="170" y="224"/>
      <point x="114" y="190"/>
      <point x="114" y="126" type="curve" smooth="yes"/>
      <point x="114" y="62"/>
      <point x="209" y="3"/>
      <point x="418" y="3" type="curve" smooth="yes"/>
      <point x="607" y="3"/>
      <point x="703" y="52"/>
      <point x="703" y="112" type="curve" smooth="yes"/>
      <point x="703" y="173"/>
      <point x="639" y="219"/>
      <point x="407" y="223" type="curve" smooth="yes"/>
    </contour>
  </outline>
</glyph>
<glyph name="nine" format="1">
  <advance width="705"/>
  <unicode hex="0039"/>
  <outline>
    <contour>
      <point x="103" y="12" type="line"/>
      <point x="160" y="-4"/>
      <point x="221" y="-20"/>
      <point x="324" y="-20" type="curve" smooth="yes"/>
      <point x="505" y="-20"/>
      <point x="652" y="82"/>
      <point x="652" y="247" type="curve" smooth="yes"/>
      <point x="652" y="397"/>
      <point x="540" y="489"/>
      <point x="349" y="489" type="curve" smooth="yes"/>
      <point x="191" y="489"/>
      <point x="63" y="422"/>
      <point x="63" y="328" type="curve" smooth="yes"/>
      <point x="63" y="232"/>
      <point x="169" y="186"/>
      <point x="314" y="184" type="curve" smooth="yes"/>
      <point x="448" y="182"/>
      <point x="557" y="212"/>
      <point x="634" y="245" type="curve"/>
      <point x="634" y="269" type="line"/>
      <point x="559" y="235"/>
      <point x="455" y="206"/>
      <point x="324" y="207" type="curve" smooth="yes"/>
      <point x="169" y="208"/>
      <point x="86" y="253"/>
      <point x="88" y="329" type="curve" smooth="yes"/>
      <point x="90" y="402"/>
      <point x="195" y="465"/>
      <point x="349" y="465" type="curve" smooth="yes"/>
      <point x="518" y="465"/>
      <point x="628" y="380"/>
      <point x="628" y="250" type="curve" smooth="yes"/>
      <point x="628" y="98"/>
      <point x="496" y="4"/>
      <point x="324" y="4" type="curve" smooth="yes"/>
      <point x="228" y="4"/>
      <point x="164" y="20"/>
      <point x="109" y="35" type="curve"/>
    </contour>
  </outline>
</glyph>
<glyph name="A" format="1">
  <advance width="1034"/>
  <unicode hex="0041"/>
  <outline>
    <contour>
      <point x="184" y="13" type="line"/>
      <point x="519" y="502" type="line"/>
      <point x="516" y="502" type="line"/>
      <point x="851" y="13" type="line"/>
      <point x="880" y="13" type="line"/>
      <point x="536" y="510" type="line" smooth="yes"/>
      <point x="498" y="510" type="line"/>
      <point x="155" y="13" type="line"/>
    </contour>
    <contour>
      <point x="339" y="0" type="line"/>
      <point x="339" y="23" type="line"/>
      <point x="0" y="23" type="line"/>
      <point x="0" y="0" type="line"/>
    </contour>
    <contour>
      <point x="736" y="199" type="line"/>
      <point x="719" y="222" type="line"/>
      <point x="313" y="222" type="line"/>
      <point x="295" y="199" type="line"/>
    </contour>
    <contour>
      <point x="1034" y="0" type="line"/>
      <point x="1034" y="23" type="line"/>
      <point x="696" y="23" type="line"/>
      <point x="696" y="0" type="line"/>
    </contour>
    <contour>
      <point x="705" y="497" type="line"/>
      <point x="705" y="520" type="line"/>
      <point x="329" y="520" type="line"/>
      <point x="329" y="497" type="line"/>
    </contour>
    <contour>
      <point x="608.0" y="585.0" type="move" name="hook"/>
    </contour>
    <contour>
      <point x="917.0" y="10.0" type="move" name="ogonek"/>
    </contour>
    <contour>
      <point x="517.0" y="490.0" type="move" name="top"/>
    </contour>
    <contour>
      <point x="518.0" y="0.0" type="move" name="bottom"/>
    </contour>
  </outline>
</glyph>
<glyph name="B" format="1">
  <advance width="957"/>
  <unicode hex="0042"/>
  <outline>
    <contour>
      <point x="673" y="0" type="line" smooth="yes"/>
      <point x="790" y="0"/>
      <point x="862" y="45"/>
      <point x="862" y="136" type="curve" smooth="yes"/>
      <point x="862" y="231"/>
      <point x="781" y="270"/>
      <point x="664" y="270" type="curve"/>
      <point x="664" y="262" type="line"/>
      <point x="775" y="262"/>
      <point x="828" y="315"/>
      <point x="828" y="391" type="curve" smooth="yes"/>
      <point x="828" y="469"/>
      <point x="768" y="520"/>
      <point x="667" y="520" type="curve" smooth="yes"/>
      <point x="56" y="520" type="line"/>
      <point x="56" y="497" type="line"/>
      <point x="664" y="497" type="line" smooth="yes"/>
      <point x="743" y="497"/>
      <point x="803" y="465"/>
      <point x="803" y="391" type="curve" smooth="yes"/>
      <point x="803" y="316"/>
      <point x="745" y="278"/>
      <point x="661" y="278" type="curve" smooth="yes"/>
      <point x="254" y="278" type="line"/>
      <point x="254" y="255" type="line"/>
      <point x="656" y="254" type="line" smooth="yes"/>
      <point x="755" y="254"/>
      <point x="837" y="222"/>
      <point x="837" y="137" type="curve" smooth="yes"/>
      <point x="837" y="55"/>
      <point x="769" y="23"/>
      <point x="667" y="23" type="curve" smooth="yes"/>
      <point x="56" y="23" type="line"/>
      <point x="56" y="0" type="line"/>
    </contour>
    <contour>
      <point x="263" y="14" type="line"/>
      <point x="263" y="508" type="line"/>
      <point x="238" y="508" type="line"/>
      <point x="238" y="14" type="line"/>
    </contour>
    <contour>
      <point x="462.0" y="520.0" type="move" name="top"/>
    </contour>
    <contour>
      <point x="462.0" y="0.0" type="move" name="bottom"/>
    </contour>
  </outline>
</glyph>
<glyph name="C" format="1">
  <advance width="869"/>
  <unicode hex="0043"/>
  <outline>
    <contour>
      <point x="640" y="-11"/>
      <point x="747" y="85"/>
      <point x="794" y="168" type="curve"/>
      <point x="774" y="181" type="line"/>
      <point x="734" y="107"/>
      <point x="624" y="12"/>
      <point x="426" y="12" type="curve"/>
      <point x="244" y="12"/>
      <point x="95" y="106"/>
      <point x="95" y="260" type="curve"/>
      <point x="95" y="414"/>
      <point x="249" y="507"/>
      <point x="434" y="507" type="curve"/>
      <point x="573" y="507"/>
      <point x="688" y="450"/>
      <point x="789" y="315" type="curve"/>
      <point x="792" y="316" type="line"/>
      <point x="792" y="520" type="line"/>
      <point x="769" y="520" type="line"/>
      <point x="769" y="351" type="line"/>
      <point x="786" y="351" type="line"/>
      <point x="716" y="450"/>
      <point x="598" y="530"/>
      <point x="434" y="530" type="curve"/>
      <point x="241" y="530"/>
      <point x="70" y="432"/>
      <point x="70" y="260" type="curve"/>
      <point x="70" y="88"/>
      <point x="234" y="-11"/>
      <point x="426" y="-11" type="curve"/>
    </contour>
    <contour>
      <point x="429" y="530" type="move" name="top"/>
    </contour>
    <contour>
      <point x="429" y="-10" type="move" name="bottom"/>
    </contour>
  </outline>
</glyph>
<glyph name="D" format="1">
  <advance width="959"/>
  <unicode hex="0044"/>
  <outline>
    <contour>
      <point x="545" y="0" type="line"/>
      <point x="750" y="0"/>
      <point x="889" y="85"/>
      <point x="889" y="245" type="curve"/>
      <point x="889" y="405"/>
      <point x="750" y="490"/>
      <point x="545" y="490" type="curve"/>
      <point x="56" y="490" type="line"/>
      <point x="56" y="467" type="line"/>
      <point x="545" y="467" type="line"/>
      <point x="739" y="467"/>
      <point x="864" y="388"/>
      <point x="864" y="245" type="curve"/>
      <point x="864" y="102"/>
      <point x="739" y="23"/>
      <point x="545" y="23" type="curve"/>
      <point x="56" y="23" type="line"/>
      <point x="56" y="0" type="line"/>
    </contour>
    <contour>
      <point x="263" y="13" type="line"/>
      <point x="263" y="477" type="line"/>
      <point x="238" y="477" type="line"/>
      <point x="238" y="13" type="line"/>
    </contour>
    <contour>
      <point x="480.0" y="245.0" type="move" name="center"/>
    </contour>
    <contour>
      <point x="480.0" y="0.0" type="move" name="bottom"/>
    </contour>
    <contour>
      <point x="480.0" y="490.0" type="move" name="top"/>
    </contour>
  </outline>
</glyph>
<glyph name="E" format="1">
  <advance width="967"/>
  <unicode hex="0045"/>
  <outline>
    <contour>
      <point x="862" y="0" type="line"/>
      <point x="862" y="183" type="line"/>
      <point x="838" y="183" type="line"/>
      <point x="838" y="23" type="line"/>
      <point x="56" y="23" type="line"/>
      <point x="56" y="0" type="line"/>
    </contour>
    <contour>
      <point x="263" y="13" type="line"/>
      <point x="263" y="507" type="line"/>
      <point x="238" y="507" type="line"/>
      <point x="238" y="13" type="line"/>
    </contour>
    <contour>
      <point x="583" y="261" type="line"/>
      <point x="583" y="284" type="line"/>
      <point x="260" y="284" type="line"/>
      <point x="260" y="261" type="line"/>
    </contour>
    <contour>
      <point x="596" y="153" type="line"/>
      <point x="596" y="392" type="line"/>
      <point x="571" y="392" type="line"/>
      <point x="571" y="153" type="line"/>
    </contour>
    <contour>
      <point x="862" y="337" type="line"/>
      <point x="862" y="520" type="line"/>
      <point x="56" y="520" type="line"/>
      <point x="56" y="497" type="line"/>
      <point x="837" y="497" type="line"/>
      <point x="837" y="337" type="line"/>
    </contour>
    <contour>
      <point x="760.0" y="10.0" type="move" name="ogonek"/>
    </contour>
    <contour>
      <point x="456.0" y="10.0" type="move" name="bottom"/>
    </contour>
    <contour>
      <point x="456.0" y="490.0" type="move" name="top"/>
    </contour>
  </outline>
</glyph>
<glyph name="K" format="1">
  <advance width="990"/>
  <unicode hex="004B"/>
  <outline>
    <contour>
      <point x="465" y="0" type="line" smooth="yes"/>
      <point x="465" y="23" type="line" smooth="yes"/>
      <point x="56" y="23" type="line" smooth="yes"/>
      <point x="56" y="0" type="line" smooth="yes"/>
    </contour>
    <contour>
      <point x="248" y="477" type="line" smooth="yes"/>
      <point x="248" y="13" type="line" smooth="yes"/>
      <point x="273" y="13" type="line" smooth="yes"/>
      <point x="273" y="477" type="line" smooth="yes"/>
    </contour>
    <contour>
      <point x="56" y="490" type="line" smooth="yes"/>
      <point x="56" y="467" type="line" smooth="yes"/>
      <point x="465" y="467" type="line" smooth="yes"/>
      <point x="465" y="490" type="line" smooth="yes"/>
    </contour>
    <contour>
      <point x="804" y="477" type="line"/>
      <point x="260" y="141" type="line"/>
      <point x="260" y="114" type="line"/>
      <point x="844" y="477" type="line"/>
    </contour>
    <contour>
      <point x="850" y="10" type="line"/>
      <point x="501" y="279" type="line"/>
      <point x="485" y="263" type="line"/>
      <point x="815" y="10" type="line"/>
    </contour>
    <contour>
      <point x="972" y="467" type="line" smooth="yes"/>
      <point x="972" y="490" type="line" smooth="yes"/>
      <point x="620" y="490" type="line" smooth="yes"/>
      <point x="620" y="467" type="line" smooth="yes"/>
    </contour>
    <contour>
      <point x="982" y="0" type="line" smooth="yes"/>
      <point x="982" y="23" type="line" smooth="yes"/>
      <point x="630" y="23" type="line" smooth="yes"/>
      <point x="630" y="0" type="line" smooth="yes"/>
    </contour>
    <contour>
      <point x="495.0" y="490.0" type="move" name="top"/>
    </contour>
    <contour>
      <point x="495.0" y="0.0" type="move" name="bottom"/>
    </contour>
  </outline>
</glyph>
<glyph name="O" format="1">
  <advance width="906"/>
  <unicode hex="004F"/>
  <outline>
    <contour>
      <point x="669" y="-10"/>
      <point x="836" y="88"/>
      <point x="836" y="260" type="curve"/>
      <point x="836" y="431"/>
      <point x="669" y="530"/>
      <point x="453" y="530" type="curve"/>
      <point x="237" y="530"/>
      <point x="70" y="431"/>
      <point x="70" y="260" type="curve"/>
      <point x="70" y="88"/>
      <point x="237" y="-10"/>
      <point x="453" y="-10" type="curve"/>
    </contour>
    <contour>
      <point x="247" y="13"/>
      <point x="95" y="106"/>
      <point x="95" y="260" type="curve"/>
      <point x="95" y="414"/>
      <point x="247" y="507"/>
      <point x="453" y="507" type="curve"/>
      <point x="658" y="507"/>
      <point x="811" y="414"/>
      <point x="811" y="260" type="curve"/>
      <point x="811" y="106"/>
      <point x="658" y="13"/>
      <point x="453" y="13" type="curve"/>
    </contour>
    <contour>
      <point x="453.0" y="-10.0" type="move" name="bottom"/>
    </contour>
    <contour>
      <point x="455.0" y="-8.0" type="move" name="ogonek"/>
    </contour>
    <contour>
      <point x="453.0" y="530.0" type="move" name="top"/>
    </contour>
    <contour>
      <point x="886.0" y="490.0" type="move" name="topright"/>
    </contour>
    <contour>
      <point x="453.0" y="245.0" type="move" name="center"/>
    </contour>
  </outline>
</glyph>
<glyph name="P" format="1">
  <advance width="934"/>
  <unicode hex="0050"/>
  <outline>
    <contour>
      <point x="694" y="213" type="line" smooth="yes"/>
      <point x="806" y="213"/>
      <point x="874" y="278"/>
      <point x="874" y="365" type="curve" smooth="yes"/>
      <point x="874" y="461"/>
      <point x="804" y="520"/>
      <point x="694" y="520" type="curve" smooth="yes"/>
      <point x="56" y="520" type="line"/>
      <point x="56" y="497" type="line"/>
      <point x="701" y="497" type="line" smooth="yes"/>
      <point x="790" y="497"/>
      <point x="849" y="445"/>
      <point x="849" y="365" type="curve" smooth="yes"/>
      <point x="849" y="287"/>
      <point x="787" y="236"/>
      <point x="701" y="236" type="curve" smooth="yes"/>
      <point x="251" y="236" type="line"/>
      <point x="251" y="213" type="line"/>
    </contour>
    <contour>
      <point x="455" y="0" type="line"/>
      <point x="455" y="23" type="line"/>
      <point x="56" y="23" type="line"/>
      <point x="56" y="0" type="line"/>
    </contour>
    <contour>
      <point x="263" y="13" type="line"/>
      <point x="263" y="507" type="line"/>
      <point x="238" y="507" type="line"/>
      <point x="238" y="13" type="line"/>
    </contour>
    <contour>
      <point x="462.0" y="520.0" type="move" name="top"/>
    </contour>
    <contour>
      <point x="462.0" y="0.0" type="move" name="bottom"/>
    </contour>
  </outline>
</glyph>
<glyph name="R" format="1">
  <advance width="1047"/>
  <unicode hex="0052"/>
  <outline>
    <contour>
      <point x="717" y="241" type="line" smooth="yes"/>
      <point x="841" y="241"/>
      <point x="900" y="309"/>
      <point x="900" y="378" type="curve" smooth="yes"/>
      <point x="900" y="457"/>
      <point x="840" y="520"/>
      <point x="717" y="520" type="curve" smooth="yes"/>
      <point x="56" y="520" type="line"/>
      <point x="56" y="497" type="line"/>
      <point x="717" y="497" type="line" smooth="yes"/>
      <point x="826" y="497"/>
      <point x="875" y="441"/>
      <point x="875" y="378" type="curve" smooth="yes"/>
      <point x="875" y="317"/>
      <point x="823" y="262"/>
      <point x="717" y="262" type="curve" smooth="yes"/>
      <point x="258" y="262" type="line"/>
      <point x="258" y="241" type="line"/>
    </contour>
    <contour>
      <point x="445" y="0" type="line"/>
      <point x="445" y="23" type="line"/>
      <point x="56" y="22" type="line"/>
      <point x="56" y="-1" type="line"/>
    </contour>
    <contour>
      <point x="263" y="13" type="line"/>
      <point x="263" y="507" type="line"/>
      <point x="238" y="507" type="line"/>
      <point x="238" y="13" type="line"/>
    </contour>
    <contour>
      <point x="949" y="-10"/>
      <point x="1012" y="64"/>
      <point x="1012" y="155" type="curve" smooth="yes"/>
      <point x="1012" y="176" type="line"/>
      <point x="987" y="176" type="line"/>
      <point x="987" y="155" type="line" smooth="yes"/>
      <point x="987" y="75"/>
      <point x="931" y="13"/>
      <point x="854" y="13" type="curve" smooth="yes"/>
      <point x="774" y="13"/>
      <point x="734" y="67"/>
      <point x="675" y="138" type="curve" smooth="yes"/>
      <point x="601" y="227"/>
      <point x="568" y="253"/>
      <point x="460" y="253" type="curve" smooth="yes"/>
      <point x="258" y="253" type="line"/>
      <point x="258" y="239" type="line"/>
      <point x="472" y="239" type="line" smooth="yes"/>
      <point x="556" y="239"/>
      <point x="595" y="201"/>
      <point x="654" y="125" type="curve" smooth="yes"/>
      <point x="713" y="49"/>
      <point x="765" y="-10"/>
      <point x="854" y="-10" type="curve" smooth="yes"/>
    </contour>
    <contour>
      <point x="524.0" y="520.0" type="move" name="top"/>
    </contour>
    <contour>
      <point x="564.0" y="0.0" type="move" name="bottom"/>
    </contour>
  </outline>
</glyph>
<glyph name="S" format="1">
  <advance width="848"/>
  <unicode hex="0053"/>
  <outline>
    <contour>
      <point x="132" y="-20" type="line"/>
      <point x="132" y="130" type="line"/>
      <point x="117" y="130" type="line"/>
      <point x="190" y="55"/>
      <point x="354" y="-20"/>
      <point x="526" y="-20" type="curve" smooth="yes"/>
      <point x="667" y="-20"/>
      <point x="771" y="24"/>
      <point x="771" y="113" type="curve" smooth="yes"/>
      <point x="771" y="207"/>
      <point x="673" y="238"/>
      <point x="434" y="257" type="curve" smooth="yes"/>
      <point x="211" y="275"/>
      <point x="136" y="305"/>
      <point x="136" y="375" type="curve" smooth="yes"/>
      <point x="136" y="455"/>
      <point x="227" y="494"/>
      <point x="366" y="494" type="curve" smooth="yes"/>
      <point x="533" y="494"/>
      <point x="639" y="431"/>
      <point x="736" y="328" type="curve"/>
      <point x="736" y="517" type="line"/>
      <point x="713" y="517" type="line"/>
      <point x="713" y="365" type="line"/>
      <point x="727" y="365" type="line"/>
      <point x="655" y="440"/>
      <point x="552" y="517"/>
      <point x="368" y="517" type="curve" smooth="yes"/>
      <point x="206" y="517"/>
      <point x="111" y="466"/>
      <point x="111" y="375" type="curve" smooth="yes"/>
      <point x="111" y="294"/>
      <point x="188" y="250"/>
      <point x="433" y="233" type="curve" smooth="yes"/>
      <point x="659" y="217"/>
      <point x="747" y="190"/>
      <point x="747" y="113" type="curve" smooth="yes"/>
      <point x="747" y="37"/>
      <point x="651" y="3"/>
      <point x="527" y="3" type="curve" smooth="yes"/>
      <point x="378" y="3"/>
      <point x="205" y="64"/>
      <point x="109" y="168" type="curve"/>
      <point x="109" y="-20" type="line"/>
    </contour>
    <contour>
      <point x="434.0" y="510.0" type="move" name="top"/>
    </contour>
    <contour>
      <point x="454.0" y="-10.0" type="move" name="bottom"/>
    </contour>
  </outline>
</glyph>
<glyph name="T" format="1">
  <advance width="819"/>
  <unicode hex="0054"/>
  <outline>
    <contour>
      <point x="64" y="307" type="line"/>
      <point x="64" y="467" type="line"/>
      <point x="755" y="467" type="line"/>
      <point x="755" y="307" type="line"/>
      <point x="780" y="307" type="line"/>
      <point x="780" y="490" type="line"/>
      <point x="39" y="490" type="line"/>
      <point x="39" y="307" type="line"/>
    </contour>
    <contour>
      <point x="614" y="0" type="line"/>
      <point x="614" y="23" type="line"/>
      <point x="204" y="23" type="line"/>
      <point x="204" y="0" type="line"/>
    </contour>
    <contour>
      <point x="422" y="13" type="line"/>
      <point x="422" y="477" type="line"/>
      <point x="397" y="477" type="line"/>
      <point x="397" y="13" type="line"/>
    </contour>
    <contour>
      <point x="410.0" y="245.0" type="move" name="center"/>
    </contour>
    <contour>
      <point x="410.0" y="0.0" type="move" name="bottom"/>
    </contour>
    <contour>
      <point x="410.0" y="490.0" type="move" name="top"/>
    </contour>
  </outline>
</glyph>
<glyph name="U" format="1">
  <advance width="1031"/>
  <unicode hex="0055"/>
  <outline>
    <contour>
      <point x="709" y="-10"/>
      <point x="834" y="79"/>
      <point x="834" y="254" type="curve" smooth="yes"/>
      <point x="834" y="507" type="line"/>
      <point x="812" y="507" type="line"/>
      <point x="809" y="242" type="line" smooth="yes"/>
      <point x="807" y="89"/>
      <point x="690" y="13"/>
      <point x="516" y="13" type="curve"/>
      <point x="341" y="13"/>
      <point x="224" y="89"/>
      <point x="222" y="243" type="curve" smooth="yes"/>
      <point x="219" y="507" type="line"/>
      <point x="197" y="507" type="line"/>
      <point x="197" y="254" type="line" smooth="yes"/>
      <point x="197" y="79"/>
      <point x="323" y="-10"/>
      <point x="516" y="-10" type="curve"/>
    </contour>
    <contour>
      <point x="401" y="497" type="line"/>
      <point x="401" y="520" type="line"/>
      <point x="15" y="520" type="line"/>
      <point x="15" y="497" type="line"/>
    </contour>
    <contour>
      <point x="1016" y="497" type="line"/>
      <point x="1016" y="520" type="line"/>
      <point x="630" y="520" type="line"/>
      <point x="630" y="497" type="line"/>
    </contour>
    <contour>
      <point x="525.0" y="-9.0" type="move" name="ogonek"/>
    </contour>
    <contour>
      <point x="516.0" y="490.0" type="move" name="top"/>
    </contour>
    <contour>
      <point x="1007.0" y="490.0" type="move" name="topright"/>
    </contour>
    <contour>
      <point x="516.0" y="-10.0" type="move" name="bottom"/>
    </contour>
  </outline>
</glyph>
<glyph name="X" format="1">
  <advance width="910"/>
  <unicode hex="0058"/>
  <outline>
    <contour>
      <point x="25" y="490" type="line"/>
      <point x="25" y="467" type="line"/>
      <point x="362" y="467" type="line"/>
      <point x="362" y="490" type="line" smooth="yes"/>
    </contour>
    <contour>
      <point x="885" y="0" type="line"/>
      <point x="885" y="23" type="line"/>
      <point x="549" y="23" type="line"/>
      <point x="549" y="0" type="line"/>
    </contour>
    <contour>
      <point x="739" y="12" type="line"/>
      <point x="466" y="246" type="line"/>
      <point x="463" y="246" type="line"/>
      <point x="194" y="477" type="line"/>
      <point x="157" y="477" type="line"/>
      <point x="444" y="231" type="line"/>
      <point x="447" y="231" type="line"/>
      <point x="702" y="12" type="line"/>
    </contour>
    <contour>
      <point x="548" y="467" type="line"/>
      <point x="885" y="467" type="line"/>
      <point x="885" y="490" type="line"/>
      <point x="548" y="490" type="line" smooth="yes"/>
    </contour>
    <contour>
      <point x="361" y="23" type="line"/>
      <point x="25" y="23" type="line"/>
      <point x="25" y="0" type="line"/>
      <point x="361" y="0" type="line"/>
    </contour>
    <contour>
      <point x="463" y="231" type="line"/>
      <point x="466" y="231" type="line"/>
      <point x="753" y="477" type="line"/>
      <point x="718" y="477" type="line"/>
      <point x="449" y="246" type="line"/>
      <point x="446" y="246" type="line"/>
      <point x="173" y="12" type="line"/>
      <point x="208" y="12" type="line"/>
    </contour>
    <contour>
      <point x="455.0" y="490.0" type="move" name="top"/>
    </contour>
    <contour>
      <point x="455.0" y="0.0" type="move" name="bottom"/>
    </contour>
  </outline>
</glyph>
<glyph name="grave" format="1">
  <advance width="480"/>
  <unicode hex="0060"/>
  <outline>
    <contour>
      <point x="394" y="513" type="line"/>
      <point x="90" y="634" type="line"/>
      <point x="101" y="662" type="line"/>
      <point x="400" y="531" type="line"/>
    </contour>
    <contour>
      <point x="262.0" y="421.0" type="move" name="_top"/>
    </contour>
  </outline>
</glyph>
<glyph name="a" format="1">
  <advance width="797"/>
  <unicode hex="0061"/>
  <outline>
    <contour>
      <point x="102" y="287" type="line"/>
      <point x="204" y="319"/>
      <point x="301" y="344"/>
      <point x="404" y="344" type="curve" smooth="yes"/>
      <point x="549" y="344"/>
      <point x="612" y="281"/>
      <point x="612" y="197" type="curve" smooth="yes"/>
      <point x="612" y="93" type="line" smooth="yes"/>
      <point x="612" y="28"/>
      <point x="649" y="-10"/>
      <point x="700" y="-10" type="curve" smooth="yes"/>
      <point x="731" y="-10"/>
      <point x="758" y="2"/>
      <point x="782" y="19" type="curve"/>
      <point x="772" y="39" type="line"/>
      <point x="749" y="22"/>
      <point x="728" y="13"/>
      <point x="701" y="13" type="curve" smooth="yes"/>
      <point x="668" y="13"/>
      <point x="637" y="38"/>
      <point x="637" y="93" type="curve" smooth="yes"/>
      <point x="637" y="197" type="line" smooth="yes"/>
      <point x="637" y="297"/>
      <point x="562" y="367"/>
      <point x="404" y="367" type="curve" smooth="yes"/>
      <point x="305" y="367"/>
      <point x="203" y="346"/>
      <point x="94" y="310" type="curve"/>
    </contour>
    <contour>
      <point x="387" y="-10"/>
      <point x="514" y="20"/>
      <point x="623" y="76" type="curve"/>
      <point x="623" y="98" type="line"/>
      <point x="509" y="44"/>
      <point x="385" y="13"/>
      <point x="277" y="13" type="curve" smooth="yes"/>
      <point x="184" y="13"/>
      <point x="105" y="33"/>
      <point x="105" y="96" type="curve"/>
      <point x="105" y="162"/>
      <point x="197" y="183"/>
      <point x="321" y="183" type="curve" smooth="yes"/>
      <point x="424" y="183"/>
      <point x="536" y="168"/>
      <point x="623" y="153" type="curve"/>
      <point x="623" y="176" type="line"/>
      <point x="536" y="191"/>
      <point x="426" y="206"/>
      <point x="305" y="206" type="curve" smooth="yes"/>
      <point x="183" y="206"/>
      <point x="80" y="178"/>
      <point x="80" y="96" type="curve"/>
      <point x="80" y="16"/>
      <point x="156" y="-10"/>
      <point x="277" y="-10" type="curve" smooth="yes"/>
    </contour>
    <contour>
      <point x="782" y="19" type="move" name="ogonek"/>
    </contour>
    <contour>
      <point x="277" y="-10" type="move" name="bottom"/>
    </contour>
    <contour>
      <point x="374" y="367" type="move" name="top"/>
    </contour>
  </outline>
</glyph>
<glyph name="e" format="1">
  <advance width="758"/>
  <unicode hex="0065"/>
  <outline>
    <contour>
      <point x="657" y="84" type="line"/>
      <point x="581" y="40"/>
      <point x="500" y="12"/>
      <point x="383" y="13" type="curve"/>
      <point x="244" y="12"/>
      <point x="105" y="67"/>
      <point x="105" y="167" type="curve"/>
      <point x="105" y="291"/>
      <point x="265" y="344"/>
      <point x="410" y="344" type="curve" smooth="yes"/>
      <point x="540" y="344"/>
      <point x="642" y="315"/>
      <point x="642" y="258" type="curve" smooth="yes"/>
      <point x="642" y="197"/>
      <point x="543" y="170"/>
      <point x="418" y="170" type="curve" smooth="yes"/>
      <point x="320" y="170"/>
      <point x="189" y="193"/>
      <point x="99" y="222" type="curve"/>
      <point x="100" y="199" type="line"/>
      <point x="189" y="170"/>
      <point x="320" y="147"/>
      <point x="418" y="147" type="curve" smooth="yes"/>
      <point x="558" y="147"/>
      <point x="667" y="184"/>
      <point x="667" y="260" type="curve" smooth="yes"/>
      <point x="667" y="331"/>
      <point x="553" y="367"/>
      <point x="414" y="367" type="curve" smooth="yes"/>
      <point x="254" y="367"/>
      <point x="80" y="308"/>
      <point x="80" y="167" type="curve"/>
      <point x="80" y="46"/>
      <point x="234" y="-10"/>
      <point x="383" y="-10" type="curve"/>
      <point x="504" y="-10"/>
      <point x="591" y="19"/>
      <point x="668" y="65" type="curve"/>
    </contour>
    <contour>
      <point x="668.0" y="65.0" type="move" name="ogonek"/>
    </contour>
    <contour>
      <point x="376.0" y="-10.0" type="move" name="bottom"/>
    </contour>
    <contour>
      <point x="376.0" y="367.0" type="move" name="top"/>
    </contour>
  </outline>
</glyph>
<glyph name="f" format="1">
  <advance width="532"/>
  <unicode hex="0066"/>
  <outline>
    <contour>
      <point x="90" y="0" type="line"/>
      <point x="440" y="0" type="line"/>
      <point x="440" y="23" type="line"/>
      <point x="90" y="23" type="line"/>
    </contour>
    <contour>
      <point x="220" y="0" type="line"/>
      <point x="245" y="0" type="line"/>
      <point x="245" y="428" type="line"/>
      <point x="245" y="515"/>
      <point x="287" y="562"/>
      <point x="383" y="562" type="curve" smooth="yes"/>
      <point x="440" y="562"/>
      <point x="513" y="544"/>
      <point x="567" y="520" type="curve"/>
      <point x="575" y="543" type="line"/>
      <point x="519" y="565"/>
      <point x="449" y="585"/>
      <point x="385" y="585" type="curve" smooth="yes"/>
      <point x="270" y="585"/>
      <point x="220" y="524"/>
      <point x="220" y="426" type="curve"/>
    </contour>
    <contour>
      <point x="469" y="357" type="line"/>
      <point x="90" y="357" type="line"/>
      <point x="90" y="334" type="line"/>
      <point x="469" y="334" type="line"/>
    </contour>
    <contour>
      <point x="266.0" y="357.0" type="move" name="top"/>
    </contour>
    <contour>
      <point x="266.0" y="0.0" type="move" name="bottom"/>
    </contour>
  </outline>
</glyph>
<glyph name="i" format="1">
  <advance width="469"/>
  <unicode hex="0069"/>
  <outline>
    <contour>
      <point x="257" y="0" type="line"/>
      <point x="257" y="357" type="line"/>
      <point x="232" y="357" type="line"/>
      <point x="232" y="0" type="line"/>
    </contour>
    <contour>
      <point x="439" y="0" type="line"/>
      <point x="439" y="23" type="line"/>
      <point x="50" y="23" type="line"/>
      <point x="50" y="0" type="line"/>
    </contour>
    <contour>
      <point x="257" y="334" type="line"/>
      <point x="257" y="357" type="line"/>
      <point x="50" y="357" type="line"/>
      <point x="50" y="334" type="line"/>
    </contour>
    <contour>
      <point x="265" y="469"/>
      <point x="281" y="482"/>
      <point x="281" y="499" type="curve"/>
      <point x="281" y="517"/>
      <point x="265" y="530"/>
      <point x="234" y="530" type="curve"/>
      <point x="204" y="530"/>
      <point x="187" y="517"/>
      <point x="187" y="499" type="curve"/>
      <point x="187" y="482"/>
      <point x="204" y="469"/>
      <point x="234" y="469" type="curve"/>
    </contour>
    <contour>
      <point x="410.0" y="10.0" type="move" name="ogonek"/>
    </contour>
    <contour>
      <point x="217.0" y="0.0" type="move" name="bottom"/>
    </contour>
    <contour>
      <point x="227.0" y="357.0" type="move" name="top"/>
    </contour>
  </outline>
</glyph>
<glyph name="k" format="1">
  <advance width="842"/>
  <unicode hex="006B"/>
  <outline>
    <contour>
      <point x="190" y="0" type="line"/>
      <point x="215" y="0" type="line"/>
      <point x="215" y="560" type="line"/>
      <point x="190" y="560" type="line"/>
    </contour>
    <contour>
      <point x="10" y="560" type="line"/>
      <point x="10" y="537" type="line"/>
      <point x="215" y="537" type="line"/>
      <point x="215" y="560" type="line"/>
    </contour>
    <contour>
      <point x="10" y="0" type="line"/>
      <point x="398" y="0" type="line"/>
      <point x="398" y="23" type="line"/>
      <point x="10" y="23" type="line"/>
    </contour>
    <contour>
      <point x="198" y="169" type="line"/>
      <point x="244" y="160"/>
      <point x="344" y="143"/>
      <point x="447" y="143" type="curve" smooth="yes"/>
      <point x="623" y="143"/>
      <point x="733" y="190"/>
      <point x="733" y="272" type="curve" smooth="yes"/>
      <point x="733" y="337"/>
      <point x="672" y="376"/>
      <point x="555" y="376" type="curve" smooth="yes"/>
      <point x="443" y="376"/>
      <point x="317" y="320"/>
      <point x="201" y="241" type="curve"/>
      <point x="201" y="221" type="line"/>
      <point x="317" y="297"/>
      <point x="440" y="353"/>
      <point x="552" y="353" type="curve" smooth="yes"/>
      <point x="649" y="353"/>
      <point x="708" y="326"/>
      <point x="708" y="271" type="curve" smooth="yes"/>
      <point x="708" y="201"/>
      <point x="601" y="166"/>
      <point x="450" y="166" type="curve" smooth="yes"/>
      <point x="358" y="166"/>
      <point x="244" y="179"/>
      <point x="200" y="186" type="curve"/>
    </contour>
    <contour>
      <point x="786" y="103" type="line"/>
      <point x="775" y="34"/>
      <point x="721" y="2"/>
      <point x="663" y="2" type="curve" smooth="yes"/>
      <point x="581" y="2"/>
      <point x="532" y="55"/>
      <point x="459" y="151" type="curve"/>
      <point x="434" y="151" type="line"/>
      <point x="498" y="57"/>
      <point x="570" y="-20"/>
      <point x="661" y="-20" type="curve" smooth="yes"/>
      <point x="741" y="-20"/>
      <point x="794" y="31"/>
      <point x="807" y="99" type="curve"/>
    </contour>
    <contour>
      <point x="421.0" y="387.0" type="move" name="top"/>
    </contour>
    <contour>
      <point x="421.0" y="0.0" type="move" name="bottom"/>
    </contour>
  </outline>
</glyph>
<glyph name="l" format="1">
  <advance width="379"/>
  <unicode hex="006C"/>
  <outline>
    <contour>
      <point x="190" y="0" type="line"/>
      <point x="215" y="0" type="line"/>
      <point x="215" y="560" type="line"/>
      <point x="190" y="560" type="line"/>
    </contour>
    <contour>
      <point x="10" y="560" type="line"/>
      <point x="10" y="537" type="line"/>
      <point x="215" y="537" type="line"/>
      <point x="215" y="560" type="line"/>
    </contour>
    <contour>
      <point x="10" y="0" type="line"/>
      <point x="375" y="0" type="line"/>
      <point x="375" y="23" type="line"/>
      <point x="10" y="23" type="line"/>
    </contour>
    <contour>
      <point x="190.0" y="0.0" type="move" name="bottom"/>
    </contour>
    <contour>
      <point x="190.0" y="560.0" type="move" name="top"/>
    </contour>
    <contour>
      <point x="359.0" y="357.0" type="move" name="topright"/>
    </contour>
    <contour>
      <point x="190.0" y="283.0" type="move" name="center"/>
    </contour>
  </outline>
</glyph>
<glyph name="o" format="1">
  <advance width="779"/>
  <unicode hex="006F"/>
  <outline>
    <contour>
      <point x="568" y="-20"/>
      <point x="709" y="50"/>
      <point x="709" y="179" type="curve"/>
      <point x="709" y="312"/>
      <point x="568" y="377"/>
      <point x="389" y="377" type="curve"/>
      <point x="211" y="376"/>
      <point x="70" y="312"/>
      <point x="70" y="179" type="curve"/>
      <point x="70" y="50"/>
      <point x="211" y="-20"/>
      <point x="389" y="-20" type="curve" smooth="yes"/>
    </contour>
    <contour>
      <point x="222" y="3"/>
      <point x="95" y="66"/>
      <point x="95" y="179" type="curve"/>
      <point x="95" y="295"/>
      <point x="222" y="353"/>
      <point x="389" y="354" type="curve"/>
      <point x="557" y="354"/>
      <point x="685" y="295"/>
      <point x="685" y="179" type="curve"/>
      <point x="685" y="66"/>
      <point x="557" y="3"/>
      <point x="389" y="3" type="curve" smooth="yes"/>
    </contour>
    <contour>
      <point x="390.0" y="-20.0" type="move" name="bottom"/>
    </contour>
    <contour>
      <point x="382.0" y="-9.0" type="move" name="ogonek"/>
    </contour>
    <contour>
      <point x="390.0" y="387.0" type="move" name="top"/>
    </contour>
    <contour>
      <point x="759.0" y="357.0" type="move" name="topright"/>
    </contour>
    <contour>
      <point x="390.0" y="179.0" type="move" name="center"/>
    </contour>
  </outline>
</glyph>
<glyph name="p" format="1">
  <advance width="894"/>
  <unicode hex="0070"/>
  <outline>
    <contour>
      <point x="674" y="-10"/>
      <point x="814" y="67"/>
      <point x="814" y="195" type="curve"/>
      <point x="814" y="303"/>
      <point x="719" y="367"/>
      <point x="576" y="367" type="curve"/>
      <point x="446" y="367"/>
      <point x="324" y="303"/>
      <point x="208" y="219" type="curve"/>
      <point x="208" y="196" type="line"/>
      <point x="333" y="284"/>
      <point x="462" y="344"/>
      <point x="576" y="344" type="curve"/>
      <point x="709" y="344"/>
      <point x="789" y="283"/>
      <point x="789" y="195" type="curve"/>
      <point x="789" y="85"/>
      <point x="663" y="12"/>
      <point x="511" y="13" type="curve"/>
      <point x="392" y="12"/>
      <point x="279" y="55"/>
      <point x="205" y="95" type="curve"/>
      <point x="205" y="73" type="line"/>
      <point x="277" y="32"/>
      <point x="382" y="-10"/>
      <point x="511" y="-10" type="curve"/>
    </contour>
    <contour>
      <point x="413" y="-165" type="line"/>
      <point x="413" y="-142" type="line"/>
      <point x="15" y="-142" type="line"/>
      <point x="15" y="-165" type="line"/>
    </contour>
    <contour>
      <point x="221" y="-165" type="line"/>
      <point x="221" y="357" type="line"/>
      <point x="197" y="357" type="line"/>
      <point x="197" y="-165" type="line"/>
    </contour>
    <contour>
      <point x="221" y="334" type="line"/>
      <point x="221" y="357" type="line"/>
      <point x="15" y="357" type="line"/>
      <point x="15" y="334" type="line"/>
    </contour>
    <contour>
      <point x="444.0" y="367.0" type="move" name="top"/>
    </contour>
    <contour>
      <point x="444.0" y="-10.0" type="move" name="bottom"/>
    </contour>
  </outline>
</glyph>
<glyph name="q" format="1">
  <advance width="895"/>
  <unicode hex="0071"/>
  <outline>
    <contour>
      <point x="448" y="-11"/>
      <point x="570" y="53"/>
      <point x="686" y="137" type="curve"/>
      <point x="686" y="160" type="line"/>
      <point x="561" y="72"/>
      <point x="432" y="12"/>
      <point x="318" y="12" type="curve"/>
      <point x="185" y="12"/>
      <point x="105" y="73"/>
      <point x="105" y="161" type="curve"/>
      <point x="105" y="271"/>
      <point x="231" y="344"/>
      <point x="383" y="343" type="curve" smooth="yes"/>
      <point x="526" y="344"/>
      <point x="701" y="285"/>
      <point x="830" y="224" type="curve"/>
      <point x="830" y="248" type="line"/>
      <point x="702" y="310"/>
      <point x="537" y="367"/>
      <point x="383" y="366" type="curve" smooth="yes"/>
      <point x="220" y="366"/>
      <point x="80" y="289"/>
      <point x="80" y="161" type="curve"/>
      <point x="80" y="53"/>
      <point x="175" y="-11"/>
      <point x="318" y="-11" type="curve"/>
    </contour>
    <contour>
      <point x="880" y="-165" type="line"/>
      <point x="880" y="-142" type="line"/>
      <point x="481" y="-142" type="line"/>
      <point x="481" y="-165" type="line"/>
    </contour>
    <contour>
      <point x="698" y="-165" type="line"/>
      <point x="698" y="375" type="line"/>
      <point x="673" y="375" type="line"/>
      <point x="673" y="-165" type="line"/>
    </contour>
    <contour>
      <point x="382.0" y="179.0" type="move" name="center"/>
    </contour>
    <contour>
      <point x="382.0" y="-10.0" type="move" name="bottom"/>
    </contour>
    <contour>
      <point x="382.0" y="367.0" type="move" name="top"/>
    </contour>
  </outline>
</glyph>
<glyph name="s" format="1">
  <advance width="707"/>
  <unicode hex="0073"/>
  <outline>
    <contour>
      <point x="539" y="-10"/>
      <point x="625" y="19"/>
      <point x="625" y="86" type="curve" smooth="yes"/>
      <point x="625" y="158"/>
      <point x="540" y="177"/>
      <point x="350" y="188" type="curve" smooth="yes"/>
      <point x="176" y="198"/>
      <point x="113" y="222"/>
      <point x="113" y="268" type="curve" smooth="yes"/>
      <point x="113" y="318"/>
      <point x="184" y="345"/>
      <point x="301" y="345" type="curve" smooth="yes"/>
      <point x="426" y="345"/>
      <point x="536" y="306"/>
      <point x="609" y="220" type="curve"/>
      <point x="609" y="220" type="line"/>
      <point x="609" y="357" type="line"/>
      <point x="587" y="357" type="line"/>
      <point x="587" y="257" type="line"/>
      <point x="602" y="250" type="line"/>
      <point x="553" y="313"/>
      <point x="444" y="367"/>
      <point x="306" y="367" type="curve" smooth="yes"/>
      <point x="155" y="367"/>
      <point x="89" y="327"/>
      <point x="89" y="267" type="curve" smooth="yes"/>
      <point x="89" y="204"/>
      <point x="167" y="173"/>
      <point x="350" y="163" type="curve" smooth="yes"/>
      <point x="533" y="153"/>
      <point x="601" y="137"/>
      <point x="601" y="85" type="curve" smooth="yes"/>
      <point x="601" y="27"/>
      <point x="505" y="12"/>
      <point x="400" y="12" type="curve" smooth="yes"/>
      <point x="279" y="12"/>
      <point x="151" y="50"/>
      <point x="82" y="136" type="curve"/>
      <point x="82" y="136" type="line"/>
      <point x="82" y="0" type="line"/>
      <point x="104" y="0" type="line"/>
      <point x="104" y="99" type="line"/>
      <point x="88" y="106" type="line"/>
      <point x="135" y="43"/>
      <point x="257" y="-10"/>
      <point x="395" y="-10" type="curve" smooth="yes"/>
    </contour>
    <contour>
      <point x="357" y="367" type="move" name="top"/>
    </contour>
    <contour>
      <point x="397" y="-10" type="move" name="bottom"/>
    </contour>
  </outline>
</glyph>
<glyph name="t" format="1">
  <advance width="528"/>
  <unicode hex="0074"/>
  <outline>
    <contour>
      <point x="361" y="-10"/>
      <point x="425" y="14"/>
      <point x="468" y="35" type="curve"/>
      <point x="458" y="56" type="line"/>
      <point x="417" y="35"/>
      <point x="358" y="13"/>
      <point x="289" y="13" type="curve" smooth="yes"/>
      <point x="227" y="13"/>
      <point x="185" y="41"/>
      <point x="185" y="123" type="curve"/>
      <point x="185" y="456" type="line"/>
      <point x="160" y="456" type="line"/>
      <point x="160" y="123" type="line"/>
      <point x="160" y="27"/>
      <point x="210" y="-10"/>
      <point x="291" y="-10" type="curve" smooth="yes"/>
    </contour>
    <contour>
      <point x="423" y="334" type="line"/>
      <point x="423" y="357" type="line"/>
      <point x="30" y="357" type="line"/>
      <point x="30" y="334" type="line"/>
    </contour>
    <contour>
      <point x="306.0" y="-10.0" type="move" name="bottom"/>
    </contour>
    <contour>
      <point x="266.0" y="456.0" type="move" name="top"/>
    </contour>
    <contour>
      <point x="359.0" y="419.0" type="move" name="topright"/>
    </contour>
    <contour>
      <point x="266.0" y="179.0" type="move" name="center"/>
    </contour>
  </outline>
</glyph>
<glyph name="u" format="1">
  <advance width="843"/>
  <unicode hex="0075"/>
  <outline>
    <contour>
      <point x="695" y="334" type="line"/>
      <point x="695" y="357" type="line"/>
      <point x="489" y="357" type="line"/>
      <point x="489" y="334" type="line"/>
    </contour>
    <contour>
      <point x="493" y="-20"/>
      <point x="588" y="30"/>
      <point x="688" y="78" type="curve"/>
      <point x="688" y="102" type="line"/>
      <point x="588" y="52"/>
      <point x="478" y="3"/>
      <point x="379" y="3" type="curve"/>
      <point x="269" y="4"/>
      <point x="208" y="50"/>
      <point x="208" y="155" type="curve"/>
      <point x="208" y="357" type="line"/>
      <point x="183" y="357" type="line"/>
      <point x="183" y="155" type="line"/>
      <point x="183" y="29"/>
      <point x="259" y="-20"/>
      <point x="379" y="-20" type="curve"/>
    </contour>
    <contour>
      <point x="195" y="334" type="line"/>
      <point x="195" y="357" type="line"/>
      <point x="-5" y="357" type="line"/>
      <point x="-5" y="334" type="line"/>
    </contour>
    <contour>
      <point x="677" y="18"/>
      <point x="715" y="-20"/>
      <point x="765" y="-20" type="curve" smooth="yes"/>
      <point x="797" y="-20"/>
      <point x="823" y="-8"/>
      <point x="848" y="9" type="curve"/>
      <point x="838" y="29" type="line"/>
      <point x="815" y="12"/>
      <point x="793" y="3"/>
      <point x="766" y="3" type="curve" smooth="yes"/>
      <point x="734" y="3"/>
      <point x="702" y="28"/>
      <point x="702" y="84" type="curve"/>
      <point x="702" y="357" type="line"/>
      <point x="677" y="357" type="line"/>
      <point x="677" y="84" type="line"/>
    </contour>
    <contour>
      <point x="798.0" y="-2.0" type="move" name="ogonek"/>
    </contour>
    <contour>
      <point x="392.0" y="357.0" type="move" name="top"/>
    </contour>
    <contour>
      <point x="823.0" y="357.0" type="move" name="topright"/>
    </contour>
    <contour>
      <point x="422.0" y="-20.0" type="move" name="bottom"/>
    </contour>
  </outline>
</glyph>
<glyph name="w" format="1">
  <advance width="1025"/>
  <unicode hex="0077"/>
  <outline>
    <contour>
      <point x="359" y="-11" type="line"/>
      <point x="626" y="348" type="line"/>
      <point x="599" y="348" type="line"/>
      <point x="359" y="20" type="line"/>
      <point x="147" y="348" type="line"/>
      <point x="118" y="348" type="line"/>
      <point x="353" y="-11" type="line"/>
    </contour>
    <contour>
      <point x="257" y="334" type="line"/>
      <point x="257" y="357" type="line"/>
      <point x="5" y="357" type="line"/>
      <point x="5" y="334" type="line"/>
    </contour>
    <contour>
      <point x="667" y="-11" type="line"/>
      <point x="902" y="348" type="line"/>
      <point x="876" y="348" type="line"/>
      <point x="664" y="20" type="line"/>
      <point x="429" y="348" type="line"/>
      <point x="401" y="348" type="line"/>
      <point x="661" y="-11" type="line"/>
    </contour>
    <contour>
      <point x="681" y="335" type="line"/>
      <point x="681" y="357" type="line"/>
      <point x="344" y="357" type="line"/>
      <point x="344" y="335" type="line"/>
    </contour>
    <contour>
      <point x="1020" y="334" type="line"/>
      <point x="1020" y="357" type="line"/>
      <point x="767" y="357" type="line"/>
      <point x="767" y="334" type="line"/>
    </contour>
    <contour>
      <point x="513.0" y="357.0" type="move" name="top"/>
    </contour>
    <contour>
      <point x="513.0" y="0.0" type="move" name="bottom"/>
    </contour>
  </outline>
</glyph>
<glyph name="z" format="1">
  <advance width="745"/>
  <unicode hex="007A"/>
  <outline>
    <contour>
      <point x="596" y="259"/>
      <point x="483" y="227"/>
      <point x="365" y="190" type="curve" smooth="yes"/>
      <point x="254" y="155"/>
      <point x="139" y="116"/>
      <point x="85" y="1" type="curve"/>
      <point x="106" y="-10" type="line"/>
      <point x="159" y="96"/>
      <point x="265" y="136"/>
      <point x="370" y="170" type="curve" smooth="yes"/>
      <point x="494" y="209"/>
      <point x="617" y="240"/>
      <point x="654" y="358" type="curve"/>
      <point x="632" y="367" type="line"/>
    </contour>
    <contour>
      <point x="620" y="-10"/>
      <point x="677" y="41"/>
      <point x="690" y="121" type="curve"/>
      <point x="667" y="125" type="line"/>
      <point x="654" y="47"/>
      <point x="589" y="13"/>
      <point x="507" y="13" type="curve" smooth="yes"/>
      <point x="420" y="13"/>
      <point x="313" y="52"/>
      <point x="185" y="105" type="curve"/>
      <point x="169" y="90" type="line"/>
      <point x="299" y="35"/>
      <point x="409" y="-10"/>
      <point x="506" y="-10" type="curve" smooth="yes"/>
    </contour>
    <contour>
      <point x="122" y="185" type="line"/>
      <point x="122" y="345" type="line"/>
      <point x="338" y="345"/>
      <point x="455" y="290"/>
      <point x="570" y="250" type="curve"/>
      <point x="578" y="269" type="line"/>
      <point x="463" y="310"/>
      <point x="353" y="367"/>
      <point x="122" y="367" type="curve" smooth="yes"/>
      <point x="97" y="367" type="line"/>
      <point x="97" y="185" type="line"/>
    </contour>
    <contour>
      <point x="411" y="367" type="move" name="top"/>
    </contour>
    <contour>
      <point x="371" y="-10" type="move" name="bottom"/>
    </contour>
  </outline>
</glyph>
<glyph name="dieresis" format="1">
  <advance width="482"/>
  <unicode hex="00A8"/>
  <outline>
    <contour>
      <point x="324" y="629"/>
      <point x="307" y="617"/>
      <point x="307" y="600" type="curve"/>
      <point x="307" y="584"/>
      <point x="324" y="571"/>
      <point x="352" y="571" type="curve"/>
      <point x="381" y="571"/>
      <point x="396" y="584"/>
      <point x="396" y="600" type="curve"/>
      <point x="396" y="617"/>
      <point x="381" y="629"/>
      <point x="352" y="629" type="curve"/>
    </contour>
    <contour>
      <point x="102" y="629"/>
      <point x="86" y="617"/>
      <point x="86" y="600" type="curve"/>
      <point x="86" y="584"/>
      <point x="102" y="571"/>
      <point x="130" y="571" type="curve"/>
      <point x="159" y="571"/>
      <point x="175" y="584"/>
      <point x="175" y="600" type="curve"/>
      <point x="175" y="617"/>
      <point x="159" y="629"/>
      <point x="130" y="629" type="curve"/>
    </contour>
    <contour>
      <point x="232.0" y="461.0" type="move" name="_top"/>
    </contour>
  </outline>
</glyph>
<glyph name="macron" format="1">
  <advance width="617"/>
  <unicode hex="00AF"/>
  <outline>
    <contour>
      <point x="70" y="592" type="line"/>
      <point x="70" y="568" type="line"/>
      <point x="547" y="568" type="line"/>
      <point x="547" y="592" type="line"/>
    </contour>
    <contour>
      <point x="313" y="441" type="move" name="_top"/>
    </contour>
  </outline>
</glyph>
<glyph name="acute" format="1">
  <advance width="479"/>
  <unicode hex="00B4"/>
  <outline>
    <contour>
      <point x="389" y="662" type="line"/>
      <point x="400" y="634" type="line"/>
      <point x="96" y="513" type="line"/>
      <point x="90" y="531" type="line"/>
    </contour>
    <contour>
      <point x="213" y="421" type="move" name="_top"/>
    </contour>
  </outline>
</glyph>
<glyph name="AE" format="1">
  <advance width="1313"/>
  <unicode hex="00C6"/>
  <outline>
    <contour>
      <point x="324" y="0" type="line"/>
      <point x="324" y="23" type="line"/>
      <point x="-25" y="23" type="line"/>
      <point x="-25" y="0" type="line"/>
    </contour>
    <contour>
      <point x="744" y="202" type="line"/>
      <point x="334" y="202" type="line"/>
      <point x="310" y="179" type="line"/>
      <point x="744" y="179" type="line"/>
    </contour>
    <contour>
      <point x="127" y="13" type="line"/>
      <point x="160" y="13" type="line"/>
      <point x="598" y="472" type="line"/>
      <point x="588" y="472" type="line"/>
      <point x="828" y="13" type="line"/>
      <point x="856" y="13" type="line"/>
      <point x="611" y="480" type="line" smooth="yes"/>
      <point x="572" y="480" type="line"/>
    </contour>
    <contour>
      <point x="1264" y="0" type="line"/>
      <point x="1264" y="186" type="line"/>
      <point x="1240" y="186" type="line"/>
      <point x="1240" y="23" type="line"/>
      <point x="648" y="23" type="line"/>
      <point x="648" y="0" type="line"/>
    </contour>
    <contour>
      <point x="985" y="251" type="line"/>
      <point x="985" y="274" type="line"/>
      <point x="712" y="274" type="line"/>
      <point x="712" y="251" type="line"/>
    </contour>
    <contour>
      <point x="998" y="137" type="line"/>
      <point x="998" y="377" type="line"/>
      <point x="973" y="377" type="line"/>
      <point x="973" y="137" type="line"/>
    </contour>
    <contour>
      <point x="1239" y="467" type="line"/>
      <point x="1239" y="307" type="line"/>
      <point x="1264" y="307" type="line"/>
      <point x="1264" y="490" type="line"/>
      <point x="388" y="490" type="line"/>
      <point x="388" y="467" type="line"/>
    </contour>
    <contour>
      <point x="847.0" y="490.0" type="move" name="top"/>
    </contour>
    <contour>
      <point x="657.0" y="0.0" type="move" name="bottom"/>
    </contour>
  </outline>
</glyph>
<glyph name="Thorn" format="1">
  <advance width="852"/>
  <unicode hex="00DE"/>
  <outline>
    <contour>
      <point x="455" y="0" type="line"/>
      <point x="455" y="23" type="line"/>
      <point x="56" y="23" type="line"/>
      <point x="56" y="0" type="line"/>
    </contour>
    <contour>
      <point x="455" y="0" type="line" smooth="yes"/>
      <point x="455" y="23" type="line" smooth="yes"/>
      <point x="56" y="23" type="line" smooth="yes"/>
      <point x="56" y="0" type="line" smooth="yes"/>
    </contour>
    <contour>
      <point x="238" y="477" type="line" smooth="yes"/>
      <point x="238" y="13" type="line" smooth="yes"/>
      <point x="263" y="13" type="line" smooth="yes"/>
      <point x="263" y="477" type="line" smooth="yes"/>
    </contour>
    <contour>
      <point x="56" y="490" type="line" smooth="yes"/>
      <point x="56" y="467" type="line" smooth="yes"/>
      <point x="455" y="467" type="line" smooth="yes"/>
      <point x="455" y="490" type="line" smooth="yes"/>
    </contour>
    <contour>
      <point x="822" y="312"/>
      <point x="764" y="357"/>
      <point x="672" y="357" type="curve" smooth="yes"/>
      <point x="249" y="357" type="line"/>
      <point x="249" y="334" type="line"/>
      <point x="679" y="334" type="line" smooth="yes"/>
      <point x="745" y="334"/>
      <point x="797" y="303"/>
      <point x="797" y="245" type="curve"/>
      <point x="797" y="187"/>
      <point x="745" y="156"/>
      <point x="679" y="156" type="curve" smooth="yes"/>
      <point x="249" y="156" type="line"/>
      <point x="249" y="133" type="line"/>
      <point x="672" y="133" type="line" smooth="yes"/>
      <point x="764" y="133"/>
      <point x="822" y="178"/>
      <point x="822" y="245" type="curve"/>
    </contour>
    <contour>
      <point x="426.0" y="490.0" type="move" name="top"/>
    </contour>
    <contour>
      <point x="426.0" y="0.0" type="move" name="bottom"/>
    </contour>
  </outline>
</glyph>
<glyph name="germandbls" format="1">
  <advance width="838"/>
  <unicode hex="00DF"/>
  <outline>
    <contour>
      <point x="90" y="0" type="line"/>
      <point x="230" y="0" type="line"/>
      <point x="230" y="23" type="line"/>
      <point x="90" y="23" type="line"/>
    </contour>
    <contour>
      <point x="229" y="357" type="line"/>
      <point x="90" y="357" type="line"/>
      <point x="90" y="334" type="line"/>
      <point x="229" y="334" type="line"/>
    </contour>
    <contour>
      <point x="649" y="323"/>
      <point x="719" y="357"/>
      <point x="719" y="432" type="curve" smooth="yes"/>
      <point x="719" y="511"/>
      <point x="607" y="585"/>
      <point x="445" y="585" type="curve" smooth="yes"/>
      <point x="270" y="585"/>
      <point x="220" y="504"/>
      <point x="220" y="406" type="curve" smooth="yes"/>
      <point x="220" y="0" type="line"/>
      <point x="245" y="0" type="line"/>
      <point x="245" y="408" type="line" smooth="yes"/>
      <point x="245" y="495"/>
      <point x="287" y="562"/>
      <point x="443" y="562" type="curve" smooth="yes"/>
      <point x="594" y="562"/>
      <point x="694" y="499"/>
      <point x="694" y="432" type="curve" smooth="yes"/>
      <point x="694" y="371"/>
      <point x="636" y="343"/>
      <point x="545" y="327" type="curve" smooth="yes"/>
      <point x="438" y="308"/>
      <point x="383" y="288"/>
      <point x="383" y="231" type="curve" smooth="yes"/>
      <point x="383" y="174"/>
      <point x="444" y="149"/>
      <point x="589" y="136" type="curve" smooth="yes"/>
      <point x="692" y="127"/>
      <point x="769" y="123"/>
      <point x="769" y="71" type="curve" smooth="yes"/>
      <point x="769" y="28"/>
      <point x="708" y="2"/>
      <point x="638" y="2" type="curve" smooth="yes"/>
      <point x="557" y="2"/>
      <point x="436" y="40"/>
      <point x="367" y="126" type="curve"/>
      <point x="367" y="0" type="line"/>
      <point x="389" y="0" type="line"/>
      <point x="389" y="89" type="line"/>
      <point x="373" y="96" type="line"/>
      <point x="420" y="33"/>
      <point x="535" y="-20"/>
      <point x="638" y="-20" type="curve" smooth="yes"/>
      <point x="732" y="-20"/>
      <point x="793" y="15"/>
      <point x="793" y="72" type="curve" smooth="yes"/>
      <point x="793" y="144"/>
      <point x="699" y="150"/>
      <point x="589" y="161" type="curve" smooth="yes"/>
      <point x="465" y="173"/>
      <point x="407" y="187"/>
      <point x="407" y="232" type="curve" smooth="yes"/>
      <point x="407" y="282"/>
      <point x="480" y="291"/>
      <point x="550" y="304" type="curve" smooth="yes"/>
    </contour>
    <contour>
      <point x="419" y="357" type="move" name="top"/>
    </contour>
    <contour>
      <point x="419" y="0" type="move" name="bottom"/>
    </contour>
  </outline>
</glyph>
<glyph name="thorn" format="1">
  <advance width="879"/>
  <unicode hex="00FE"/>
  <outline>
    <contour>
      <point x="193" y="-165" type="line"/>
      <point x="217" y="-165" type="line"/>
      <point x="217" y="560" type="line"/>
      <point x="193" y="560" type="line"/>
    </contour>
    <contour>
      <point x="10" y="560" type="line"/>
      <point x="10" y="537" type="line"/>
      <point x="217" y="537" type="line"/>
      <point x="217" y="560" type="line"/>
    </contour>
    <contour>
      <point x="273" y="22"/>
      <point x="378" y="-20"/>
      <point x="507" y="-20" type="curve"/>
      <point x="660" y="-20"/>
      <point x="809" y="55"/>
      <point x="809" y="192" type="curve"/>
      <point x="809" y="307"/>
      <point x="714" y="376"/>
      <point x="571" y="376" type="curve"/>
      <point x="442" y="376"/>
      <point x="319" y="312"/>
      <point x="204" y="228" type="curve"/>
      <point x="204" y="205" type="line"/>
      <point x="329" y="293"/>
      <point x="457" y="353"/>
      <point x="571" y="353" type="curve"/>
      <point x="703" y="353"/>
      <point x="784" y="287"/>
      <point x="784" y="192" type="curve"/>
      <point x="784" y="72"/>
      <point x="648" y="2"/>
      <point x="507" y="3" type="curve"/>
      <point x="388" y="2"/>
      <point x="275" y="45"/>
      <point x="201" y="85" type="curve"/>
      <point x="201" y="63" type="line"/>
    </contour>
    <contour>
      <point x="32" y="-165" type="line"/>
      <point x="400" y="-165" type="line"/>
      <point x="400" y="-142" type="line"/>
      <point x="32" y="-142" type="line"/>
    </contour>
    <contour>
      <point x="440" y="387" type="move" name="top"/>
    </contour>
    <contour>
      <point x="440" y="-20" type="move" name="bottom"/>
    </contour>
  </outline>
</glyph>
<glyph name="dotlessi" format="1">
  <advance width="409"/>
  <unicode hex="0131"/>
  <outline>
    <contour>
      <point x="220" y="0" type="line"/>
      <point x="245" y="0" type="line"/>
      <point x="245" y="357" type="line"/>
      <point x="220" y="357" type="line"/>
    </contour>
    <contour>
      <point x="40" y="23" type="line"/>
      <point x="40" y="0" type="line"/>
      <point x="406" y="0" type="line"/>
      <point x="406" y="23" type="line"/>
    </contour>
    <contour>
      <point x="40" y="357" type="line"/>
      <point x="40" y="334" type="line"/>
      <point x="245" y="334" type="line"/>
      <point x="245" y="357" type="line"/>
    </contour>
    <contour>
      <point x="398.0" y="10.0" type="move" name="ogonek"/>
    </contour>
    <contour>
      <point x="205.0" y="0.0" type="move" name="bottom"/>
    </contour>
    <contour>
      <point x="215.0" y="357.0" type="move" name="top"/>
    </contour>
  </outline>
</glyph>
<glyph name="OE" format="1">
  <advance width="1369"/>
  <unicode hex="0152"/>
  <outline>
    <contour>
      <point x="1041" y="246" type="line"/>
      <point x="1041" y="269" type="line"/>
      <point x="718" y="269" type="line"/>
      <point x="718" y="246" type="line"/>
    </contour>
    <contour>
      <point x="1054" y="132" type="line"/>
      <point x="1054" y="372" type="line"/>
      <point x="1029" y="372" type="line"/>
      <point x="1029" y="132" type="line"/>
    </contour>
    <contour>
      <point x="721" y="13" type="line"/>
      <point x="721" y="477" type="line"/>
      <point x="696" y="477" type="line"/>
      <point x="696" y="13" type="line"/>
    </contour>
    <contour>
      <point x="1320" y="490" type="line"/>
      <point x="414" y="490" type="line" smooth="yes"/>
      <point x="209" y="490"/>
      <point x="70" y="405"/>
      <point x="70" y="245" type="curve" smooth="yes"/>
      <point x="70" y="85"/>
      <point x="209" y="0"/>
      <point x="414" y="0" type="curve" smooth="yes"/>
      <point x="1320" y="0" type="line"/>
      <point x="1320" y="186" type="line"/>
      <point x="1296" y="186" type="line"/>
      <point x="1296" y="23" type="line"/>
      <point x="414" y="23" type="line" smooth="yes"/>
      <point x="220" y="23"/>
      <point x="95" y="102"/>
      <point x="95" y="245" type="curve" smooth="yes"/>
      <point x="95" y="388"/>
      <point x="220" y="467"/>
      <point x="414" y="467" type="curve" smooth="yes"/>
      <point x="1295" y="467" type="line"/>
      <point x="1295" y="307" type="line"/>
      <point x="1320" y="307" type="line"/>
    </contour>
    <contour>
      <point x="685" y="490" type="move" name="top"/>
    </contour>
    <contour>
      <point x="685" y="0" type="move" name="bottom"/>
    </contour>
  </outline>
</glyph>
<glyph name="caron" format="1">
  <advance width="464"/>
  <unicode hex="02C7"/>
  <outline>
    <contour>
      <point x="232" y="497" type="line"/>
      <point x="66" y="624" type="line"/>
      <point x="55" y="611" type="line"/>
      <point x="222" y="469" type="line"/>
      <point x="242" y="469" type="line"/>
      <point x="409" y="611" type="line"/>
      <point x="398" y="624" type="line"/>
    </contour>
    <contour>
      <point x="232.0" y="391.0" type="move" name="_top"/>
    </contour>
  </outline>
</glyph>
<glyph name="macronmod" format="1">
  <advance width="617"/>
  <unicode hex="02C9"/>
  <outline>
    <contour>
      <point x="70" y="592" type="line"/>
      <point x="70" y="568" type="line"/>
      <point x="547" y="568" type="line"/>
      <point x="547" y="592" type="line"/>
    </contour>
    <contour>
      <point x="313" y="441" type="move" name="_top"/>
    </contour>
  </outline>
</glyph>
<glyph name="breve" format="1">
  <advance width="486"/>
  <unicode hex="02D8"/>
  <outline>
    <contour>
      <point x="317" y="508"/>
      <point x="376" y="560"/>
      <point x="396" y="630" type="curve"/>
      <point x="416" y="625" type="line"/>
      <point x="401" y="555"/>
      <point x="340" y="484"/>
      <point x="243" y="484" type="curve"/>
      <point x="146" y="484"/>
      <point x="85" y="555"/>
      <point x="70" y="625" type="curve"/>
      <point x="90" y="630" type="line"/>
      <point x="110" y="560"/>
      <point x="171" y="508"/>
      <point x="244" y="508" type="curve"/>
    </contour>
    <contour>
      <point x="243" y="391" type="move" name="_top"/>
    </contour>
  </outline>
</glyph>
<glyph name="dotaccent" format="1">
  <advance width="254"/>
  <unicode hex="02D9"/>
  <outline>
    <contour>
      <point x="94" y="633"/>
      <point x="75" y="619"/>
      <point x="75" y="599" type="curve"/>
      <point x="75" y="580"/>
      <point x="94" y="565"/>
      <point x="127" y="565" type="curve"/>
      <point x="161" y="565"/>
      <point x="179" y="580"/>
      <point x="179" y="599" type="curve"/>
      <point x="179" y="619"/>
      <point x="161" y="633"/>
      <point x="127" y="633" type="curve"/>
    </contour>
    <contour>
      <point x="127" y="461" type="move" name="_top"/>
    </contour>
  </outline>
</glyph>
<glyph name="ogonek" format="1">
  <advance width="383"/>
  <unicode hex="02DB"/>
  <outline>
    <contour>
      <point x="170" y="3" type="line"/>
      <point x="107" y="-13"/>
      <point x="70" y="-49"/>
      <point x="70" y="-92" type="curve" smooth="yes"/>
      <point x="70" y="-144"/>
      <point x="125" y="-174"/>
      <point x="190" y="-174" type="curve" smooth="yes"/>
      <point x="245" y="-174"/>
      <point x="285" y="-154"/>
      <point x="313" y="-136" type="curve"/>
      <point x="303" y="-116" type="line"/>
      <point x="277" y="-133"/>
      <point x="238" y="-151"/>
      <point x="190" y="-151" type="curve" smooth="yes"/>
      <point x="138" y="-151"/>
      <point x="95" y="-128"/>
      <point x="95" y="-89" type="curve" smooth="yes"/>
      <point x="95" y="-49"/>
      <point x="131" y="-23"/>
      <point x="178" y="-7" type="curve"/>
    </contour>
    <contour>
      <point x="160.0" y="1.0" type="move" name="_ogonek"/>
    </contour>
  </outline>
</glyph>
<glyph name="hungarumlaut" format="1">
  <advance width="537"/>
  <unicode hex="02DD"/>
  <outline>
    <contour>
      <point x="428" y="664" type="line"/>
      <point x="445" y="644" type="line"/>
      <point x="270" y="487" type="line"/>
      <point x="261" y="497" type="line"/>
    </contour>
    <contour>
      <point x="232" y="664" type="line"/>
      <point x="249" y="644" type="line"/>
      <point x="74" y="487" type="line"/>
      <point x="65" y="497" type="line"/>
    </contour>
    <contour>
      <point x="247" y="391" type="move" name="_top"/>
    </contour>
  </outline>
</glyph>
<glyph name="acutecomb" format="1">
  <advance width="479"/>
  <unicode hex="0301"/>
  <outline>
    <contour>
      <point x="389" y="662" type="line"/>
      <point x="400" y="634" type="line"/>
      <point x="96" y="513" type="line"/>
      <point x="90" y="531" type="line"/>
    </contour>
    <contour>
      <point x="213.0" y="421.0" type="move" name="_top"/>
    </contour>
  </outline>
</glyph>
<glyph name="circumflexcomb" format="1">
  <advance width="464"/>
  <unicode hex="0302"/>
  <outline>
    <contour>
      <point x="232" y="596" type="line"/>
      <point x="398" y="469" type="line"/>
      <point x="409" y="482" type="line"/>
      <point x="242" y="624" type="line"/>
      <point x="222" y="624" type="line"/>
      <point x="55" y="482" type="line"/>
      <point x="66" y="469" type="line"/>
    </contour>
    <contour>
      <point x="232.0" y="391.0" type="move" name="_top"/>
    </contour>
  </outline>
</glyph>
<glyph name="macroncomb" format="1">
  <advance width="617"/>
  <unicode hex="0304"/>
  <outline>
    <contour>
      <point x="70" y="592" type="line"/>
      <point x="70" y="568" type="line"/>
      <point x="547" y="568" type="line"/>
      <point x="547" y="592" type="line"/>
    </contour>
    <contour>
      <point x="313.0" y="441.0" type="move" name="_top"/>
    </contour>
  </outline>
</glyph>
<glyph name="brevecomb" format="1">
  <advance width="486"/>
  <unicode hex="0306"/>
  <outline>
    <contour>
      <point x="317" y="508"/>
      <point x="376" y="560"/>
      <point x="396" y="630" type="curve"/>
      <point x="416" y="625" type="line"/>
      <point x="401" y="555"/>
      <point x="340" y="484"/>
      <point x="243" y="484" type="curve"/>
      <point x="146" y="484"/>
      <point x="85" y="555"/>
      <point x="70" y="625" type="curve"/>
      <point x="90" y="630" type="line"/>
      <point x="110" y="560"/>
      <point x="171" y="508"/>
      <point x="244" y="508" type="curve"/>
    </contour>
    <contour>
      <point x="243.0" y="391.0" type="move" name="_top"/>
    </contour>
  </outline>
</glyph>
<glyph name="dieresiscomb" format="1">
  <advance width="482"/>
  <unicode hex="0308"/>
  <outline>
    <contour>
      <point x="324" y="629"/>
      <point x="307" y="617"/>
      <point x="307" y="600" type="curve"/>
      <point x="307" y="584"/>
      <point x="324" y="571"/>
      <point x="352" y="571" type="curve"/>
      <point x="381" y="571"/>
      <point x="396" y="584"/>
      <point x="396" y="600" type="curve"/>
      <point x="396" y="617"/>
      <point x="381" y="629"/>
      <point x="352" y="629" type="curve"/>
    </contour>
    <contour>
      <point x="102" y="629"/>
      <point x="86" y="617"/>
      <point x="86" y="600" type="curve"/>
      <point x="86" y="584"/>
      <point x="102" y="571"/>
      <point x="130" y="571" type="curve"/>
      <point x="159" y="571"/>
      <point x="175" y="584"/>
      <point x="175" y="600" type="curve"/>
      <point x="175" y="617"/>
      <point x="159" y="629"/>
      <point x="130" y="629" type="curve"/>
    </contour>
    <contour>
      <point x="232.0" y="461.0" type="move" name="_top"/>
    </contour>
  </outline>
</glyph>
<glyph name="hungarumlautcomb" format="1">
  <advance width="537"/>
  <unicode hex="030B"/>
  <outline>
    <contour>
      <point x="428" y="664" type="line"/>
      <point x="445" y="644" type="line"/>
      <point x="270" y="487" type="line"/>
      <point x="261" y="497" type="line"/>
    </contour>
    <contour>
      <point x="232" y="664" type="line"/>
      <point x="249" y="644" type="line"/>
      <point x="74" y="487" type="line"/>
      <point x="65" y="497" type="line"/>
    </contour>
    <contour>
      <point x="247.0" y="391.0" type="move" name="_top"/>
    </contour>
  </outline>
</glyph>
<glyph name="caroncomb" format="1">
  <advance width="464"/>
  <unicode hex="030C"/>
  <outline>
    <contour>
      <point x="232" y="497" type="line"/>
      <point x="66" y="624" type="line"/>
      <point x="55" y="611" type="line"/>
      <point x="222" y="469" type="line"/>
      <point x="242" y="469" type="line"/>
      <point x="409" y="611" type="line"/>
      <point x="398" y="624" type="line"/>
    </contour>
    <contour>
      <point x="232.0" y="391.0" type="move" name="_top"/>
    </contour>
  </outline>
</glyph>
<glyph name="commaturnedabovecomb" format="1">
  <advance width="262"/>
  <unicode hex="0312"/>
  <outline>
    <contour>
      <point x="77" y="488"/>
      <point x="97" y="470"/>
      <point x="126" y="470" type="curve" smooth="yes"/>
      <point x="154" y="470"/>
      <point x="171" y="484"/>
      <point x="171" y="501" type="curve" smooth="yes"/>
      <point x="171" y="518"/>
      <point x="155" y="529"/>
      <point x="132" y="529" type="curve" smooth="yes"/>
      <point x="119" y="529"/>
      <point x="108" y="527"/>
      <point x="97" y="525" type="curve"/>
      <point x="104" y="569"/>
      <point x="136" y="605"/>
      <point x="186" y="650" type="curve"/>
      <point x="175" y="662" type="line"/>
      <point x="114" y="614"/>
      <point x="77" y="560"/>
      <point x="77" y="517" type="curve" smooth="yes"/>
    </contour>
    <contour>
      <point x="127.0" y="393.0" type="move" name="_top"/>
    </contour>
  </outline>
</glyph>
<glyph name="danda" format="1">
  <advance width="595"/>
  <unicode hex="0964"/>
  <outline>
    <contour>
      <point x="363" y="489" type="line"/>
      <point x="363" y="-110" type="line"/>
      <point x="393" y="-110" type="line"/>
      <point x="393" y="489" type="line"/>
    </contour>
  </outline>
</glyph>
<glyph name="grAdakbindi" format="1">
  <advance width="6"/>
  <unicode hex="0A01"/>
  <outline>
    <contour>
      <point x="-174.36" y="1140.0"/>
      <point x="-92.74" y="1210.24"/>
      <point x="-78" y="1296" type="curve"/>
      <point x="-106" y="1304" type="line"/>
      <point x="-110.02" y="1226.28"/>
      <point x="-186.74" y="1159.0"/>
      <point x="-306" y="1159" type="curve" smooth="yes"/>
      <point x="-422.58" y="1159.0"/>
      <point x="-492.94" y="1215.56"/>
      <point x="-505" y="1304" type="curve"/>
      <point x="-533" y="1296" type="line"/>
      <point x="-516.92" y="1198.18"/>
      <point x="-423.6" y="1140.0"/>
      <point x="-303" y="1140" type="curve" smooth="yes"/>
    </contour>
    <component base="uni0A3C" xOffset="716" yOffset="1345"/>
  </outline>
</glyph>
<glyph name="grBindi" format="1">
  <advance width="3"/>
  <unicode hex="0A02"/>
  <outline>
    <contour>
      <point x="-53" y="1145" type="line"/>
      <point x="-17" y="1145" type="line"/>
      <point x="-17" y="1201" type="line"/>
      <point x="-53" y="1201" type="line"/>
    </contour>
  </outline>
</glyph>
<glyph name="grVisarga" format="1">
  <advance width="-6"/>
  <unicode hex="0A03"/>
  <outline>
    <contour>
      <point x="-360.0" y="391.82"/>
      <point x="-311.3" y="361.0"/>
      <point x="-251" y="361" type="curve" smooth="yes"/>
      <point x="-189.36" y="361.0"/>
      <point x="-139.0" y="391.82"/>
      <point x="-139" y="428" type="curve" smooth="yes"/>
      <point x="-139.0" y="468.2"/>
      <point x="-186.68" y="499.0"/>
      <point x="-251" y="499" type="curve" smooth="yes"/>
      <point x="-313.98" y="499.0"/>
      <point x="-360.0" y="468.2"/>
      <point x="-360" y="428" type="curve" smooth="yes"/>
    </contour>
    <contour>
      <point x="-333.0" y="459.82"/>
      <point x="-296.56" y="482.0"/>
      <point x="-251" y="482" type="curve" smooth="yes"/>
      <point x="-205.44" y="482.0"/>
      <point x="-167.0" y="459.82"/>
      <point x="-167" y="429" type="curve" smooth="yes"/>
      <point x="-167.0" y="400.86"/>
      <point x="-205.44" y="379.0"/>
      <point x="-251" y="379" type="curve" smooth="yes"/>
      <point x="-296.56" y="379.0"/>
      <point x="-333.0" y="400.86"/>
      <point x="-333" y="429" type="curve" smooth="yes"/>
    </contour>
    <contour>
      <point x="-360.0" y="125.48"/>
      <point x="-311.3" y="96.0"/>
      <point x="-251" y="96" type="curve" smooth="yes"/>
      <point x="-189.36" y="96.0"/>
      <point x="-139.0" y="125.48"/>
      <point x="-139" y="163" type="curve" smooth="yes"/>
      <point x="-139.0" y="203.2"/>
      <point x="-186.68" y="234.0"/>
      <point x="-251" y="234" type="curve" smooth="yes"/>
      <point x="-313.98" y="234.0"/>
      <point x="-360.0" y="203.2"/>
      <point x="-360" y="163" type="curve" smooth="yes"/>
    </contour>
    <contour>
      <point x="-333.0" y="193.48"/>
      <point x="-296.56" y="215.0"/>
      <point x="-251" y="215" type="curve" smooth="yes"/>
      <point x="-205.44" y="215.0"/>
      <point x="-167.0" y="193.48"/>
      <point x="-167" y="164" type="curve" smooth="yes"/>
      <point x="-167.0" y="134.52"/>
      <point x="-205.44" y="113.0"/>
      <point x="-251" y="113" type="curve" smooth="yes"/>
      <point x="-296.56" y="113.0"/>
      <point x="-333.0" y="134.52"/>
      <point x="-333" y="164" type="curve" smooth="yes"/>
    </contour>
  </outline>
</glyph>
<glyph name="grA" format="1">
  <advance width="1074"/>
  <unicode hex="0A05"/>
  <outline>
    <contour>
      <point x="888" y="490" type="line"/>
      <point x="860" y="490" type="line"/>
      <point x="860" y="0" type="line"/>
      <point x="888" y="0" type="line"/>
    </contour>
    <contour>
      <point x="1075" y="472" type="line"/>
      <point x="1075" y="490" type="line"/>
      <point x="860" y="490" type="line"/>
      <point x="860" y="472" type="line"/>
    </contour>
    <contour>
      <point x="555" y="148" type="line"/>
      <point x="608.6" y="196.24"/>
      <point x="625.82" y="318.92"/>
      <point x="595" y="402" type="curve"/>
      <point x="506.56" y="407.36"/>
      <point x="342.12" y="362.02"/>
      <point x="251" y="291" type="curve"/>
      <point x="258" y="286" type="line"/>
      <point x="262.02" y="355.68"/>
      <point x="238.24" y="424.18"/>
      <point x="190" y="455" type="curve" smooth="yes"/>
      <point x="147.12" y="483.14"/>
      <point x="86" y="491"/>
      <point x="27" y="491" type="curve" smooth="yes"/>
      <point x="2" y="491" type="line"/>
      <point x="-3" y="473" type="line"/>
      <point x="18" y="473" type="line" smooth="yes"/>
      <point x="98" y="473"/>
      <point x="140.54" y="461.08"/>
      <point x="166" y="445" type="curve" smooth="yes"/>
      <point x="215.58" y="412.84"/>
      <point x="235.02" y="342.66"/>
      <point x="231" y="277" type="curve"/>
      <point x="115" y="189" type="line"/>
      <point x="150" y="178" type="line"/>
      <point x="270" y="278" type="line"/>
      <point x="339.68" y="339.64"/>
      <point x="498.88" y="389.04"/>
      <point x="590" y="381" type="curve"/>
      <point x="575" y="392" type="line"/>
      <point x="589.74" y="311.6"/>
      <point x="582.3" y="205.32"/>
      <point x="522" y="141" type="curve"/>
      <point x="425" y="64" type="line"/>
      <point x="460" y="53" type="line"/>
      <point x="534" y="118" type="line"/>
      <point x="610.38" y="178.3"/>
      <point x="731.62" y="202.0"/>
      <point x="875" y="202" type="curve" smooth="yes"/>
      <point x="881" y="202" type="line"/>
      <point x="881" y="222" type="line"/>
      <point x="872" y="222" type="line" smooth="yes"/>
      <point x="758.1" y="222.0"/>
      <point x="642.48" y="207.28"/>
      <point x="546" y="151" type="curve"/>
    </contour>
  </outline>
</glyph>
<glyph name="grAI" format="1">
  <advance width="1074"/>
  <unicode hex="0A10"/>
  <outline>
    <component base="uni0A47" xOffset="1306"/>
    <component base="grA"/>
    <component base="grsignAI" xOffset="1063"/>
    <contour>
      <point x="1418.0" y="1248.0" type="move" name="mark0"/>
    </contour>
  </outline>
</glyph>
<glyph name="grOO" format="1">
  <advance width="1000"/>
  <unicode hex="0A13"/>
  <outline>
    <contour>
      <point x="-10" y="490" type="line"/>
      <point x="-10" y="467" type="line"/>
      <point x="1010" y="467" type="line"/>
      <point x="1010" y="490" type="line"/>
    </contour>
    <contour>
      <point x="830" y="685" type="line"/>
      <point x="830" y="708" type="line"/>
      <point x="621" y="708" type="line" smooth="yes"/>
      <point x="300" y="708"/>
      <point x="159" y="572"/>
      <point x="159" y="382" type="curve" smooth="yes"/>
      <point x="159" y="168"/>
      <point x="333" y="10"/>
      <point x="569" y="10" type="curve" smooth="yes"/>
      <point x="707" y="10"/>
      <point x="767" y="65"/>
      <point x="767" y="129" type="curve" smooth="yes"/>
      <point x="767" y="186"/>
      <point x="735" y="244"/>
      <point x="628" y="255" type="curve"/>
      <point x="627" y="246" type="line"/>
      <point x="760" y="253"/>
      <point x="860" y="351"/>
      <point x="860" y="481" type="curve"/>
      <point x="835" y="482" type="line"/>
      <point x="835" y="361"/>
      <point x="747" y="263"/>
      <point x="557" y="263" type="curve" smooth="yes"/>
      <point x="196" y="263" type="line"/>
      <point x="196" y="240" type="line"/>
      <point x="562" y="240" type="line" smooth="yes"/>
      <point x="688" y="240"/>
      <point x="742" y="187"/>
      <point x="742" y="128" type="curve" smooth="yes"/>
      <point x="742" y="77"/>
      <point x="691" y="33"/>
      <point x="569" y="33" type="curve" smooth="yes"/>
      <point x="346" y="33"/>
      <point x="184" y="175"/>
      <point x="184" y="382" type="curve" smooth="yes"/>
      <point x="184" y="556"/>
      <point x="313" y="685"/>
      <point x="623" y="685" type="curve" smooth="yes"/>
    </contour>
  </outline>
</glyph>
<glyph name="grAU" format="1">
  <advance width="1082"/>
  <unicode hex="0A14"/>
  <outline>
    <component base="uni0A4C" xOffset="1418"/>
    <component base="grA"/>
    <component base="grsignAU" xOffset="1081"/>
    <contour>
      <point x="1698.0" y="1248.0" type="move" name="mark0"/>
    </contour>
  </outline>
</glyph>
<glyph name="grKA" format="1">
  <advance width="921"/>
  <unicode hex="0A15"/>
  <outline>
    <contour>
      <point x="654" y="230" type="line"/>
      <point x="640" y="212" type="line"/>
      <point x="646" y="205" type="line" smooth="yes"/>
      <point x="694.24" y="142.02"/>
      <point x="725.9" y="91.74"/>
      <point x="746" y="10" type="curve" smooth="yes"/>
      <point x="748" y="0" type="line"/>
      <point x="778" y="2" type="line"/>
      <point x="774" y="16" type="line" smooth="yes"/>
      <point x="749.88" y="97.74"/>
      <point x="712.6" y="165.04"/>
      <point x="659" y="224" type="curve" smooth="yes"/>
    </contour>
    <contour>
      <point x="648" y="235" type="line"/>
      <point x="642" y="241" type="line" smooth="yes"/>
      <point x="576.34" y="306.66"/>
      <point x="466.56" y="355.0"/>
      <point x="354" y="355" type="curve" smooth="yes"/>
      <point x="197.22" y="355.0"/>
      <point x="122.0" y="290.0"/>
      <point x="122" y="223" type="curve" smooth="yes"/>
      <point x="122.0" y="151.98"/>
      <point x="209.58" y="76.0"/>
      <point x="361" y="76" type="curve" smooth="yes"/>
      <point x="567.36" y="76.0"/>
      <point x="734" y="211"/>
      <point x="734" y="444" type="curve" smooth="yes"/>
      <point x="734" y="488" type="line"/>
      <point x="706" y="488" type="line"/>
      <point x="706" y="439" type="line" smooth="yes"/>
      <point x="706" y="221"/>
      <point x="547.94" y="94.0"/>
      <point x="359" y="94" type="curve" smooth="yes"/>
      <point x="231.7" y="94.0"/>
      <point x="150.0" y="158.02"/>
      <point x="150" y="221" type="curve" smooth="yes"/>
      <point x="150.0" y="281.3"/>
      <point x="218.32" y="337.0"/>
      <point x="355" y="337" type="curve" smooth="yes"/>
      <point x="450.14" y="337.0"/>
      <point x="559.66" y="295.7"/>
      <point x="628" y="222" type="curve" smooth="yes"/>
      <point x="633" y="217" type="line"/>
    </contour>
    <contour>
      <point x="921" y="472" type="line"/>
      <point x="921" y="490" type="line"/>
      <point x="0" y="490" type="line"/>
      <point x="0" y="472" type="line"/>
    </contour>
  </outline>
</glyph>
<glyph name="grKHA" format="1">
  <advance width="915"/>
  <unicode hex="0A16"/>
  <outline>
    <contour>
      <point x="724" y="307" type="line"/>
      <point x="213" y="307" type="line"/>
      <point x="213" y="284" type="line"/>
      <point x="724" y="284" type="line"/>
    </contour>
    <contour>
      <point x="728" y="490" type="line"/>
      <point x="703" y="490" type="line"/>
      <point x="703" y="0" type="line"/>
      <point x="728" y="0" type="line"/>
    </contour>
    <contour>
      <point x="915" y="467" type="line"/>
      <point x="915" y="490" type="line"/>
      <point x="705" y="490" type="line"/>
      <point x="705" y="467" type="line"/>
    </contour>
    <contour>
      <point x="194" y="467" type="line"/>
      <point x="191" y="490" type="line"/>
      <point x="0" y="490" type="line"/>
      <point x="0" y="467" type="line"/>
    </contour>
    <contour>
      <point x="168" y="490" type="line"/>
      <point x="179" y="447"/>
      <point x="207" y="322"/>
      <point x="208" y="306" type="curve"/>
      <point x="208" y="282"/>
      <point x="177" y="189"/>
      <point x="160" y="141" type="curve"/>
      <point x="236" y="91"/>
      <point x="353" y="62"/>
      <point x="464" y="62" type="curve" smooth="yes"/>
      <point x="571" y="62"/>
      <point x="648" y="74"/>
      <point x="725" y="91" type="curve"/>
      <point x="725" y="116" type="line"/>
      <point x="636" y="97"/>
      <point x="555" y="86"/>
      <point x="461" y="86" type="curve" smooth="yes"/>
      <point x="363" y="86"/>
      <point x="239" y="117"/>
      <point x="180" y="158" type="curve"/>
      <point x="188" y="141" type="line"/>
      <point x="203" y="185"/>
      <point x="234" y="279"/>
      <point x="234" y="302" type="curve"/>
      <point x="231" y="326"/>
      <point x="198" y="473"/>
      <point x="194" y="490" type="curve"/>
    </contour>
  </outline>
</glyph>
<glyph name="grGA" format="1">
  <advance width="1066"/>
  <unicode hex="0A17"/>
  <outline>
    <contour>
      <point x="1066" y="472" type="line"/>
      <point x="1066" y="490" type="line"/>
      <point x="0" y="490" type="line"/>
      <point x="0" y="472" type="line"/>
    </contour>
    <contour>
      <point x="546" y="314" type="line"/>
      <point x="269" y="314" type="line" smooth="yes"/>
      <point x="135.0" y="314.0"/>
      <point x="76.0" y="275.92"/>
      <point x="76" y="225" type="curve"/>
      <point x="76" y="224" type="line"/>
      <point x="76.0" y="123.5"/>
      <point x="264.3" y="8.0"/>
      <point x="405" y="8" type="curve"/>
      <point x="406" y="8" type="line"/>
      <point x="490.42" y="8.0"/>
      <point x="550" y="42"/>
      <point x="550" y="122" type="curve" smooth="yes"/>
      <point x="550" y="487" type="line"/>
      <point x="522" y="487" type="line"/>
      <point x="522" y="124" type="line" smooth="yes"/>
      <point x="522" y="56"/>
      <point x="476.34" y="26.0"/>
      <point x="408" y="26" type="curve"/>
      <point x="407" y="26" type="line"/>
      <point x="282.38" y="26.0"/>
      <point x="106.0" y="134.22"/>
      <point x="106" y="224" type="curve"/>
      <point x="106" y="224" type="line"/>
      <point x="106.0" y="266.88"/>
      <point x="154.08" y="295.0"/>
      <point x="272" y="295" type="curve" smooth="yes"/>
      <point x="546" y="295" type="line"/>
    </contour>
    <contour>
      <point x="878" y="490" type="line"/>
      <point x="850" y="490" type="line"/>
      <point x="850" y="0" type="line"/>
      <point x="878" y="0" type="line"/>
    </contour>
  </outline>
</glyph>
<glyph name="grGHA" format="1">
  <advance width="1162"/>
  <unicode hex="0A18"/>
  <outline>
    <contour>
      <point x="839" y="111" type="line" smooth="yes"/>
      <point x="727.78" y="111.0"/>
      <point x="642.54" y="150.2"/>
      <point x="601" y="244" type="curve"/>
      <point x="601" y="468" type="line"/>
      <point x="570" y="468" type="line"/>
      <point x="571" y="247" type="line"/>
      <point x="533.48" y="151.86"/>
      <point x="442.5" y="108.0"/>
      <point x="342" y="108" type="curve" smooth="yes"/>
      <point x="341" y="108" type="line" smooth="yes"/>
      <point x="286.06" y="108.0"/>
      <point x="218.18" y="127.2"/>
      <point x="182" y="154" type="curve"/>
      <point x="187" y="141" type="line"/>
      <point x="201.74" y="185.22"/>
      <point x="235.0" y="279.22"/>
      <point x="235" y="302" type="curve"/>
      <point x="232.32" y="326.12"/>
      <point x="199" y="473"/>
      <point x="195" y="490" type="curve"/>
      <point x="166" y="490" type="line"/>
      <point x="177" y="447"/>
      <point x="204.66" y="322.08"/>
      <point x="206" y="306" type="curve"/>
      <point x="206.0" y="281.88"/>
      <point x="174.42" y="191.24"/>
      <point x="157" y="143" type="curve"/>
      <point x="194.52" y="114.86"/>
      <point x="272.66" y="89.0"/>
      <point x="341" y="89" type="curve" smooth="yes"/>
      <point x="342" y="89" type="line" smooth="yes"/>
      <point x="458.58" y="89.0"/>
      <point x="546.78" y="138.9"/>
      <point x="591" y="226" type="curve"/>
      <point x="581" y="226" type="line"/>
      <point x="626.56" y="136.22"/>
      <point x="715.72" y="92.0"/>
      <point x="839" y="92" type="curve" smooth="yes"/>
      <point x="840" y="92" type="line" smooth="yes"/>
      <point x="865.46" y="92.0"/>
      <point x="923.22" y="97.98"/>
      <point x="946" y="102" type="curve" smooth="yes"/>
      <point x="970" y="108" type="line"/>
      <point x="970" y="126" type="line"/>
      <point x="946" y="121" type="line" smooth="yes"/>
      <point x="916.52" y="114.3"/>
      <point x="865.46" y="111.0"/>
      <point x="840" y="111" type="curve" smooth="yes"/>
    </contour>
    <contour>
      <point x="974" y="490" type="line"/>
      <point x="946" y="490" type="line"/>
      <point x="946" y="0" type="line"/>
      <point x="974" y="0" type="line"/>
    </contour>
    <contour>
      <point x="1162" y="472" type="line"/>
      <point x="1162" y="490" type="line"/>
      <point x="948" y="490" type="line"/>
      <point x="948" y="472" type="line"/>
    </contour>
    <contour>
      <point x="196" y="472" type="line"/>
      <point x="193" y="490" type="line"/>
      <point x="0" y="490" type="line"/>
      <point x="0" y="472" type="line"/>
    </contour>
  </outline>
</glyph>
<glyph name="grNGA" format="1">
  <advance width="845"/>
  <unicode hex="0A19"/>
  <outline>
    <contour>
      <point x="620" y="114" type="line"/>
      <point x="603" y="123" type="line" smooth="yes"/>
      <point x="509.2" y="179.28"/>
      <point x="430.5" y="208.0"/>
      <point x="330" y="208" type="curve"/>
      <point x="329" y="208" type="line"/>
      <point x="216.44" y="208.0"/>
      <point x="149.0" y="158.58"/>
      <point x="149" y="109" type="curve"/>
      <point x="149" y="109" type="line"/>
      <point x="149.0" y="51.38"/>
      <point x="216.14" y="10.0"/>
      <point x="322" y="10" type="curve"/>
      <point x="323" y="10" type="line"/>
      <point x="511.94" y="10.0"/>
      <point x="706.0" y="132.46"/>
      <point x="706" y="241" type="curve"/>
      <point x="706" y="242" type="line"/>
      <point x="706.0" y="294.26"/>
      <point x="632.26" y="351.0"/>
      <point x="513" y="351" type="curve" smooth="yes"/>
      <point x="191" y="351" type="line"/>
      <point x="191" y="332" type="line"/>
      <point x="504" y="332" type="line" smooth="yes"/>
      <point x="613.88" y="332.0"/>
      <point x="676.0" y="286.24"/>
      <point x="676" y="238" type="curve"/>
      <point x="676" y="238" type="line"/>
      <point x="676.0" y="149.56"/>
      <point x="512.28" y="29.0"/>
      <point x="322" y="29" type="curve"/>
      <point x="322" y="29" type="line"/>
      <point x="234.9" y="29.0"/>
      <point x="178.0" y="61.1"/>
      <point x="178" y="108" type="curve"/>
      <point x="178" y="109" type="line"/>
      <point x="178.0" y="147.86"/>
      <point x="236.2" y="190.0"/>
      <point x="330" y="190" type="curve"/>
      <point x="330" y="190" type="line"/>
      <point x="413.08" y="190.0"/>
      <point x="490.2" y="166.62"/>
      <point x="584" y="109" type="curve" smooth="yes"/>
      <point x="600" y="99" type="line"/>
    </contour>
    <contour>
      <point x="845" y="471" type="line"/>
      <point x="845" y="490" type="line"/>
      <point x="0" y="490" type="line"/>
      <point x="0" y="471" type="line"/>
    </contour>
    <contour>
      <point x="215" y="487" type="line"/>
      <point x="187" y="487" type="line"/>
      <point x="187" y="332" type="line"/>
      <point x="215" y="332" type="line"/>
    </contour>
    <contour>
      <point x="761" y="5" type="line"/>
      <point x="780" y="19" type="line"/>
      <point x="623" y="112" type="line"/>
      <point x="605" y="97" type="line"/>
    </contour>
  </outline>
</glyph>
<glyph name="grCA" format="1">
  <advance width="914"/>
  <unicode hex="0A1A"/>
  <outline>
    <contour>
      <point x="924" y="467" type="line"/>
      <point x="924" y="490" type="line"/>
      <point x="-10" y="490" type="line"/>
      <point x="-10" y="467" type="line"/>
    </contour>
    <contour>
      <point x="717" y="256" type="line"/>
      <point x="717" y="279" type="line"/>
      <point x="154" y="279" type="line"/>
      <point x="166" y="256" type="line"/>
    </contour>
    <contour>
      <point x="572" y="25" type="curve" smooth="yes"/>
      <point x="431" y="25"/>
      <point x="268" y="126"/>
      <point x="151" y="299" type="curve" smooth="yes"/>
      <point x="97" y="379" type="line"/>
      <point x="73" y="369" type="line"/>
      <point x="121" y="299" type="line" smooth="yes"/>
      <point x="253" y="107"/>
      <point x="413" y="2"/>
      <point x="572" y="2" type="curve" smooth="yes"/>
      <point x="689" y="2"/>
      <point x="727" y="61"/>
      <point x="727" y="135" type="curve" smooth="yes"/>
      <point x="727" y="488" type="line"/>
      <point x="702" y="488" type="line"/>
      <point x="702" y="135" type="line" smooth="yes"/>
      <point x="702" y="66"/>
      <point x="670" y="25"/>
    </contour>
    <contour>
      <point x="702" y="490" type="move" name="top"/>
    </contour>
  </outline>
</glyph>
<glyph name="grCHA" format="1">
  <advance width="947"/>
  <unicode hex="0A1B"/>
  <outline>
    <contour>
      <point x="116" y="49"/>
      <point x="213" y="0"/>
      <point x="477" y="0" type="curve" smooth="yes"/>
      <point x="764" y="0"/>
      <point x="852" y="55"/>
      <point x="852" y="122" type="curve" smooth="yes"/>
      <point x="852" y="181"/>
      <point x="779" y="238"/>
      <point x="478" y="238" type="curve" smooth="yes"/>
      <point x="189" y="238"/>
      <point x="116" y="177"/>
      <point x="116" y="123" type="curve" smooth="yes"/>
    </contour>
    <contour>
      <point x="474" y="14" type="line"/>
      <point x="499" y="14" type="line"/>
      <point x="499" y="221" type="line"/>
      <point x="474" y="221" type="line"/>
    </contour>
    <contour>
      <point x="247" y="23"/>
      <point x="141" y="66"/>
      <point x="141" y="120" type="curve" smooth="yes"/>
      <point x="141" y="168"/>
      <point x="219" y="215"/>
      <point x="478" y="215" type="curve" smooth="yes"/>
      <point x="749" y="215"/>
      <point x="827" y="167"/>
      <point x="827" y="120" type="curve" smooth="yes"/>
      <point x="827" y="68"/>
      <point x="723" y="23"/>
      <point x="481" y="23" type="curve" smooth="yes"/>
    </contour>
    <contour>
      <point x="756" y="356" type="line"/>
      <point x="756" y="483" type="line"/>
      <point x="731" y="483" type="line"/>
      <point x="731" y="356" type="line"/>
    </contour>
    <contour>
      <point x="273" y="205" type="curve"/>
      <point x="304" y="216" type="line"/>
      <point x="210" y="245"/>
      <point x="176" y="274"/>
      <point x="176" y="306" type="curve" smooth="yes"/>
      <point x="176" y="334"/>
      <point x="209" y="356"/>
      <point x="292" y="356" type="curve" smooth="yes"/>
      <point x="743" y="356" type="line"/>
      <point x="743" y="379" type="line"/>
      <point x="292" y="379" type="line" smooth="yes"/>
      <point x="194" y="379"/>
      <point x="151" y="348"/>
      <point x="151" y="307" type="curve" smooth="yes"/>
      <point x="151" y="269"/>
      <point x="181" y="234"/>
    </contour>
    <contour>
      <point x="958" y="467" type="line"/>
      <point x="958" y="490" type="line"/>
      <point x="-62" y="490" type="line"/>
      <point x="-62" y="467" type="line"/>
    </contour>
  </outline>
</glyph>
<glyph name="grJA" format="1">
  <advance width="862"/>
  <unicode hex="0A1C"/>
  <outline>
    <contour>
      <point x="213" y="254" type="line"/>
      <point x="213" y="231" type="line"/>
      <point x="671" y="231" type="line"/>
      <point x="671" y="254" type="line"/>
    </contour>
    <contour>
      <point x="209" y="254" type="line"/>
      <point x="209" y="0" type="line"/>
      <point x="234" y="0" type="line"/>
      <point x="234" y="254" type="line"/>
    </contour>
    <contour>
      <point x="235" y="249" type="line"/>
      <point x="147" y="356" type="line"/>
      <point x="129" y="343" type="line"/>
      <point x="213" y="238" type="line"/>
    </contour>
    <contour>
      <point x="675" y="488" type="line"/>
      <point x="650" y="488" type="line"/>
      <point x="650" y="0" type="line"/>
      <point x="675" y="0" type="line"/>
    </contour>
    <contour>
      <point x="862" y="467" type="line"/>
      <point x="862" y="490" type="line"/>
      <point x="0" y="490" type="line"/>
      <point x="0" y="467" type="line"/>
    </contour>
  </outline>
</glyph>
<glyph name="grJHA" format="1">
  <advance width="934"/>
  <unicode hex="0A1D"/>
  <outline>
    <contour>
      <point x="965" y="467" type="line"/>
      <point x="965" y="490" type="line"/>
      <point x="-53" y="490" type="line"/>
      <point x="-53" y="467" type="line"/>
    </contour>
    <contour>
      <point x="98" y="296" type="line"/>
      <point x="98" y="273" type="line"/>
      <point x="622" y="273" type="line" smooth="yes"/>
      <point x="753" y="273"/>
      <point x="786" y="240"/>
      <point x="786" y="207" type="curve" smooth="yes"/>
      <point x="786" y="172"/>
      <point x="751" y="137"/>
      <point x="568" y="137" type="curve" smooth="yes"/>
      <point x="270" y="137" type="line"/>
      <point x="270" y="114" type="line"/>
      <point x="541" y="114" type="line"/>
      <point x="774" y="-8" type="line"/>
      <point x="789" y="12" type="line"/>
      <point x="566" y="126" type="line"/>
      <point x="568" y="115" type="line"/>
      <point x="593" y="115" type="line" smooth="yes"/>
      <point x="763" y="115"/>
      <point x="809" y="158"/>
      <point x="809" y="206" type="curve" smooth="yes"/>
      <point x="809" y="256"/>
      <point x="769" y="296"/>
      <point x="620" y="296" type="curve" smooth="yes"/>
    </contour>
    <contour>
      <point x="757" y="481" type="curve"/>
      <point x="729" y="481" type="line"/>
      <point x="679" y="380"/>
      <point x="583" y="295"/>
      <point x="478" y="295" type="curve" smooth="yes"/>
      <point x="363" y="295"/>
      <point x="268" y="380"/>
      <point x="220" y="482" type="curve"/>
      <point x="192" y="482" type="line"/>
      <point x="253" y="356"/>
      <point x="347" y="274"/>
      <point x="478" y="274" type="curve" smooth="yes"/>
      <point x="598" y="274"/>
      <point x="693" y="356"/>
    </contour>
  </outline>
</glyph>
<glyph name="grNYA" format="1">
  <advance width="986"/>
  <unicode hex="0A1E"/>
  <outline>
    <contour>
      <point x="228" y="489" type="line"/>
      <point x="198" y="489" type="line"/>
      <point x="205" y="474" type="line" smooth="yes"/>
      <point x="222" y="435"/>
      <point x="255" y="395"/>
      <point x="299" y="348" type="curve" smooth="yes"/>
      <point x="308" y="339" type="line"/>
      <point x="338" y="339" type="line"/>
      <point x="328" y="348" type="line" smooth="yes"/>
      <point x="288" y="390"/>
      <point x="254" y="428"/>
      <point x="234" y="474" type="curve" smooth="yes"/>
    </contour>
    <component base="uni0A35"/>
    <component base="grVA"/>
  </outline>
</glyph>
<glyph name="grTTA" format="1">
  <advance width="890"/>
  <unicode hex="0A1F"/>
  <outline>
    <contour>
      <point x="623" y="311" type="line"/>
      <point x="623" y="329" type="line"/>
      <point x="593" y="329" type="line" smooth="yes"/>
      <point x="396.02" y="329.0"/>
      <point x="225.24" y="269.9"/>
      <point x="110" y="156" type="curve"/>
      <point x="191.74" y="83.64"/>
      <point x="377.04" y="15.0"/>
      <point x="503" y="15" type="curve" smooth="yes"/>
      <point x="565.98" y="15.0"/>
      <point x="673.0" y="37.52"/>
      <point x="740" y="67" type="curve"/>
      <point x="730" y="83" type="line"/>
      <point x="654.96" y="53.52"/>
      <point x="559.6" y="34.0"/>
      <point x="506" y="34" type="curve" smooth="yes"/>
      <point x="400.14" y="34.0"/>
      <point x="222.08" y="93.32"/>
      <point x="139" y="163" type="curve"/>
      <point x="139" y="148" type="line"/>
      <point x="255.58" y="257.88"/>
      <point x="414.78" y="311.0"/>
      <point x="593" y="311" type="curve" smooth="yes"/>
    </contour>
    <contour>
      <point x="599" y="311" type="line"/>
      <point x="627" y="311" type="line"/>
      <point x="627" y="487" type="line"/>
      <point x="599" y="487" type="line"/>
    </contour>
    <contour>
      <point x="890" y="471" type="line"/>
      <point x="890" y="490" type="line"/>
      <point x="0" y="490" type="line"/>
      <point x="0" y="471" type="line"/>
    </contour>
  </outline>
</glyph>
<glyph name="grTTHA" format="1">
  <advance width="934"/>
  <unicode hex="0A20"/>
  <outline>
    <contour>
      <point x="940" y="467" type="line"/>
      <point x="940" y="490" type="line"/>
      <point x="-10" y="490" type="line"/>
      <point x="-10" y="467" type="line"/>
    </contour>
    <contour>
      <point x="477" y="490" type="line"/>
      <point x="452" y="490" type="line"/>
      <point x="452" y="349" type="line"/>
      <point x="477" y="349" type="line"/>
    </contour>
    <contour>
      <point x="239" y="23"/>
      <point x="146" y="101"/>
      <point x="146" y="159" type="curve" smooth="yes"/>
      <point x="146" y="215"/>
      <point x="231" y="275"/>
      <point x="466" y="337" type="curve"/>
      <point x="715" y="271"/>
      <point x="790" y="214"/>
      <point x="790" y="159" type="curve" smooth="yes"/>
      <point x="790" y="98"/>
      <point x="668" y="23"/>
      <point x="463" y="23" type="curve" smooth="yes"/>
    </contour>
    <contour>
      <point x="702" y="0"/>
      <point x="814" y="87"/>
      <point x="814" y="159" type="curve" smooth="yes"/>
      <point x="814" y="221"/>
      <point x="751" y="290"/>
      <point x="474" y="357" type="curve"/>
      <point x="457" y="357" type="line"/>
      <point x="198" y="294"/>
      <point x="121" y="224"/>
      <point x="121" y="158" type="curve" smooth="yes"/>
      <point x="121" y="90"/>
      <point x="212" y="0"/>
      <point x="463" y="0" type="curve" smooth="yes"/>
    </contour>
  </outline>
</glyph>
<glyph name="grDDA" format="1">
  <advance width="927"/>
  <unicode hex="0A21"/>
  <outline>
    <contour>
      <point x="937" y="471" type="line"/>
      <point x="937" y="490" type="line"/>
      <point x="3" y="490" type="line"/>
      <point x="3" y="471" type="line"/>
    </contour>
    <contour>
      <point x="253.08" y="34.0"/>
      <point x="189.0" y="72.4"/>
      <point x="189" y="126" type="curve" smooth="yes"/>
      <point x="189.0" y="152.8"/>
      <point x="235.6" y="184.0"/>
      <point x="316" y="184" type="curve" smooth="yes"/>
      <point x="433.92" y="184.0"/>
      <point x="521.76" y="123.4"/>
      <point x="570" y="43" type="curve" smooth="yes"/>
      <point x="576" y="32" type="line"/>
      <point x="602" y="37" type="line"/>
      <point x="596" y="49" type="line" smooth="yes"/>
      <point x="550.44" y="133.42"/>
      <point x="450.0" y="202.0"/>
      <point x="316" y="202" type="curve" smooth="yes"/>
      <point x="212.82" y="202.0"/>
      <point x="158.0" y="160.84"/>
      <point x="158" y="126" type="curve" smooth="yes"/>
      <point x="158.0" y="64.36"/>
      <point x="248.74" y="15.0"/>
      <point x="435" y="15" type="curve" smooth="yes"/>
      <point x="630.64" y="15.0"/>
      <point x="774.0" y="72.9"/>
      <point x="774" y="160" type="curve" smooth="yes"/>
      <point x="774.0" y="228.34"/>
      <point x="694.52" y="290.18"/>
      <point x="523" y="321" type="curve"/>
      <point x="523" y="313" type="line"/>
      <point x="671.74" y="326.4"/>
      <point x="749" y="358"/>
      <point x="749" y="450" type="curve" smooth="yes"/>
      <point x="749" y="490" type="line"/>
      <point x="721" y="490" type="line"/>
      <point x="721" y="439" type="line" smooth="yes"/>
      <point x="721" y="361"/>
      <point x="617.66" y="324.32"/>
      <point x="418" y="327" type="curve" smooth="yes"/>
      <point x="252" y="327" type="line"/>
      <point x="258" y="308" type="line"/>
      <point x="417" y="308" type="line" smooth="yes"/>
      <point x="595.22" y="308.0"/>
      <point x="745.0" y="236.72"/>
      <point x="745" y="159" type="curve" smooth="yes"/>
      <point x="745.0" y="93.34"/>
      <point x="618.9" y="34.0"/>
      <point x="438" y="34" type="curve" smooth="yes"/>
    </contour>
  </outline>
</glyph>
<glyph name="grDDHA" format="1">
  <advance width="909"/>
  <unicode hex="0A22"/>
  <outline>
    <contour>
      <point x="161" y="304" type="line" smooth="yes"/>
      <point x="267" y="90"/>
      <point x="397" y="0"/>
      <point x="606" y="0" type="curve" smooth="yes"/>
      <point x="736" y="0"/>
      <point x="799" y="52"/>
      <point x="799" y="106" type="curve" smooth="yes"/>
      <point x="799" y="149"/>
      <point x="759" y="194"/>
      <point x="656" y="194" type="curve" smooth="yes"/>
      <point x="561" y="194"/>
      <point x="459" y="151"/>
      <point x="367" y="67" type="curve"/>
      <point x="393" y="57" type="line"/>
      <point x="475" y="133"/>
      <point x="573" y="171"/>
      <point x="655" y="171" type="curve" smooth="yes"/>
      <point x="739" y="171"/>
      <point x="775" y="138"/>
      <point x="775" y="105" type="curve" smooth="yes"/>
      <point x="775" y="64"/>
      <point x="719" y="23"/>
      <point x="605" y="23" type="curve" smooth="yes"/>
      <point x="414" y="23"/>
      <point x="285" y="108"/>
      <point x="188" y="304" type="curve" smooth="yes"/>
      <point x="144" y="393" type="line"/>
      <point x="122" y="383" type="line"/>
    </contour>
    <contour>
      <point x="909" y="467" type="line"/>
      <point x="909" y="490" type="line"/>
      <point x="0" y="490" type="line"/>
      <point x="0" y="467" type="line"/>
    </contour>
    <contour>
      <point x="697" y="300" type="line"/>
      <point x="722" y="300" type="line"/>
      <point x="722" y="488" type="line"/>
      <point x="697" y="488" type="line"/>
    </contour>
    <contour>
      <point x="722" y="293" type="line"/>
      <point x="722" y="316" type="line"/>
      <point x="180" y="316" type="line"/>
      <point x="182" y="293" type="line"/>
    </contour>
  </outline>
</glyph>
<glyph name="grNNA" format="1">
  <advance width="858"/>
  <unicode hex="0A23"/>
  <outline>
    <contour>
      <point x="517" y="207" type="line"/>
      <point x="517" y="226" type="line"/>
      <point x="470" y="226" type="line" smooth="yes"/>
      <point x="319.92" y="226.0"/>
      <point x="216.3" y="174.88"/>
      <point x="156" y="132" type="curve"/>
      <point x="209.6" y="65.0"/>
      <point x="382.84" y="15.0"/>
      <point x="482" y="15" type="curve" smooth="yes"/>
      <point x="567.76" y="15.0"/>
      <point x="657.38" y="45.22"/>
      <point x="715" y="68" type="curve"/>
      <point x="707" y="85" type="line"/>
      <point x="656.08" y="60.88"/>
      <point x="546.3" y="34.0"/>
      <point x="486" y="34" type="curve" smooth="yes"/>
      <point x="385.5" y="34.0"/>
      <point x="236.92" y="79.72"/>
      <point x="186" y="136" type="curve"/>
      <point x="186" y="121" type="line"/>
      <point x="219.5" y="151.82"/>
      <point x="324.26" y="207.0"/>
      <point x="473" y="207" type="curve" smooth="yes"/>
    </contour>
    <contour>
      <point x="493" y="207" type="line"/>
      <point x="522" y="207" type="line"/>
      <point x="522" y="340" type="line"/>
      <point x="493" y="340" type="line"/>
    </contour>
    <contour>
      <point x="858" y="471" type="line"/>
      <point x="858" y="490" type="line"/>
      <point x="-22" y="490" type="line"/>
      <point x="-22" y="471" type="line"/>
    </contour>
    <contour>
      <point x="250" y="489" type="line"/>
      <point x="217" y="489" type="line"/>
      <point x="229" y="472" type="line" smooth="yes"/>
      <point x="284" y="394"/>
      <point x="435.82" y="333.24"/>
      <point x="673" y="285" type="curve" smooth="yes"/>
      <point x="751" y="271" type="line"/>
      <point x="758" y="289" type="line"/>
      <point x="679" y="303" type="line" smooth="yes"/>
      <point x="464.6" y="347.22"/>
      <point x="308" y="406"/>
      <point x="262" y="472" type="curve" smooth="yes"/>
    </contour>
  </outline>
</glyph>
<glyph name="grTA" format="1">
  <advance width="788"/>
  <unicode hex="0A24"/>
  <outline>
    <contour>
      <point x="798" y="467" type="line"/>
      <point x="798" y="490" type="line"/>
      <point x="-10" y="490" type="line"/>
      <point x="-10" y="467" type="line"/>
    </contour>
    <contour>
      <point x="326" y="29"/>
      <point x="217" y="45"/>
      <point x="100" y="92" type="curve"/>
      <point x="90" y="70" type="line"/>
      <point x="216" y="22"/>
      <point x="316" y="6"/>
      <point x="435" y="6" type="curve" smooth="yes"/>
      <point x="596" y="6"/>
      <point x="690" y="64"/>
      <point x="690" y="142" type="curve" smooth="yes"/>
      <point x="690" y="221"/>
      <point x="627" y="280"/>
      <point x="439" y="291" type="curve"/>
      <point x="439" y="283" type="line"/>
      <point x="604" y="286"/>
      <point x="659" y="373"/>
      <point x="659" y="455" type="curve" smooth="yes"/>
      <point x="659" y="490" type="line"/>
      <point x="634" y="490" type="line"/>
      <point x="634" y="454" type="line" smooth="yes"/>
      <point x="634" y="379"/>
      <point x="583" y="296"/>
      <point x="352" y="296" type="curve" smooth="yes"/>
      <point x="204" y="296" type="line"/>
      <point x="204" y="273" type="line"/>
      <point x="370" y="273" type="line" smooth="yes"/>
      <point x="584" y="273"/>
      <point x="666" y="213"/>
      <point x="666" y="143" type="curve" smooth="yes"/>
      <point x="666" y="80"/>
      <point x="582" y="29"/>
      <point x="438" y="29" type="curve" smooth="yes"/>
    </contour>
    <contour>
      <point x="634" y="490" type="move" name="top"/>
    </contour>
  </outline>
</glyph>
<glyph name="grTHA" format="1">
  <advance width="879"/>
  <unicode hex="0A25"/>
  <outline>
    <contour>
      <point x="686" y="307" type="line"/>
      <point x="175" y="307" type="line"/>
      <point x="175" y="284" type="line"/>
      <point x="686" y="284" type="line"/>
    </contour>
    <contour>
      <point x="690" y="490" type="line"/>
      <point x="665" y="490" type="line"/>
      <point x="665" y="0" type="line"/>
      <point x="690" y="0" type="line"/>
    </contour>
    <contour>
      <point x="129" y="490" type="line"/>
      <point x="140" y="447"/>
      <point x="168" y="322"/>
      <point x="169" y="306" type="curve"/>
      <point x="169" y="282"/>
      <point x="138" y="189"/>
      <point x="121" y="141" type="curve"/>
      <point x="197" y="91"/>
      <point x="314" y="62"/>
      <point x="425" y="62" type="curve" smooth="yes"/>
      <point x="532" y="62"/>
      <point x="609" y="74"/>
      <point x="686" y="91" type="curve"/>
      <point x="686" y="116" type="line"/>
      <point x="597" y="97"/>
      <point x="516" y="86"/>
      <point x="422" y="86" type="curve" smooth="yes"/>
      <point x="324" y="86"/>
      <point x="200" y="117"/>
      <point x="141" y="158" type="curve"/>
      <point x="149" y="141" type="line"/>
      <point x="164" y="185"/>
      <point x="195" y="279"/>
      <point x="195" y="302" type="curve"/>
      <point x="192" y="326"/>
      <point x="159" y="473"/>
      <point x="155" y="490" type="curve"/>
    </contour>
    <contour>
      <point x="878" y="467" type="line"/>
      <point x="878" y="490" type="line"/>
      <point x="-5" y="490" type="line"/>
      <point x="-5" y="467" type="line"/>
    </contour>
  </outline>
</glyph>
<glyph name="grDA" format="1">
  <advance width="886"/>
  <unicode hex="0A26"/>
  <outline>
    <contour>
      <point x="161" y="304" type="line" smooth="yes"/>
      <point x="267" y="90"/>
      <point x="397" y="0"/>
      <point x="606" y="0" type="curve" smooth="yes"/>
      <point x="660" y="0"/>
      <point x="730" y="7"/>
      <point x="772" y="14" type="curve"/>
      <point x="768" y="36" type="line"/>
      <point x="732" y="29"/>
      <point x="652" y="23"/>
      <point x="605" y="23" type="curve" smooth="yes"/>
      <point x="414" y="23"/>
      <point x="285" y="108"/>
      <point x="188" y="304" type="curve" smooth="yes"/>
      <point x="144" y="393" type="line"/>
      <point x="122" y="383" type="line"/>
    </contour>
    <contour>
      <point x="889" y="467" type="line"/>
      <point x="889" y="490" type="line"/>
      <point x="0" y="490" type="line"/>
      <point x="0" y="467" type="line"/>
    </contour>
    <contour>
      <point x="674" y="276" type="line"/>
      <point x="699" y="276" type="line"/>
      <point x="699" y="488" type="line"/>
      <point x="674" y="488" type="line"/>
    </contour>
    <contour>
      <point x="699" y="269" type="line"/>
      <point x="699" y="292" type="line"/>
      <point x="188" y="292" type="line"/>
      <point x="190" y="269" type="line"/>
    </contour>
  </outline>
</glyph>
<glyph name="grDHA" format="1">
  <advance width="880.0"/>
  <unicode hex="0A27"/>
  <outline>
    <contour>
      <point x="693" y="488" type="line"/>
      <point x="665" y="488" type="line"/>
      <point x="665" y="0" type="line"/>
      <point x="693" y="0" type="line"/>
    </contour>
    <contour>
      <point x="881" y="472" type="line"/>
      <point x="881" y="490" type="line"/>
      <point x="0" y="490" type="line"/>
      <point x="0" y="472" type="line"/>
    </contour>
    <contour>
      <point x="166" y="490" type="line"/>
      <point x="175" y="447"/>
      <point x="203.32" y="322.08"/>
      <point x="206" y="306" type="curve"/>
      <point x="206.0" y="281.88"/>
      <point x="173.42" y="191.24"/>
      <point x="156" y="143" type="curve"/>
      <point x="221.66" y="96.1"/>
      <point x="333.8" y="64.0"/>
      <point x="441" y="64" type="curve"/>
      <point x="442" y="64" type="line"/>
      <point x="522.4" y="64.0"/>
      <point x="603.36" y="73.94"/>
      <point x="665" y="86" type="curve" smooth="yes"/>
      <point x="689" y="91" type="line"/>
      <point x="689" y="110" type="line"/>
      <point x="665" y="106" type="line" smooth="yes"/>
      <point x="593.98" y="91.26"/>
      <point x="521.06" y="82.0"/>
      <point x="442" y="82" type="curve"/>
      <point x="441" y="82" type="line"/>
      <point x="349.88" y="82.0"/>
      <point x="242.64" y="111.12"/>
      <point x="181" y="154" type="curve"/>
      <point x="186" y="141" type="line"/>
      <point x="200.74" y="185.22"/>
      <point x="234.0" y="279.22"/>
      <point x="234" y="302" type="curve"/>
      <point x="232.66" y="326.12"/>
      <point x="198" y="473"/>
      <point x="194" y="490" type="curve"/>
    </contour>
  </outline>
</glyph>
<glyph name="grNA" format="1">
  <advance width="950"/>
  <unicode hex="0A28"/>
  <outline>
    <contour>
      <point x="957" y="467" type="line"/>
      <point x="957" y="490" type="line"/>
      <point x="-12" y="490" type="line"/>
      <point x="-12" y="467" type="line"/>
    </contour>
    <contour>
      <point x="486" y="490" type="line"/>
      <point x="461" y="490" type="line"/>
      <point x="461" y="348" type="line"/>
      <point x="486" y="348" type="line"/>
    </contour>
    <contour>
      <point x="583" y="24" type="curve"/>
      <point x="588" y="0" type="line"/>
      <point x="745" y="27"/>
      <point x="823" y="85"/>
      <point x="823" y="151" type="curve" smooth="yes"/>
      <point x="823" y="218"/>
      <point x="760.0" y="290.0"/>
      <point x="483.0" y="357.0" type="curve"/>
      <point x="466.0" y="357.0" type="line"/>
      <point x="208.0" y="294.0"/>
      <point x="130" y="223"/>
      <point x="130" y="152" type="curve" smooth="yes"/>
      <point x="130" y="91"/>
      <point x="197" y="25"/>
      <point x="354" y="0" type="curve"/>
      <point x="359" y="24" type="line"/>
      <point x="221" y="46"/>
      <point x="155" y="100"/>
      <point x="155" y="153" type="curve" smooth="yes"/>
      <point x="155" y="218"/>
      <point x="245.0" y="275.0"/>
      <point x="475.0" y="337.0" type="curve"/>
      <point x="724.0" y="271.0"/>
      <point x="799" y="211"/>
      <point x="799" y="151" type="curve" smooth="yes"/>
      <point x="799" y="94"/>
      <point x="719" y="47"/>
    </contour>
  </outline>
</glyph>
<glyph name="grPA" format="1">
  <advance width="858"/>
  <unicode hex="0A2A"/>
  <outline>
    <contour>
      <point x="670" y="490" type="line"/>
      <point x="642" y="490" type="line"/>
      <point x="642" y="0" type="line"/>
      <point x="670" y="0" type="line"/>
    </contour>
    <contour>
      <point x="858" y="472" type="line"/>
      <point x="858" y="490" type="line"/>
      <point x="644" y="490" type="line"/>
      <point x="644" y="472" type="line"/>
    </contour>
    <contour>
      <point x="166" y="490" type="line"/>
      <point x="177" y="447"/>
      <point x="204.66" y="322.08"/>
      <point x="206" y="306" type="curve"/>
      <point x="206.0" y="281.88"/>
      <point x="174.42" y="191.24"/>
      <point x="157" y="143" type="curve"/>
      <point x="222.66" y="96.1"/>
      <point x="322.8" y="64.0"/>
      <point x="430" y="64" type="curve"/>
      <point x="431" y="64" type="line"/>
      <point x="503.36" y="64.0"/>
      <point x="580.36" y="70.28"/>
      <point x="642" y="81" type="curve" smooth="yes"/>
      <point x="666" y="85" type="line"/>
      <point x="666" y="106" type="line"/>
      <point x="642" y="101" type="line" smooth="yes"/>
      <point x="570.98" y="87.6"/>
      <point x="500.68" y="82.0"/>
      <point x="431" y="82" type="curve"/>
      <point x="430" y="82" type="line"/>
      <point x="340.22" y="82.0"/>
      <point x="243.64" y="111.12"/>
      <point x="182" y="154" type="curve"/>
      <point x="187" y="141" type="line"/>
      <point x="201.74" y="185.22"/>
      <point x="235.0" y="279.22"/>
      <point x="235" y="302" type="curve"/>
      <point x="232.32" y="326.12"/>
      <point x="199" y="473"/>
      <point x="195" y="490" type="curve"/>
    </contour>
    <contour>
      <point x="196" y="472" type="line"/>
      <point x="193" y="490" type="line"/>
      <point x="0" y="490" type="line"/>
      <point x="0" y="472" type="line"/>
    </contour>
  </outline>
</glyph>
<glyph name="grPHA" format="1">
  <advance width="867"/>
  <unicode hex="0A2B"/>
  <outline>
    <contour>
      <point x="307" y="70" type="line"/>
      <point x="319" y="81" type="line" smooth="yes"/>
      <point x="392.7" y="150.68"/>
      <point x="490.94" y="187.0"/>
      <point x="570" y="187" type="curve" smooth="yes"/>
      <point x="571" y="187" type="line"/>
      <point x="666.14" y="187.0"/>
      <point x="714.0" y="150.52"/>
      <point x="714" y="113" type="curve" smooth="yes"/>
      <point x="714" y="113" type="line"/>
      <point x="714.0" y="66.1"/>
      <point x="656.48" y="34.0"/>
      <point x="560" y="34" type="curve" smooth="yes"/>
      <point x="559" y="34" type="line"/>
      <point x="355.32" y="34.0"/>
      <point x="164.0" y="135.16"/>
      <point x="164" y="237" type="curve" smooth="yes"/>
      <point x="164" y="238" type="line" smooth="yes"/>
      <point x="164.0" y="292.94"/>
      <point x="220.06" y="332.0"/>
      <point x="342" y="332" type="curve" smooth="yes"/>
      <point x="676" y="332" type="line"/>
      <point x="676" y="350" type="line"/>
      <point x="334" y="350" type="line" smooth="yes"/>
      <point x="198.66" y="350.0"/>
      <point x="134.0" y="303.64"/>
      <point x="134" y="242" type="curve" smooth="yes"/>
      <point x="134" y="241" type="line" smooth="yes"/>
      <point x="134.0" y="117.72"/>
      <point x="346.62" y="15.0"/>
      <point x="557" y="15" type="curve" smooth="yes"/>
      <point x="558" y="15" type="line"/>
      <point x="681.28" y="15.0"/>
      <point x="742.0" y="59.4"/>
      <point x="742" y="113" type="curve" smooth="yes"/>
      <point x="742" y="114" type="line"/>
      <point x="742.0" y="159.56"/>
      <point x="687.24" y="206.0"/>
      <point x="572" y="206" type="curve" smooth="yes"/>
      <point x="571" y="206" type="line"/>
      <point x="473.18" y="206.0"/>
      <point x="374.06" y="162.68"/>
      <point x="295" y="93" type="curve" smooth="yes"/>
      <point x="282" y="81" type="line"/>
    </contour>
    <contour>
      <point x="867" y="471" type="line"/>
      <point x="867" y="490" type="line"/>
      <point x="0" y="490" type="line"/>
      <point x="0" y="471" type="line"/>
    </contour>
    <contour>
      <point x="652" y="332" type="line"/>
      <point x="680" y="332" type="line"/>
      <point x="680" y="487" type="line"/>
      <point x="652" y="487" type="line"/>
    </contour>
  </outline>
</glyph>
<glyph name="grBA" format="1">
  <advance width="910"/>
  <unicode hex="0A2C"/>
  <outline>
    <contour>
      <point x="153" y="486" type="line"/>
      <point x="124" y="486" type="line"/>
      <point x="128" y="472" type="line" smooth="yes"/>
      <point x="156" y="377"/>
      <point x="263.06" y="290.08"/>
      <point x="452" y="274" type="curve"/>
      <point x="452" y="283" type="line"/>
      <point x="316.66" y="272.28"/>
      <point x="188.0" y="221.3"/>
      <point x="121" y="161" type="curve"/>
      <point x="210.78" y="94.0"/>
      <point x="360.62" y="48.0"/>
      <point x="504" y="48" type="curve" smooth="yes"/>
      <point x="505" y="48" type="line"/>
      <point x="592.1" y="48.0"/>
      <point x="645.76" y="53.96"/>
      <point x="694" y="62" type="curve" smooth="yes"/>
      <point x="710" y="64" type="line"/>
      <point x="710" y="83" type="line"/>
      <point x="694" y="80" type="line" smooth="yes"/>
      <point x="636.38" y="70.62"/>
      <point x="585.38" y="66.0"/>
      <point x="509" y="66" type="curve" smooth="yes"/>
      <point x="508" y="66" type="line"/>
      <point x="376.68" y="66.0"/>
      <point x="244.48" y="104.02"/>
      <point x="148" y="167" type="curve"/>
      <point x="148" y="152" type="line"/>
      <point x="219.02" y="214.98"/>
      <point x="365.28" y="268.0"/>
      <point x="510" y="268" type="curve" smooth="yes"/>
      <point x="710" y="268" type="line"/>
      <point x="710" y="287" type="line"/>
      <point x="514" y="287" type="line" smooth="yes"/>
      <point x="334.44" y="287.0"/>
      <point x="191" y="363"/>
      <point x="157" y="472" type="curve" smooth="yes"/>
    </contour>
    <contour>
      <point x="722" y="488" type="line"/>
      <point x="694" y="488" type="line"/>
      <point x="694" y="0" type="line"/>
      <point x="722" y="0" type="line"/>
    </contour>
    <contour>
      <point x="910" y="472" type="line"/>
      <point x="910" y="490" type="line"/>
      <point x="0" y="490" type="line"/>
      <point x="0" y="472" type="line"/>
    </contour>
  </outline>
</glyph>
<glyph name="grBHA" format="1">
  <advance width="934"/>
  <unicode hex="0A2D"/>
  <outline>
    <contour>
      <point x="276" y="357"/>
      <point x="218" y="313"/>
      <point x="218" y="267" type="curve" smooth="yes"/>
      <point x="218" y="224"/>
      <point x="277" y="178"/>
      <point x="426" y="178" type="curve" smooth="yes"/>
      <point x="631" y="178"/>
      <point x="749" y="299"/>
      <point x="749" y="442" type="curve" smooth="yes"/>
      <point x="749" y="490" type="line"/>
      <point x="724" y="490" type="line"/>
      <point x="724" y="440" type="line" smooth="yes"/>
      <point x="724" y="309"/>
      <point x="610" y="203"/>
      <point x="429" y="203" type="curve" smooth="yes"/>
      <point x="302" y="203"/>
      <point x="244" y="235"/>
      <point x="244" y="267" type="curve" smooth="yes"/>
      <point x="244" y="304"/>
      <point x="310" y="332"/>
      <point x="418" y="332" type="curve" smooth="yes"/>
      <point x="612" y="332"/>
      <point x="746" y="240"/>
      <point x="746" y="160" type="curve" smooth="yes"/>
      <point x="746" y="88"/>
      <point x="649" y="24"/>
      <point x="471" y="24" type="curve" smooth="yes"/>
      <point x="385" y="24"/>
      <point x="270" y="42"/>
      <point x="177" y="76" type="curve"/>
      <point x="172" y="52" type="line"/>
      <point x="271" y="16"/>
      <point x="370" y="1"/>
      <point x="474" y="1" type="curve" smooth="yes"/>
      <point x="675" y="1"/>
      <point x="771" y="76"/>
      <point x="771" y="160" type="curve" smooth="yes"/>
      <point x="771" y="255"/>
      <point x="629" y="357"/>
      <point x="412" y="357" type="curve" smooth="yes"/>
    </contour>
    <contour>
      <point x="934" y="467" type="line"/>
      <point x="934" y="490" type="line"/>
      <point x="-8" y="490" type="line"/>
      <point x="-8" y="467" type="line"/>
    </contour>
  </outline>
</glyph>
<glyph name="grMA" format="1">
  <advance width="905"/>
  <unicode hex="0A2E"/>
  <outline>
    <contour>
      <point x="216" y="490" type="curve"/>
      <point x="189" y="490" type="line"/>
      <point x="206" y="436"/>
      <point x="248" y="245"/>
      <point x="256" y="213" type="curve"/>
      <point x="241" y="182"/>
      <point x="182" y="90"/>
      <point x="166" y="68" type="curve"/>
      <point x="190" y="55" type="line"/>
      <point x="206" y="80"/>
      <point x="264" y="171"/>
      <point x="284" y="209" type="curve"/>
      <point x="273" y="252"/>
      <point x="227" y="454"/>
    </contour>
    <contour>
      <point x="266" y="225" type="line"/>
      <point x="266" y="202" type="line"/>
      <point x="714" y="202" type="line"/>
      <point x="714" y="225" type="line"/>
    </contour>
    <contour>
      <point x="717" y="488" type="line"/>
      <point x="692" y="488" type="line"/>
      <point x="692" y="0" type="line"/>
      <point x="717" y="0" type="line"/>
    </contour>
    <contour>
      <point x="692" y="490" type="line"/>
      <point x="692" y="467" type="line"/>
      <point x="915" y="467" type="line"/>
      <point x="915" y="490" type="line"/>
    </contour>
    <contour>
      <point x="207" y="467" type="line"/>
      <point x="207" y="490" type="line"/>
      <point x="-10" y="490" type="line"/>
      <point x="-10" y="467" type="line"/>
    </contour>
    <contour>
      <point x="692" y="490" type="move" name="top"/>
    </contour>
  </outline>
</glyph>
<glyph name="grYA" format="1">
  <advance width="1118"/>
  <unicode hex="0A2F"/>
  <outline>
    <contour>
      <point x="470" y="64" type="line"/>
      <point x="531.64" y="64.0"/>
      <point x="569.6" y="71.96"/>
      <point x="583" y="80" type="curve" smooth="yes"/>
      <point x="592.38" y="86.7"/>
      <point x="598.0" y="95.28"/>
      <point x="598" y="106" type="curve" smooth="yes"/>
      <point x="598" y="294" type="line"/>
      <point x="570" y="294" type="line"/>
      <point x="570" y="111" type="line" smooth="yes"/>
      <point x="570.0" y="100.28"/>
      <point x="568.7" y="97.02"/>
      <point x="562" y="93" type="curve" smooth="yes"/>
      <point x="552.62" y="86.3"/>
      <point x="524.94" y="82.0"/>
      <point x="470" y="82" type="curve"/>
      <point x="469" y="82" type="line"/>
      <point x="360.46" y="82.0"/>
      <point x="245.32" y="108.44"/>
      <point x="181" y="154" type="curve"/>
      <point x="186" y="141" type="line"/>
      <point x="200.74" y="185.22"/>
      <point x="234.0" y="279.22"/>
      <point x="234" y="302" type="curve"/>
      <point x="232.66" y="326.12"/>
      <point x="198" y="473"/>
      <point x="194" y="490" type="curve"/>
      <point x="166" y="490" type="line"/>
      <point x="175" y="447"/>
      <point x="203.32" y="322.08"/>
      <point x="206" y="306" type="curve"/>
      <point x="206.0" y="281.88"/>
      <point x="173.42" y="191.24"/>
      <point x="156" y="143" type="curve"/>
      <point x="224.34" y="93.42"/>
      <point x="345.72" y="64.0"/>
      <point x="469" y="64" type="curve"/>
    </contour>
    <contour>
      <point x="574" y="276" type="line"/>
      <point x="926" y="276" type="line"/>
      <point x="926" y="294" type="line"/>
      <point x="574" y="294" type="line"/>
    </contour>
    <contour>
      <point x="930" y="488" type="line"/>
      <point x="902" y="488" type="line"/>
      <point x="902" y="0" type="line"/>
      <point x="930" y="0" type="line"/>
    </contour>
    <contour>
      <point x="1118" y="472" type="line"/>
      <point x="1118" y="490" type="line"/>
      <point x="0" y="490" type="line"/>
      <point x="0" y="472" type="line"/>
    </contour>
  </outline>
</glyph>
<glyph name="grRA" format="1">
  <advance width="832.0"/>
  <unicode hex="0A30"/>
  <outline>
    <contour>
      <point x="832" y="471" type="line"/>
      <point x="832" y="490" type="line"/>
      <point x="0" y="490" type="line"/>
      <point x="0" y="471" type="line"/>
    </contour>
    <contour>
      <point x="641" y="321" type="line"/>
      <point x="324" y="321" type="line" smooth="yes"/>
      <point x="184.64" y="321.0"/>
      <point x="129.0" y="284.26"/>
      <point x="129" y="232" type="curve"/>
      <point x="129" y="231" type="line"/>
      <point x="129.0" y="130.5"/>
      <point x="337.18" y="15.0"/>
      <point x="502" y="15" type="curve"/>
      <point x="502" y="15" type="line"/>
      <point x="590.44" y="15.0"/>
      <point x="645" y="49"/>
      <point x="645" y="129" type="curve" smooth="yes"/>
      <point x="645" y="487" type="line"/>
      <point x="617" y="487" type="line"/>
      <point x="617" y="131" type="line" smooth="yes"/>
      <point x="617" y="63"/>
      <point x="573.34" y="34.0"/>
      <point x="505" y="34" type="curve"/>
      <point x="504" y="34" type="line"/>
      <point x="361.96" y="34.0"/>
      <point x="159.0" y="139.88"/>
      <point x="159" y="231" type="curve"/>
      <point x="159" y="231" type="line"/>
      <point x="159.0" y="275.22"/>
      <point x="205.06" y="302.0"/>
      <point x="327" y="302" type="curve" smooth="yes"/>
      <point x="641" y="302" type="line"/>
    </contour>
  </outline>
</glyph>
<glyph name="grLA" format="1">
  <advance width="1024.0"/>
  <unicode hex="0A32"/>
  <outline>
    <contour>
      <point x="768" y="482" type="curve"/>
      <point x="742" y="482" type="line"/>
      <point x="714" y="356"/>
      <point x="632" y="264"/>
      <point x="513" y="217" type="curve"/>
      <point x="523" y="217" type="line"/>
      <point x="404" y="264"/>
      <point x="308" y="354"/>
      <point x="273" y="482" type="curve"/>
      <point x="247" y="482" type="line"/>
      <point x="290" y="335"/>
      <point x="381" y="251"/>
      <point x="517" y="193" type="curve"/>
      <point x="652" y="249"/>
      <point x="735" y="342"/>
    </contour>
    <contour>
      <point x="1024" y="467" type="line"/>
      <point x="1024" y="490" type="line"/>
      <point x="0" y="490" type="line"/>
      <point x="0" y="467" type="line"/>
    </contour>
    <contour>
      <point x="367" y="304" type="curve"/>
      <point x="350" y="326" type="line"/>
      <point x="220" y="288"/>
      <point x="132" y="216"/>
      <point x="132" y="154" type="curve" smooth="yes"/>
      <point x="132" y="93"/>
      <point x="180" y="30"/>
      <point x="333" y="-1" type="curve"/>
      <point x="340" y="22" type="line"/>
      <point x="200" y="54"/>
      <point x="158" y="103"/>
      <point x="158" y="151" type="curve" smooth="yes"/>
      <point x="158" y="207"/>
      <point x="244" y="270"/>
    </contour>
    <contour>
      <point x="780" y="270"/>
      <point x="867" y="205"/>
      <point x="867" y="152" type="curve" smooth="yes"/>
      <point x="867" y="110"/>
      <point x="819" y="50"/>
      <point x="684" y="22" type="curve"/>
      <point x="691" y="-1" type="line"/>
      <point x="838" y="32"/>
      <point x="892" y="97"/>
      <point x="892" y="152" type="curve" smooth="yes"/>
      <point x="892" y="216"/>
      <point x="808" y="284"/>
      <point x="674" y="325" type="curve"/>
      <point x="657" y="304" type="line"/>
    </contour>
  </outline>
</glyph>
<glyph name="grVA" format="1">
  <advance width="986"/>
  <unicode hex="0A35"/>
  <outline>
    <contour>
      <point x="798" y="330" type="line"/>
      <point x="798" y="487" type="line"/>
      <point x="770" y="487" type="line"/>
      <point x="770" y="330" type="line"/>
    </contour>
    <contour>
      <point x="373" y="185" type="line"/>
      <point x="344" y="185" type="line"/>
      <point x="346" y="173" type="line" smooth="yes"/>
      <point x="366.1" y="72.5"/>
      <point x="464.44" y="24.0"/>
      <point x="644" y="24" type="curve" smooth="yes"/>
      <point x="821" y="24" type="line"/>
      <point x="821" y="43" type="line"/>
      <point x="645" y="43" type="line" smooth="yes"/>
      <point x="480.18" y="43.0"/>
      <point x="392.42" y="80.54"/>
      <point x="375" y="173" type="curve" smooth="yes"/>
    </contour>
    <contour>
      <point x="822" y="173" type="line"/>
      <point x="822" y="191" type="line"/>
      <point x="349" y="191" type="line" smooth="yes"/>
      <point x="210.98" y="191.0"/>
      <point x="157.0" y="225.44"/>
      <point x="157" y="271" type="curve" smooth="yes"/>
      <point x="157" y="271" type="line"/>
      <point x="157.0" y="305.84"/>
      <point x="190.86" y="330.0"/>
      <point x="286" y="330" type="curve" smooth="yes"/>
      <point x="794" y="330" type="line"/>
      <point x="794" y="348" type="line"/>
      <point x="283" y="348" type="line" smooth="yes"/>
      <point x="171.78" y="348.0"/>
      <point x="126.0" y="316.88"/>
      <point x="126" y="274" type="curve" smooth="yes"/>
      <point x="126" y="273" type="line"/>
      <point x="126.0" y="215.38"/>
      <point x="196.92" y="173.0"/>
      <point x="347" y="173" type="curve" smooth="yes"/>
    </contour>
    <contour>
      <point x="986" y="471" type="line"/>
      <point x="986" y="490" type="line"/>
      <point x="-1" y="490" type="line"/>
      <point x="-1" y="471" type="line"/>
    </contour>
  </outline>
</glyph>
<glyph name="grSA" format="1">
  <advance width="938"/>
  <unicode hex="0A38"/>
  <outline>
    <contour>
      <point x="306.28" y="271.88"/>
      <point x="263" y="422"/>
      <point x="246" y="472" type="curve" smooth="yes"/>
      <point x="242" y="483" type="line"/>
      <point x="213" y="483" type="line"/>
      <point x="216" y="472" type="line" smooth="yes"/>
      <point x="229" y="429"/>
      <point x="279.3" y="265.16"/>
      <point x="286" y="233" type="curve"/>
      <point x="273.94" y="202.18"/>
      <point x="190.08" y="74.44"/>
      <point x="174" y="53" type="curve"/>
      <point x="206" y="46" type="line"/>
      <point x="223.42" y="70.12"/>
      <point x="300.92" y="191.48"/>
      <point x="317" y="229" type="curve"/>
    </contour>
    <contour>
      <point x="299" y="243" type="line"/>
      <point x="299" y="225" type="line"/>
      <point x="747" y="225" type="line"/>
      <point x="747" y="243" type="line"/>
    </contour>
    <contour>
      <point x="751" y="488" type="line"/>
      <point x="723" y="488" type="line"/>
      <point x="723" y="0" type="line"/>
      <point x="751" y="0" type="line"/>
    </contour>
    <contour>
      <point x="938" y="472" type="line"/>
      <point x="938" y="490" type="line"/>
      <point x="1" y="490" type="line"/>
      <point x="1" y="472" type="line"/>
    </contour>
  </outline>
</glyph>
<glyph name="grHA" format="1">
  <advance width="878"/>
  <unicode hex="0A39"/>
  <outline>
    <contour>
      <point x="877" y="467" type="line"/>
      <point x="877" y="490" type="line"/>
      <point x="1" y="490" type="line"/>
      <point x="1" y="467" type="line"/>
    </contour>
    <contour>
      <point x="353" y="318" type="line"/>
      <point x="289" y="318" type="line" smooth="yes"/>
      <point x="196" y="318"/>
      <point x="156" y="285"/>
      <point x="156" y="233" type="curve" smooth="yes"/>
      <point x="156" y="130"/>
      <point x="368" y="10"/>
      <point x="543" y="10" type="curve" smooth="yes"/>
      <point x="649" y="10"/>
      <point x="690" y="55"/>
      <point x="690" y="137" type="curve" smooth="yes"/>
      <point x="690" y="487" type="line"/>
      <point x="665" y="487" type="line"/>
      <point x="665" y="141" type="line" smooth="yes"/>
      <point x="665" y="67"/>
      <point x="628" y="33"/>
      <point x="542" y="33" type="curve" smooth="yes"/>
      <point x="386" y="33"/>
      <point x="181" y="147"/>
      <point x="181" y="231" type="curve" smooth="yes"/>
      <point x="181" y="269"/>
      <point x="210" y="295"/>
      <point x="295" y="295" type="curve" smooth="yes"/>
      <point x="353" y="295" type="line"/>
    </contour>
  </outline>
</glyph>
<glyph name="grNukta" format="1">
  <advance width="5"/>
  <unicode hex="0A3C"/>
  <outline>
    <contour>
      <point x="-789" y="0" type="line"/>
      <point x="-755" y="0" type="line"/>
      <point x="-755" y="56" type="line"/>
      <point x="-789" y="56" type="line"/>
    </contour>
  </outline>
</glyph>
<glyph name="grVirama" format="1">
  <advance width="3"/>
  <unicode hex="0A4D"/>
  <outline>
    <contour>
      <point x="-384" y="-243" type="line"/>
      <point x="-254.02" y="-248.36"/>
      <point x="-178.74" y="-264.54"/>
      <point x="-30" y="-357" type="curve"/>
      <point x="-15" y="-343" type="line"/>
      <point x="-132.92" y="-265.28"/>
      <point x="-241.28" y="-226.34"/>
      <point x="-386" y="-225" type="curve"/>
    </contour>
  </outline>
</glyph>
<glyph name="grYakash" format="1">
  <advance width="2"/>
  <unicode hex="0A51"/>
  <outline>
    <contour>
      <point x="-299.68" y="-258.68"/>
      <point x="-309.96" y="-263.64"/>
      <point x="-318" y="-269" type="curve"/>
      <point x="-194.72" y="-396.3"/>
      <point x="-106.66" y="-423.02"/>
      <point x="26" y="-419" type="curve"/>
      <point x="39" y="-396" type="line"/>
      <point x="-105.72" y="-402.7"/>
      <point x="-180.42" y="-372.58"/>
      <point x="-297" y="-256" type="curve"/>
    </contour>
  </outline>
</glyph>
<glyph name="grRRA" format="1">
  <advance width="909"/>
  <unicode hex="0A5C"/>
  <outline>
    <contour>
      <point x="910" y="467" type="line"/>
      <point x="910" y="490" type="line"/>
      <point x="0" y="490" type="line"/>
      <point x="0" y="467" type="line"/>
    </contour>
    <contour>
      <point x="393" y="70"/>
      <point x="268" y="93"/>
      <point x="151" y="138" type="curve"/>
      <point x="141" y="117" type="line"/>
      <point x="267" y="70"/>
      <point x="385" y="47"/>
      <point x="495" y="47" type="curve" smooth="yes"/>
      <point x="655" y="47"/>
      <point x="751" y="95"/>
      <point x="751" y="168" type="curve" smooth="yes"/>
      <point x="751" y="229"/>
      <point x="687" y="294"/>
      <point x="510" y="302" type="curve"/>
      <point x="510" y="295" type="line"/>
      <point x="670" y="298"/>
      <point x="730" y="356"/>
      <point x="730" y="442" type="curve" smooth="yes"/>
      <point x="730" y="490" type="line"/>
      <point x="705" y="490" type="line"/>
      <point x="705" y="441" type="line" smooth="yes"/>
      <point x="705" y="361"/>
      <point x="644" y="308"/>
      <point x="413" y="308" type="curve" smooth="yes"/>
      <point x="247" y="308" type="line"/>
      <point x="251" y="285" type="line"/>
      <point x="431" y="285" type="line" smooth="yes"/>
      <point x="645" y="285"/>
      <point x="727" y="223"/>
      <point x="727" y="169" type="curve" smooth="yes"/>
      <point x="727" y="108"/>
      <point x="636" y="70"/>
      <point x="496" y="70" type="curve" smooth="yes"/>
    </contour>
    <contour>
      <point x="724" y="-23" type="line"/>
      <point x="698" y="-3"/>
      <point x="651" y="43"/>
      <point x="617" y="76" type="curve"/>
      <point x="591" y="70" type="line"/>
      <point x="623" y="38"/>
      <point x="678" y="-12"/>
      <point x="704" y="-37" type="curve"/>
    </contour>
    <contour>
      <point x="285" y="-18" type="line"/>
      <point x="255" y="12"/>
      <point x="203" y="75"/>
      <point x="169" y="117" type="curve"/>
      <point x="141" y="117" type="line"/>
      <point x="166" y="86"/>
      <point x="233" y="4"/>
      <point x="265" y="-30" type="curve"/>
    </contour>
  </outline>
</glyph>
<glyph name="grZero" format="1">
  <advance width="781"/>
  <unicode hex="0A66"/>
  <outline>
    <contour>
      <point x="223.84" y="473.0"/>
      <point x="91.0" y="375.68"/>
      <point x="91" y="239" type="curve" smooth="yes"/>
      <point x="91.0" y="105.0"/>
      <point x="223.84" y="1.0"/>
      <point x="390" y="1" type="curve" smooth="yes"/>
      <point x="557.5" y="1.0"/>
      <point x="690.0" y="105.0"/>
      <point x="690" y="239" type="curve" smooth="yes"/>
      <point x="690.0" y="375.68"/>
      <point x="557.5" y="473.0"/>
      <point x="390" y="473" type="curve" smooth="yes"/>
    </contour>
    <contour>
      <point x="540.08" y="453.0"/>
      <point x="661.0" y="362.62"/>
      <point x="661" y="238" type="curve" smooth="yes"/>
      <point x="661.0" y="114.72"/>
      <point x="540.08" y="21.0"/>
      <point x="390" y="21" type="curve" smooth="yes"/>
      <point x="238.58" y="21.0"/>
      <point x="120.0" y="114.72"/>
      <point x="120" y="238" type="curve" smooth="yes"/>
      <point x="120.0" y="362.62"/>
      <point x="238.58" y="453.0"/>
      <point x="390" y="453" type="curve" smooth="yes"/>
    </contour>
  </outline>
</glyph>
<glyph name="grOne" format="1">
  <advance width="694"/>
  <unicode hex="0A67"/>
  <outline>
    <contour>
      <point x="502" y="154" type="line" smooth="yes"/>
      <point x="502.0" y="93.7"/>
      <point x="521.06" y="56.16"/>
      <point x="576" y="24" type="curve" smooth="yes"/>
      <point x="615" y="1" type="line"/>
      <point x="634" y="15" type="line"/>
      <point x="592" y="38" type="line" smooth="yes"/>
      <point x="551.8" y="62.12"/>
      <point x="528.66" y="92.7"/>
      <point x="530" y="153" type="curve" smooth="yes"/>
      <point x="530" y="333" type="line" smooth="yes"/>
      <point x="531.34" y="417.42"/>
      <point x="452.32" y="474.0"/>
      <point x="321" y="474" type="curve" smooth="yes"/>
      <point x="212.46" y="474.0"/>
      <point x="131.0" y="422.7"/>
      <point x="131" y="349" type="curve" smooth="yes"/>
      <point x="131.0" y="275.3"/>
      <point x="223.14" y="224.0"/>
      <point x="329" y="224" type="curve" smooth="yes"/>
      <point x="409.4" y="224.0"/>
      <point x="480.46" y="245.16"/>
      <point x="522" y="280" type="curve"/>
      <point x="510" y="296" type="line"/>
      <point x="461.76" y="259.82"/>
      <point x="399.7" y="243.0"/>
      <point x="326" y="243" type="curve" smooth="yes"/>
      <point x="238.9" y="243.0"/>
      <point x="160.0" y="287.7"/>
      <point x="160" y="348" type="curve" smooth="yes"/>
      <point x="160.0" y="408.3"/>
      <point x="229.54" y="455.0"/>
      <point x="322" y="455" type="curve" smooth="yes"/>
      <point x="438.58" y="455.0"/>
      <point x="502.0" y="401.36"/>
      <point x="502" y="329" type="curve" smooth="yes"/>
    </contour>
  </outline>
</glyph>
<glyph name="grTwo" format="1">
  <advance width="779"/>
  <unicode hex="0A68"/>
  <outline>
    <contour>
      <point x="700" y="14" type="line"/>
      <point x="622.28" y="74.3"/>
      <point x="527.92" y="121.36"/>
      <point x="410" y="183" type="curve"/>
      <point x="410" y="176" type="line"/>
      <point x="566.78" y="201.46"/>
      <point x="668.0" y="266.98"/>
      <point x="668" y="338" type="curve" smooth="yes"/>
      <point x="668.0" y="413.04"/>
      <point x="570.5" y="474.0"/>
      <point x="403" y="474" type="curve" smooth="yes"/>
      <point x="315.9" y="474.0"/>
      <point x="214.16" y="452.5"/>
      <point x="115" y="419" type="curve"/>
      <point x="115" y="400" type="line"/>
      <point x="222.2" y="436.18"/>
      <point x="310.88" y="455.0"/>
      <point x="402" y="455" type="curve" smooth="yes"/>
      <point x="557.44" y="455.0"/>
      <point x="639.0" y="401.32"/>
      <point x="639" y="337" type="curve" smooth="yes"/>
      <point x="639.0" y="276.7"/>
      <point x="547.48" y="210.78"/>
      <point x="384" y="188" type="curve"/>
      <point x="295.56" y="189.34"/>
      <point x="281.04" y="186.32"/>
      <point x="206" y="189" type="curve"/>
      <point x="205" y="169" type="line"/>
      <point x="267.98" y="167.66"/>
      <point x="285.48" y="170.0"/>
      <point x="390" y="170" type="curve"/>
      <point x="490.5" y="119.08"/>
      <point x="592.58" y="69.34"/>
      <point x="677" y="1" type="curve"/>
    </contour>
  </outline>
</glyph>
<glyph name="grThree" format="1">
  <advance width="835"/>
  <unicode hex="0A69"/>
  <outline>
    <contour>
      <point x="390" y="-34" type="line"/>
      <point x="369.9" y="-13.9"/>
      <point x="315.42" y="30.24"/>
      <point x="298" y="49" type="curve"/>
      <point x="284" y="45" type="line"/>
      <point x="360.38" y="35.62"/>
      <point x="383.68" y="33.66"/>
      <point x="448" y="35" type="curve" smooth="yes"/>
      <point x="557.88" y="35.0"/>
      <point x="648.0" y="76.06"/>
      <point x="648" y="131" type="curve" smooth="yes"/>
      <point x="648.0" y="176.56"/>
      <point x="597.86" y="218.24"/>
      <point x="492" y="237" type="curve"/>
      <point x="492" y="230" type="line"/>
      <point x="607.24" y="238.04"/>
      <point x="688.0" y="287.02"/>
      <point x="688" y="350" type="curve" smooth="yes"/>
      <point x="688.0" y="398.24"/>
      <point x="617.56" y="453.0"/>
      <point x="438" y="453" type="curve" smooth="yes"/>
      <point x="330.8" y="453.0"/>
      <point x="242.44" y="443.12"/>
      <point x="154" y="419" type="curve"/>
      <point x="169" y="402" type="line"/>
      <point x="260.12" y="427.46"/>
      <point x="333.16" y="435.0"/>
      <point x="435" y="435" type="curve" smooth="yes"/>
      <point x="597.14" y="435.0"/>
      <point x="658.0" y="384.86"/>
      <point x="658" y="346" type="curve" smooth="yes"/>
      <point x="658.0" y="293.74"/>
      <point x="569.56" y="248.36"/>
      <point x="457" y="243" type="curve"/>
      <point x="379.28" y="244.34"/>
      <point x="311.58" y="244.0"/>
      <point x="262" y="244" type="curve"/>
      <point x="262" y="225" type="line"/>
      <point x="302.2" y="223.66"/>
      <point x="340.74" y="225.0"/>
      <point x="460" y="225" type="curve"/>
      <point x="581.94" y="210.26"/>
      <point x="619.0" y="165.2"/>
      <point x="619" y="125" type="curve" smooth="yes"/>
      <point x="619.0" y="91.5"/>
      <point x="550.86" y="54.34"/>
      <point x="445" y="53" type="curve" smooth="yes"/>
      <point x="408.82" y="51.66"/>
      <point x="352.66" y="55.3"/>
      <point x="287" y="62" type="curve"/>
      <point x="268.24" y="76.74"/>
      <point x="221.8" y="110.22"/>
      <point x="195" y="133" type="curve"/>
      <point x="167" y="124" type="line"/>
      <point x="220.6" y="81.12"/>
      <point x="325.82" y="-2.82"/>
      <point x="362" y="-39" type="curve"/>
    </contour>
  </outline>
</glyph>
<glyph name="grFour" format="1">
  <advance width="859"/>
  <unicode hex="0A6A"/>
  <outline>
    <contour>
      <point x="423" y="226" type="curve" smooth="yes"/>
      <point x="235" y="226"/>
      <point x="165" y="170"/>
      <point x="165" y="116" type="curve" smooth="yes"/>
      <point x="165" y="52"/>
      <point x="246" y="3"/>
      <point x="433" y="3" type="curve" smooth="yes"/>
      <point x="600" y="3"/>
      <point x="686" y="52"/>
      <point x="686" y="112" type="curve" smooth="yes"/>
      <point x="686" y="169"/>
      <point x="630" y="226"/>
    </contour>
    <contour>
      <point x="424" y="249" type="curve" smooth="yes"/>
      <point x="655" y="249"/>
      <point x="711" y="180"/>
      <point x="711" y="112" type="curve" smooth="yes"/>
      <point x="711" y="41"/>
      <point x="619" y="-20"/>
      <point x="431" y="-20" type="curve" smooth="yes"/>
      <point x="230" y="-20"/>
      <point x="140" y="40"/>
      <point x="140" y="116" type="curve" smooth="yes"/>
      <point x="140" y="180"/>
      <point x="213" y="249"/>
    </contour>
    <contour>
      <point x="347" y="228" type="line"/>
      <point x="232" y="234"/>
      <point x="158" y="283"/>
      <point x="158" y="354" type="curve" smooth="yes"/>
      <point x="158" y="409"/>
      <point x="198" y="456"/>
      <point x="291" y="473" type="curve"/>
      <point x="302" y="452" type="line"/>
      <point x="223" y="440"/>
      <point x="183" y="400"/>
      <point x="183" y="354" type="curve" smooth="yes"/>
      <point x="183" y="295"/>
      <point x="260" y="248"/>
      <point x="370" y="247" type="curve"/>
    </contour>
    <contour>
      <point x="555" y="475" type="line"/>
      <point x="646" y="456"/>
      <point x="688" y="411"/>
      <point x="688" y="355" type="curve" smooth="yes"/>
      <point x="688" y="285"/>
      <point x="628" y="239"/>
      <point x="506" y="230" type="curve"/>
      <point x="479" y="247" type="line"/>
      <point x="605" y="254"/>
      <point x="664" y="298"/>
      <point x="664" y="354" type="curve" smooth="yes"/>
      <point x="664" y="400"/>
      <point x="626" y="437"/>
      <point x="546" y="454" type="curve"/>
    </contour>
  </outline>
</glyph>
<glyph name="grFive" format="1">
  <advance width="762"/>
  <unicode hex="0A6B"/>
  <outline>
    <contour>
      <point x="570" y="473" type="line"/>
      <point x="542" y="473" type="line"/>
      <point x="542" y="0" type="line"/>
      <point x="570" y="0" type="line"/>
    </contour>
    <contour>
      <point x="121" y="473" type="line"/>
      <point x="150.48" y="373.84"/>
      <point x="156.0" y="319.36"/>
      <point x="156" y="314" type="curve" smooth="yes"/>
      <point x="154.66" y="276.48"/>
      <point x="139.1" y="234.26"/>
      <point x="119" y="182" type="curve"/>
      <point x="177.96" y="128.4"/>
      <point x="280.94" y="100.0"/>
      <point x="360" y="100" type="curve" smooth="yes"/>
      <point x="433.7" y="100.0"/>
      <point x="500.76" y="113.92"/>
      <point x="549" y="130" type="curve" smooth="yes"/>
      <point x="569" y="137" type="line"/>
      <point x="569" y="158" type="line"/>
      <point x="549" y="150" type="line" smooth="yes"/>
      <point x="496.74" y="132.58"/>
      <point x="437.38" y="118.0"/>
      <point x="361" y="118" type="curve" smooth="yes"/>
      <point x="285.96" y="118.0"/>
      <point x="192.54" y="146.8"/>
      <point x="151" y="187" type="curve"/>
      <point x="171.1" y="240.6"/>
      <point x="182.66" y="279.46"/>
      <point x="184" y="321" type="curve" smooth="yes"/>
      <point x="184.0" y="330.38"/>
      <point x="179.48" y="368.48"/>
      <point x="150" y="473" type="curve"/>
    </contour>
  </outline>
</glyph>
<glyph name="grSix" format="1">
  <advance width="758"/>
  <unicode hex="0A6C"/>
  <outline>
    <contour>
      <point x="134" y="2" type="line"/>
      <point x="166" y="4" type="line" smooth="yes"/>
      <point x="454.1" y="22.76"/>
      <point x="636.0" y="159.96"/>
      <point x="636" y="302" type="curve" smooth="yes"/>
      <point x="636.0" y="395.8"/>
      <point x="551.84" y="475.0"/>
      <point x="383" y="475" type="curve" smooth="yes"/>
      <point x="258.38" y="475.0"/>
      <point x="169.0" y="410.32"/>
      <point x="169" y="346" type="curve" smooth="yes"/>
      <point x="169.0" y="300.44"/>
      <point x="205.24" y="250.5"/>
      <point x="291" y="217" type="curve"/>
      <point x="309" y="231" type="line"/>
      <point x="233.96" y="259.14"/>
      <point x="198.0" y="305.14"/>
      <point x="198" y="344" type="curve" smooth="yes"/>
      <point x="198.0" y="405.64"/>
      <point x="276.44" y="456.0"/>
      <point x="389" y="456" type="curve" smooth="yes"/>
      <point x="525.68" y="456.0"/>
      <point x="608.0" y="392.44"/>
      <point x="608" y="304" type="curve" smooth="yes"/>
      <point x="608.0" y="179.38"/>
      <point x="439.74" y="32.72"/>
      <point x="157" y="22" type="curve" smooth="yes"/>
      <point x="130" y="21" type="line"/>
    </contour>
  </outline>
</glyph>
<glyph name="grSeven" format="1">
  <advance width="787"/>
  <unicode hex="0A6D"/>
  <outline>
    <contour>
      <point x="618" y="516" type="line"/>
      <point x="568" y="516" type="line" smooth="yes"/>
      <point x="499.66" y="514.66"/>
      <point x="468.0" y="490.52"/>
      <point x="468" y="453" type="curve" smooth="yes"/>
      <point x="468.0" y="443.62"/>
      <point x="476.64" y="419.72"/>
      <point x="482" y="409" type="curve"/>
      <point x="489" y="413" type="line"/>
      <point x="454.16" y="426.4"/>
      <point x="400.06" y="435.0"/>
      <point x="321" y="435" type="curve" smooth="yes"/>
      <point x="193.7" y="435.0"/>
      <point x="116.0" y="390.32"/>
      <point x="116" y="326" type="curve" smooth="yes"/>
      <point x="116.0" y="268.38"/>
      <point x="193.1" y="212.74"/>
      <point x="307" y="198" type="curve"/>
      <point x="307" y="205" type="line"/>
      <point x="181.04" y="180.88"/>
      <point x="132.0" y="138.56"/>
      <point x="132" y="93" type="curve" smooth="yes"/>
      <point x="132.0" y="47.44"/>
      <point x="197.4" y="-3.0"/>
      <point x="385" y="-3" type="curve" smooth="yes"/>
      <point x="450.66" y="-3.0"/>
      <point x="556.28" y="3.92"/>
      <point x="634" y="20" type="curve"/>
      <point x="619" y="37" type="line"/>
      <point x="542.62" y="22.26"/>
      <point x="450.36" y="16.0"/>
      <point x="378" y="16" type="curve" smooth="yes"/>
      <point x="226.58" y="16.0"/>
      <point x="162.0" y="52.46"/>
      <point x="162" y="94" type="curve" smooth="yes"/>
      <point x="162.0" y="135.54"/>
      <point x="217.1" y="174.58"/>
      <point x="331" y="192" type="curve"/>
      <point x="408.72" y="190.66"/>
      <point x="501.76" y="191.0"/>
      <point x="550" y="191" type="curve"/>
      <point x="550" y="210" type="line"/>
      <point x="511.14" y="211.34"/>
      <point x="449.26" y="209.66"/>
      <point x="330" y="211" type="curve"/>
      <point x="225.48" y="223.06"/>
      <point x="146.0" y="272.4"/>
      <point x="146" y="326" type="curve" smooth="yes"/>
      <point x="146.0" y="382.28"/>
      <point x="210.78" y="415.66"/>
      <point x="322" y="417" type="curve" smooth="yes"/>
      <point x="395.7" y="418.34"/>
      <point x="455.16" y="405.06"/>
      <point x="490" y="393" type="curve"/>
      <point x="512.78" y="383.62"/>
      <point x="525.88" y="376.74"/>
      <point x="550" y="362" type="curve"/>
      <point x="567" y="376" type="line"/>
      <point x="546.9" y="388.06"/>
      <point x="530.76" y="395.62"/>
      <point x="512" y="405" type="curve"/>
      <point x="506.64" y="413.04"/>
      <point x="496.34" y="434.26"/>
      <point x="495" y="449" type="curve" smooth="yes"/>
      <point x="495.0" y="479.82"/>
      <point x="520.4" y="500.0"/>
      <point x="574" y="500" type="curve" smooth="yes"/>
      <point x="622" y="500" type="line"/>
    </contour>
  </outline>
</glyph>
<glyph name="grEight" format="1">
  <advance width="885"/>
  <unicode hex="0A6E"/>
  <outline>
    <contour>
      <point x="726" y="333" type="line"/>
      <point x="726" y="356" type="line"/>
      <point x="184" y="356" type="line"/>
      <point x="188" y="333" type="line"/>
    </contour>
    <contour>
      <point x="167" y="473" type="line"/>
      <point x="143" y="466" type="line"/>
      <point x="187" y="310" type="line" smooth="yes"/>
      <point x="248" y="109"/>
      <point x="376" y="-12"/>
      <point x="597" y="-12" type="curve" smooth="yes"/>
      <point x="666" y="-12"/>
      <point x="713" y="-6"/>
      <point x="756" y="3" type="curve"/>
      <point x="752" y="25" type="line"/>
      <point x="709" y="17"/>
      <point x="660" y="11"/>
      <point x="598" y="11" type="curve" smooth="yes"/>
      <point x="398" y="11"/>
      <point x="268" y="124"/>
      <point x="209" y="321" type="curve" smooth="yes"/>
    </contour>
  </outline>
</glyph>
<glyph name="grNine" format="1">
  <advance width="909"/>
  <unicode hex="0A6F"/>
  <outline>
    <contour>
      <point x="178" y="345" type="line"/>
      <point x="187" y="312" type="line" smooth="yes"/>
      <point x="244.62" y="96.26"/>
      <point x="385.28" y="0.0"/>
      <point x="597" y="0" type="curve" smooth="yes"/>
      <point x="653.28" y="0.0"/>
      <point x="713.44" y="6.3"/>
      <point x="759" y="13" type="curve"/>
      <point x="752" y="32" type="line"/>
      <point x="701.08" y="22.62"/>
      <point x="645.24" y="20.0"/>
      <point x="597" y="20" type="curve" smooth="yes"/>
      <point x="430.84" y="20.0"/>
      <point x="280.32" y="82.86"/>
      <point x="216" y="312" type="curve" smooth="yes"/>
      <point x="206" y="345" type="line"/>
    </contour>
    <contour>
      <point x="726" y="349" type="line"/>
      <point x="726" y="368" type="line"/>
      <point x="184" y="368" type="line"/>
      <point x="185" y="349" type="line"/>
    </contour>
    <contour>
      <point x="207" y="345" type="line"/>
      <point x="197.62" y="373.14"/>
      <point x="194.7" y="448.2"/>
      <point x="188" y="475" type="curve"/>
      <point x="157" y="472" type="line"/>
      <point x="162.36" y="447.88"/>
      <point x="169.62" y="368.46"/>
      <point x="179" y="343" type="curve"/>
    </contour>
    <contour>
      <point x="632" y="358" type="line"/>
      <point x="641.38" y="358.0"/>
      <point x="660.64" y="358.0"/>
      <point x="666" y="358" type="curve"/>
      <point x="654" y="366" type="line"/>
      <point x="643" y="379" type="line" smooth="yes"/>
      <point x="624.24" y="399.1"/>
      <point x="607.0" y="420.22"/>
      <point x="607" y="443" type="curve" smooth="yes"/>
      <point x="607.0" y="480.52"/>
      <point x="628.34" y="502.0"/>
      <point x="694" y="502" type="curve" smooth="yes"/>
      <point x="742" y="502" type="line"/>
      <point x="738" y="518" type="line"/>
      <point x="688" y="518" type="line" smooth="yes"/>
      <point x="610.28" y="516.66"/>
      <point x="580.0" y="489.54"/>
      <point x="580" y="448" type="curve" smooth="yes"/>
      <point x="580.0" y="417.18"/>
      <point x="598.56" y="395.12"/>
      <point x="620" y="371" type="curve" smooth="yes"/>
    </contour>
  </outline>
</glyph>
<glyph name="grTippi" format="1">
  <advance width="0"/>
  <unicode hex="0A70"/>
  <outline>
    <contour>
      <point x="-307" y="587" type="line"/>
      <point x="-335" y="608"/>
      <point x="-347" y="626"/>
      <point x="-347" y="651" type="curve" smooth="yes"/>
      <point x="-347" y="696"/>
      <point x="-301" y="733"/>
      <point x="-213" y="733" type="curve" smooth="yes"/>
      <point x="-129" y="733"/>
      <point x="-84" y="696"/>
      <point x="-84" y="651" type="curve" smooth="yes"/>
      <point x="-84" y="627"/>
      <point x="-93" y="608"/>
      <point x="-119" y="585" type="curve"/>
      <point x="-98" y="576" type="line"/>
      <point x="-73" y="598"/>
      <point x="-60" y="625"/>
      <point x="-60" y="649" type="curve" smooth="yes"/>
      <point x="-60" y="709"/>
      <point x="-114" y="756"/>
      <point x="-213" y="756" type="curve" smooth="yes"/>
      <point x="-312" y="756"/>
      <point x="-371" y="714"/>
      <point x="-371" y="650" type="curve" smooth="yes"/>
      <point x="-371" y="626"/>
      <point x="-357" y="598"/>
      <point x="-328" y="576" type="curve"/>
    </contour>
  </outline>
</glyph>
<glyph name="grAddak" format="1">
  <advance width="-1"/>
  <unicode hex="0A71"/>
  <outline>
    <contour>
      <point x="-111.36" y="1140.0"/>
      <point x="-47.28" y="1201.58"/>
      <point x="-58" y="1286" type="curve"/>
      <point x="-86" y="1291" type="line"/>
      <point x="-76.62" y="1210.6"/>
      <point x="-128.14" y="1159.0"/>
      <point x="-234" y="1159" type="curve" smooth="yes"/>
      <point x="-353.26" y="1159.0"/>
      <point x="-407.36" y="1201.22"/>
      <point x="-402" y="1291" type="curve"/>
      <point x="-430" y="1285" type="line"/>
      <point x="-434.02" y="1187.18"/>
      <point x="-360.6" y="1140.0"/>
      <point x="-240" y="1140" type="curve" smooth="yes"/>
    </contour>
  </outline>
</glyph>
<glyph name="grIri" format="1">
  <advance width="870"/>
  <unicode hex="0A72"/>
  <outline>
    <contour>
      <point x="184" y="483" type="line"/>
      <point x="153" y="483" type="line"/>
      <point x="157" y="472" type="line" smooth="yes"/>
      <point x="181" y="401"/>
      <point x="266" y="309"/>
      <point x="340" y="253" type="curve" smooth="yes"/>
      <point x="355" y="241" type="line"/>
      <point x="382" y="251" type="line"/>
      <point x="366" y="263" type="line" smooth="yes"/>
      <point x="300" y="309"/>
      <point x="212" y="400"/>
      <point x="188" y="472" type="curve" smooth="yes"/>
    </contour>
    <contour>
      <point x="870" y="471" type="line"/>
      <point x="870" y="490" type="line"/>
      <point x="0" y="490" type="line"/>
      <point x="0" y="471" type="line"/>
    </contour>
    <contour>
      <point x="678" y="295" type="line"/>
      <point x="678" y="314" type="line"/>
      <point x="647" y="314" type="line" smooth="yes"/>
      <point x="517" y="314"/>
      <point x="307" y="273"/>
      <point x="173" y="146" type="curve"/>
      <point x="253" y="68"/>
      <point x="428" y="15"/>
      <point x="558" y="15" type="curve" smooth="yes"/>
      <point x="620" y="15"/>
      <point x="698" y="32"/>
      <point x="766" y="61" type="curve"/>
      <point x="756" y="78" type="line"/>
      <point x="680" y="49"/>
      <point x="613" y="34"/>
      <point x="561" y="34" type="curve" smooth="yes"/>
      <point x="444" y="34"/>
      <point x="285" y="79"/>
      <point x="202" y="153" type="curve"/>
      <point x="202" y="139" type="line"/>
      <point x="325" y="254"/>
      <point x="521" y="295"/>
      <point x="647" y="295" type="curve" smooth="yes"/>
    </contour>
    <contour>
      <point x="654" y="295" type="line"/>
      <point x="682" y="295" type="line"/>
      <point x="682" y="487" type="line"/>
      <point x="654" y="487" type="line"/>
    </contour>
  </outline>
</glyph>
<glyph name="grUra" format="1">
  <advance width="960.0"/>
  <unicode hex="0A73"/>
  <outline>
    <contour>
      <point x="832" y="482" type="line"/>
      <point x="860" y="482" type="line"/>
      <point x="860" y="490" type="line" smooth="yes"/>
      <point x="860" y="613"/>
      <point x="742.28" y="717.0"/>
      <point x="552" y="717" type="curve" smooth="yes"/>
      <point x="395.22" y="717.0"/>
      <point x="232" y="639"/>
      <point x="176" y="516" type="curve" smooth="yes"/>
      <point x="164" y="490" type="line"/>
      <point x="191" y="484" type="line"/>
      <point x="201" y="505" type="line" smooth="yes"/>
      <point x="259" y="628"/>
      <point x="407.92" y="699.0"/>
      <point x="558" y="699" type="curve" smooth="yes"/>
      <point x="704.06" y="699.0"/>
      <point x="832" y="614"/>
      <point x="832" y="489" type="curve" smooth="yes"/>
    </contour>
    <contour>
      <point x="-15" y="490" type="line"/>
      <point x="-15" y="471" type="line"/>
      <point x="1029" y="471" type="line"/>
      <point x="1029" y="490" type="line"/>
    </contour>
    <contour>
      <point x="832" y="481" type="line"/>
      <point x="832" y="476" type="line" smooth="yes"/>
      <point x="832" y="367"/>
      <point x="715.0" y="262.0"/>
      <point x="574.0" y="261.0" type="curve" smooth="yes"/>
      <point x="199.0" y="261.0" type="line"/>
      <point x="199.0" y="242.0" type="line"/>
      <point x="534.0" y="242.0" type="line" smooth="yes"/>
      <point x="620.0" y="242.0"/>
      <point x="730.0" y="199.0"/>
      <point x="730.0" y="127.0" type="curve" smooth="yes"/>
      <point x="730.0" y="73.0"/>
      <point x="660.0" y="34.0"/>
      <point x="557.0" y="34.0" type="curve" smooth="yes"/>
      <point x="353.0" y="34.0"/>
      <point x="177" y="211"/>
      <point x="177.0" y="403.0" type="curve" smooth="yes"/>
      <point x="177" y="430"/>
      <point x="181" y="447"/>
      <point x="188" y="474" type="curve" smooth="yes"/>
      <point x="190" y="480" type="line"/>
      <point x="162" y="486" type="line"/>
      <point x="161" y="478" type="line" smooth="yes"/>
      <point x="154" y="448"/>
      <point x="150.0" y="428.0"/>
      <point x="150.0" y="400.0" type="curve" smooth="yes"/>
      <point x="149.0" y="181.0"/>
      <point x="343.0" y="15.0"/>
      <point x="560.0" y="15.0" type="curve" smooth="yes"/>
      <point x="677.0" y="15.0"/>
      <point x="758.0" y="62.0"/>
      <point x="758.0" y="130.0" type="curve" smooth="yes"/>
      <point x="758.0" y="173.0"/>
      <point x="714.0" y="231.0"/>
      <point x="595.0" y="252.0" type="curve"/>
      <point x="594.0" y="246.0" type="line"/>
      <point x="733.0" y="259.0"/>
      <point x="860" y="346"/>
      <point x="860" y="476" type="curve" smooth="yes"/>
      <point x="860" y="481" type="line"/>
    </contour>
  </outline>
</glyph>
<glyph name="grEkonkar" format="1">
  <advance width="2186"/>
  <unicode hex="0A74"/>
  <outline>
    <contour>
      <point x="1341" y="614" type="line"/>
      <point x="1359" y="627" type="line"/>
      <point x="1337" y="642" type="line" smooth="yes"/>
      <point x="1279.38" y="679.52"/>
      <point x="1192.28" y="707.0"/>
      <point x="1069" y="707" type="curve" smooth="yes"/>
      <point x="906.86" y="707.0"/>
      <point x="752" y="625"/>
      <point x="708" y="515" type="curve" smooth="yes"/>
      <point x="698" y="490" type="line"/>
      <point x="725" y="484" type="line"/>
      <point x="734" y="504" type="line" smooth="yes"/>
      <point x="786" y="621"/>
      <point x="934.32" y="688.0"/>
      <point x="1071" y="688" type="curve" smooth="yes"/>
      <point x="1183.56" y="688.0"/>
      <point x="1271.76" y="659.16"/>
      <point x="1320" y="627" type="curve" smooth="yes"/>
    </contour>
    <contour>
      <point x="639" y="490" type="line"/>
      <point x="639" y="471" type="line"/>
      <point x="1563" y="471" type="line"/>
      <point x="1563" y="490" type="line"/>
    </contour>
    <contour>
      <point x="1366" y="482" type="line"/>
      <point x="1366" y="477" type="line" smooth="yes"/>
      <point x="1366" y="367"/>
      <point x="1249" y="251"/>
      <point x="1108" y="251" type="curve" smooth="yes"/>
      <point x="734" y="251" type="line"/>
      <point x="734" y="231" type="line"/>
      <point x="1069" y="231" type="line" smooth="yes"/>
      <point x="1154.76" y="231.0"/>
      <point x="1272.0" y="177.36"/>
      <point x="1272" y="105" type="curve" smooth="yes"/>
      <point x="1272.0" y="52.74"/>
      <point x="1191.5" y="12.0"/>
      <point x="1091" y="12" type="curve" smooth="yes"/>
      <point x="860.52" y="12.0"/>
      <point x="660" y="250"/>
      <point x="722" y="474" type="curve" smooth="yes"/>
      <point x="724" y="481" type="line"/>
      <point x="697" y="486" type="line"/>
      <point x="695" y="478" type="line" smooth="yes"/>
      <point x="635" y="218"/>
      <point x="848.78" y="-7.0"/>
      <point x="1094" y="-7" type="curve" smooth="yes"/>
      <point x="1185.12" y="-7.0"/>
      <point x="1301.0" y="28.94"/>
      <point x="1301" y="108" type="curve" smooth="yes"/>
      <point x="1301.0" y="150.88"/>
      <point x="1249.26" y="219.22"/>
      <point x="1130" y="242" type="curve"/>
      <point x="1129" y="235" type="line"/>
      <point x="1267.02" y="248.4"/>
      <point x="1394" y="346"/>
      <point x="1394" y="477" type="curve" smooth="yes"/>
      <point x="1394" y="482" type="line"/>
    </contour>
    <contour>
      <point x="2130" y="591" type="line"/>
      <point x="2158" y="591" type="line"/>
      <point x="2158" y="598" type="line" smooth="yes"/>
      <point x="2158.0" y="721.28"/>
      <point x="2047.02" y="816.0"/>
      <point x="1842" y="816" type="curve" smooth="yes"/>
      <point x="1649.04" y="816.0"/>
      <point x="1505.04" y="731.48"/>
      <point x="1363" y="635" type="curve" smooth="yes"/>
      <point x="1338" y="618" type="line"/>
      <point x="1358" y="604" type="line"/>
      <point x="1380" y="619" type="line" smooth="yes"/>
      <point x="1536.78" y="723.52"/>
      <point x="1669.1" y="797.0"/>
      <point x="1850" y="797" type="curve" smooth="yes"/>
      <point x="2028.22" y="797.0"/>
      <point x="2130.0" y="708.22"/>
      <point x="2130" y="597" type="curve" smooth="yes"/>
    </contour>
    <component base="uni0A67" xOffset="-49"/>
    <component base="grOne"/>
  </outline>
</glyph>
<glyph name="grUdaat" format="1">
  <advance width="0"/>
  <unicode hex="0A75"/>
  <outline>
    <contour>
      <point x="15" y="-221" type="line"/>
      <point x="-120" y="-217"/>
      <point x="-193" y="-197"/>
      <point x="-342" y="-105" type="curve"/>
      <point x="-356" y="-125" type="line"/>
      <point x="-208" y="-221"/>
      <point x="-130" y="-242"/>
      <point x="15" y="-243" type="curve"/>
    </contour>
    <contour>
      <point x="-111" y="0" type="move" name="_bottom"/>
    </contour>
  </outline>
</glyph>
<glyph name="quoteleft" format="1">
  <advance width="262"/>
  <unicode hex="2018"/>
  <outline>
    <contour>
      <point x="76" y="387"/>
      <point x="95" y="367"/>
      <point x="130" y="367" type="curve" smooth="yes"/>
      <point x="161" y="367"/>
      <point x="180" y="382"/>
      <point x="180" y="401" type="curve" smooth="yes"/>
      <point x="180" y="419"/>
      <point x="162" y="431"/>
      <point x="137" y="431" type="curve" smooth="yes"/>
      <point x="122" y="431"/>
      <point x="109" y="429"/>
      <point x="97" y="426" type="curve"/>
      <point x="104" y="470"/>
      <point x="145" y="515"/>
      <point x="195" y="560" type="curve"/>
      <point x="183" y="572" type="line"/>
      <point x="122" y="524"/>
      <point x="76" y="462"/>
      <point x="76" y="419" type="curve" smooth="yes"/>
    </contour>
  </outline>
</glyph>
<glyph name="G.copy_1" format="1">
  <advance width="858"/>
  <outline>
    <contour>
      <point x="241" y="517"/>
      <point x="70" y="418"/>
      <point x="70" y="248" type="curve"/>
      <point x="70" y="79"/>
      <point x="234" y="-20"/>
      <point x="426" y="-20" type="curve"/>
      <point x="637" y="-20"/>
      <point x="793" y="80"/>
      <point x="799" y="243" type="curve"/>
      <point x="774" y="227" type="line"/>
      <point x="764" y="112"/>
      <point x="652" y="3"/>
      <point x="426" y="3" type="curve"/>
      <point x="244" y="3"/>
      <point x="95" y="97"/>
      <point x="95" y="248" type="curve"/>
      <point x="95" y="400"/>
      <point x="249" y="494"/>
      <point x="434" y="494" type="curve"/>
      <point x="566" y="494"/>
      <point x="689" y="448"/>
      <point x="791" y="311" type="curve"/>
      <point x="791" y="490" type="line"/>
      <point x="768" y="490" type="line"/>
      <point x="768" y="347" type="line"/>
      <point x="785" y="347" type="line"/>
      <point x="715" y="444"/>
      <point x="605" y="517"/>
      <point x="434" y="517" type="curve"/>
    </contour>
    <contour>
      <point x="422" y="243" type="line"/>
      <point x="422" y="220" type="line"/>
      <point x="792" y="220" type="line"/>
      <point x="799" y="243" type="line"/>
    </contour>
    <contour>
      <point x="429.0" y="520.0" type="move" name="top"/>
    </contour>
    <contour>
      <point x="429.0" y="-10.0" type="move" name="bottom"/>
    </contour>
  </outline>
</glyph>
<glyph name="H.copy_1" format="1">
  <advance width="1131"/>
  <outline>
    <contour>
      <point x="875" y="227" type="line"/>
      <point x="875" y="250" type="line"/>
      <point x="258" y="250" type="line"/>
      <point x="258" y="227" type="line"/>
    </contour>
    <contour>
      <point x="442" y="0" type="line"/>
      <point x="442" y="23" type="line"/>
      <point x="56" y="23" type="line"/>
      <point x="56" y="0" type="line"/>
    </contour>
    <contour>
      <point x="263" y="11" type="line"/>
      <point x="263" y="477" type="line"/>
      <point x="238" y="477" type="line"/>
      <point x="238" y="11" type="line"/>
    </contour>
    <contour>
      <point x="442" y="467" type="line"/>
      <point x="442" y="490" type="line"/>
      <point x="56" y="490" type="line"/>
      <point x="56" y="467" type="line"/>
    </contour>
    <contour>
      <point x="1075" y="0" type="line"/>
      <point x="1075" y="23" type="line"/>
      <point x="689" y="23" type="line"/>
      <point x="689" y="0" type="line"/>
    </contour>
    <contour>
      <point x="894" y="13" type="line"/>
      <point x="894" y="479" type="line"/>
      <point x="869" y="479" type="line"/>
      <point x="869" y="13" type="line"/>
    </contour>
    <contour>
      <point x="1075" y="467" type="line"/>
      <point x="1075" y="490" type="line"/>
      <point x="689" y="490" type="line"/>
      <point x="689" y="467" type="line"/>
    </contour>
    <contour>
      <point x="566.0" y="245.0" type="move" name="center"/>
    </contour>
    <contour>
      <point x="566.0" y="0.0" type="move" name="bottom"/>
    </contour>
    <contour>
      <point x="566.0" y="490.0" type="move" name="top"/>
    </contour>
  </outline>
</glyph>
<glyph name="doubledanda" format="1">
  <advance width="905"/>
  <outline>
    <contour>
      <point x="415" y="489" type="line"/>
      <point x="415" y="-110" type="line"/>
      <point x="445" y="-110" type="line"/>
      <point x="445" y="489" type="line"/>
    </contour>
    <contour>
      <point x="674" y="489" type="line"/>
      <point x="674" y="-110" type="line"/>
      <point x="703" y="-110" type="line"/>
      <point x="703" y="489" type="line"/>
    </contour>
  </outline>
</glyph>
<glyph name="grAddak.alt" format="1">
  <advance width="0"/>
  <outline>
    <contour>
      <point x="-44" y="687"/>
      <point x="6" y="744"/>
      <point x="6" y="835" type="curve"/>
      <point x="-56" y="835" type="line"/>
      <point x="-56" y="782"/>
      <point x="-70" y="739"/>
      <point x="-130" y="739" type="curve" smooth="yes"/>
      <point x="-190" y="739"/>
      <point x="-204" y="782"/>
      <point x="-204" y="835" type="curve"/>
      <point x="-266" y="835" type="line"/>
      <point x="-266" y="744"/>
      <point x="-216" y="687"/>
      <point x="-130" y="687" type="curve" smooth="yes"/>
    </contour>
    <contour>
      <point x="2" y="635" type="move" name="_top.addak"/>
    </contour>
  </outline>
</glyph>
<glyph name="grBA_RAc2" format="1">
  <advance width="985"/>
  <outline>
    <component base="grRAc2" xOffset="985" yOffset="30"/>
    <component base="grBA"/>
    <contour>
      <point x="464" y="635" type="move" name="top.addak"/>
    </contour>
    <contour>
      <point x="464" y="635" type="move" name="top"/>
    </contour>
    <contour>
      <point x="464" y="635" type="move" name="top.bindi"/>
    </contour>
    <contour>
      <point x="464" y="635" type="move" name="top.tippi"/>
    </contour>
    <contour>
      <point x="311" y="-142" type="move" name="bottom"/>
    </contour>
  </outline>
</glyph>
<glyph name="grBHA_RAc2" format="1">
  <advance width="541"/>
  <outline>
    <contour>
      <point x="561" y="635" type="line"/>
      <point x="-20" y="635" type="line"/>
      <point x="-20" y="580" type="line"/>
      <point x="561" y="580" type="line"/>
    </contour>
    <contour>
      <point x="17" y="52" type="line"/>
      <point x="54" y="24"/>
      <point x="121" y="-14"/>
      <point x="229" y="-14" type="curve" smooth="yes"/>
      <point x="358" y="-14"/>
      <point x="481" y="58"/>
      <point x="481" y="210" type="curve" smooth="yes"/>
      <point x="481" y="269"/>
      <point x="461" y="320"/>
      <point x="428" y="358" type="curve"/>
      <point x="433" y="374"/>
      <point x="434" y="392"/>
      <point x="434" y="422" type="curve" smooth="yes"/>
      <point x="434" y="625" type="line"/>
      <point x="372" y="625" type="line"/>
      <point x="372" y="392" type="line"/>
      <point x="395" y="399" type="line"/>
      <point x="355" y="439"/>
      <point x="298" y="478"/>
      <point x="218" y="478" type="curve" smooth="yes"/>
      <point x="126" y="478"/>
      <point x="50" y="428"/>
      <point x="50" y="345" type="curve" smooth="yes"/>
      <point x="50" y="267"/>
      <point x="126" y="212"/>
      <point x="218" y="212" type="curve" smooth="yes"/>
      <point x="312" y="212"/>
      <point x="367" y="251"/>
      <point x="405" y="315" type="curve"/>
      <point x="385" y="314" type="line"/>
      <point x="406" y="290"/>
      <point x="419" y="259"/>
      <point x="419" y="210" type="curve" smooth="yes"/>
      <point x="419" y="105"/>
      <point x="336" y="43"/>
      <point x="229" y="43" type="curve" smooth="yes"/>
      <point x="132" y="43"/>
      <point x="69" y="77"/>
      <point x="17" y="114" type="curve"/>
    </contour>
    <contour>
      <point x="156" y="269"/>
      <point x="114" y="300"/>
      <point x="114" y="345" type="curve" smooth="yes"/>
      <point x="114" y="391"/>
      <point x="156" y="421"/>
      <point x="218" y="421" type="curve" smooth="yes"/>
      <point x="290" y="421"/>
      <point x="336" y="383"/>
      <point x="362" y="352" type="curve"/>
      <point x="335" y="297"/>
      <point x="286" y="269"/>
      <point x="218" y="269" type="curve" smooth="yes"/>
    </contour>
    <component base="grRAc2" xOffset="381" yOffset="14"/>
    <contour>
      <point x="403" y="635" type="move" name="top.addak"/>
    </contour>
    <contour>
      <point x="403" y="635" type="move" name="top"/>
    </contour>
    <contour>
      <point x="403" y="635" type="move" name="top.bindi"/>
    </contour>
    <contour>
      <point x="403" y="635" type="move" name="top.tippi"/>
    </contour>
    <contour>
      <point x="231" y="-161" type="move" name="bottom"/>
    </contour>
  </outline>
</glyph>
<glyph name="grCA_RAc2" format="1">
  <advance width="875"/>
  <outline>
    <component base="grCA"/>
    <contour>
      <point x="435" y="635" type="move" name="top.addak"/>
    </contour>
    <contour>
      <point x="435" y="635" type="move" name="top"/>
    </contour>
    <contour>
      <point x="435" y="635" type="move" name="top.bindi"/>
    </contour>
    <contour>
      <point x="435" y="635" type="move" name="top.tippi"/>
    </contour>
    <contour>
      <point x="293" y="-142" type="move" name="bottom"/>
    </contour>
  </outline>
</glyph>
<glyph name="grCHA_RAc2" format="1">
  <advance width="960"/>
  <outline>
    <component base="grRAc2" xOffset="868" yOffset="-15"/>
    <component base="grCHA"/>
    <contour>
      <point x="432" y="635" type="move" name="top.addak"/>
    </contour>
    <contour>
      <point x="432" y="635" type="move" name="top"/>
    </contour>
    <contour>
      <point x="432" y="635" type="move" name="top.bindi"/>
    </contour>
    <contour>
      <point x="432" y="635" type="move" name="top.tippi"/>
    </contour>
    <contour>
      <point x="287" y="-162" type="move" name="bottom"/>
    </contour>
  </outline>
</glyph>
<glyph name="grDA_RAc2" format="1">
  <advance width="844"/>
  <outline>
    <component base="grDA"/>
    <component base="grRAc2" xOffset="845" yOffset="-10"/>
    <contour>
      <point x="403" y="635" type="move" name="top.addak"/>
    </contour>
    <contour>
      <point x="403" y="635" type="move" name="top"/>
    </contour>
    <contour>
      <point x="403" y="635" type="move" name="top.bindi"/>
    </contour>
    <contour>
      <point x="403" y="635" type="move" name="top.tippi"/>
    </contour>
    <contour>
      <point x="262" y="-142" type="move" name="bottom"/>
    </contour>
  </outline>
</glyph>
<glyph name="grDDA_RAc2" format="1">
  <advance width="829"/>
  <outline>
    <component base="grRAc2" xOffset="732" yOffset="-11"/>
    <component base="grDDA"/>
    <contour>
      <point x="340" y="635" type="move" name="top.addak"/>
    </contour>
    <contour>
      <point x="340" y="635" type="move" name="top"/>
    </contour>
    <contour>
      <point x="340" y="635" type="move" name="top.bindi"/>
    </contour>
    <contour>
      <point x="340" y="635" type="move" name="top.tippi"/>
    </contour>
    <contour>
      <point x="248" y="-162" type="move" name="bottom"/>
    </contour>
  </outline>
</glyph>
<glyph name="grDDHA_RAc2" format="1">
  <advance width="909"/>
  <outline>
    <component base="grRAc2" xOffset="523" yOffset="20"/>
    <component base="grDDHA"/>
    <contour>
      <point x="427" y="635" type="move" name="top.addak"/>
    </contour>
    <contour>
      <point x="427" y="635" type="move" name="top"/>
    </contour>
    <contour>
      <point x="427" y="635" type="move" name="top.bindi"/>
    </contour>
    <contour>
      <point x="427" y="635" type="move" name="top.tippi"/>
    </contour>
    <contour>
      <point x="299" y="-142" type="move" name="bottom"/>
    </contour>
  </outline>
</glyph>
<glyph name="grDHA_RAc2" format="1">
  <advance width="880.0"/>
  <outline>
    <component base="grRAc2" xOffset="588" yOffset="30"/>
    <component base="grDHA"/>
    <contour>
      <point x="457" y="635" type="move" name="top.addak"/>
    </contour>
    <contour>
      <point x="457" y="635" type="move" name="top"/>
    </contour>
    <contour>
      <point x="457" y="635" type="move" name="top.bindi"/>
    </contour>
    <contour>
      <point x="457" y="635" type="move" name="top.tippi"/>
    </contour>
    <contour>
      <point x="304" y="-142" type="move" name="bottom"/>
    </contour>
  </outline>
</glyph>
<glyph name="grGA_RAc2" format="1">
  <advance width="1066"/>
  <outline>
    <component base="grRAc2" xOffset="720" yOffset="30"/>
    <component base="grGA"/>
    <contour>
      <point x="589" y="635" type="move" name="top.addak"/>
    </contour>
    <contour>
      <point x="589" y="635" type="move" name="top"/>
    </contour>
    <contour>
      <point x="589" y="635" type="move" name="top.bindi"/>
    </contour>
    <contour>
      <point x="589" y="635" type="move" name="top.tippi"/>
    </contour>
    <contour>
      <point x="436" y="-142" type="move" name="bottom"/>
    </contour>
  </outline>
</glyph>
<glyph name="grGHA_RAc2" format="1">
  <advance width="1143"/>
  <outline>
    <component base="grRAc2" xOffset="1143" yOffset="30"/>
    <component base="grGHA"/>
    <contour>
      <point x="651" y="635" type="move" name="top.addak"/>
    </contour>
    <contour>
      <point x="651" y="635" type="move" name="top"/>
    </contour>
    <contour>
      <point x="651" y="635" type="move" name="top.bindi"/>
    </contour>
    <contour>
      <point x="651" y="635" type="move" name="top.tippi"/>
    </contour>
    <contour>
      <point x="498" y="-141" type="move" name="bottom"/>
    </contour>
  </outline>
</glyph>
<glyph name="grGxA_RAc2" format="1">
  <advance width="1116"/>
  <outline>
    <component base="grGA_RAc2"/>
    <component base="grNukta" xOffset="810" yOffset="-30"/>
    <contour>
      <point x="589" y="635" type="move" name="top.addak"/>
    </contour>
    <contour>
      <point x="589" y="635" type="move" name="top"/>
    </contour>
    <contour>
      <point x="589" y="635" type="move" name="top.bindi"/>
    </contour>
    <contour>
      <point x="589" y="635" type="move" name="top.tippi"/>
    </contour>
    <contour>
      <point x="436" y="-142" type="move" name="bottom"/>
    </contour>
  </outline>
</glyph>
<glyph name="grHA_RAc2" format="1">
  <advance width="878"/>
  <outline>
    <component base="grHA"/>
    <contour>
      <point x="353" y="635" type="move" name="top.addak"/>
    </contour>
    <contour>
      <point x="353" y="635" type="move" name="top"/>
    </contour>
    <contour>
      <point x="353" y="635" type="move" name="top.bindi"/>
    </contour>
    <contour>
      <point x="353" y="635" type="move" name="top.tippi"/>
    </contour>
    <contour>
      <point x="242" y="-233" type="move" name="bottom"/>
    </contour>
  </outline>
</glyph>
<glyph name="grHAc2" format="1">
  <advance width="0"/>
  <outline>
    <contour>
      <point x="-334" y="-411" type="line"/>
      <point x="-393" y="-411" type="line" smooth="yes"/>
      <point x="-447.94" y="-411.0"/>
      <point x="-470.0" y="-428.54"/>
      <point x="-470" y="-454" type="curve" smooth="yes"/>
      <point x="-470.0" y="-496.88"/>
      <point x="-349.46" y="-559.0"/>
      <point x="-257" y="-559" type="curve" smooth="yes"/>
      <point x="-202.06" y="-559.0"/>
      <point x="-177.0" y="-538.22"/>
      <point x="-177" y="-494" type="curve" smooth="yes"/>
      <point x="-177" y="-341" type="line"/>
      <point x="-205" y="-341" type="line"/>
      <point x="-205" y="-492" type="line" smooth="yes"/>
      <point x="-205.0" y="-524.16"/>
      <point x="-217.16" y="-540.0"/>
      <point x="-252" y="-540" type="curve" smooth="yes"/>
      <point x="-336.42" y="-540.0"/>
      <point x="-439.0" y="-487.16"/>
      <point x="-439" y="-455" type="curve" smooth="yes"/>
      <point x="-439.0" y="-440.26"/>
      <point x="-425.5" y="-429.0"/>
      <point x="-392" y="-429" type="curve" smooth="yes"/>
      <point x="-334" y="-429" type="line"/>
    </contour>
    <contour>
      <point x="117.0" y="0.0" type="move" name="_mark0"/>
    </contour>
  </outline>
</glyph>
<glyph name="grJA_RAc2" format="1">
  <advance width="537"/>
  <outline>
    <contour>
      <point x="-20" y="635" type="line"/>
      <point x="-20" y="580" type="line"/>
      <point x="375" y="580" type="line"/>
      <point x="375" y="353" type="line"/>
      <point x="87" y="353" type="line"/>
      <point x="87" y="298" type="line"/>
      <point x="375" y="298" type="line"/>
      <point x="375" y="0" type="line"/>
      <point x="437" y="0" type="line"/>
      <point x="437" y="580" type="line"/>
      <point x="557" y="580" type="line"/>
      <point x="557" y="635" type="line"/>
    </contour>
    <contour>
      <point x="58" y="404"/>
      <point x="31" y="367"/>
      <point x="31" y="343" type="curve" smooth="yes"/>
      <point x="31" y="314"/>
      <point x="49" y="298"/>
      <point x="80" y="298" type="curve"/>
      <point x="80" y="0" type="line"/>
      <point x="142" y="0" type="line"/>
      <point x="142" y="425" type="line"/>
      <point x="78" y="425" type="line"/>
    </contour>
    <component base="grRAc2" xOffset="537" yOffset="30"/>
    <contour>
      <point x="406" y="635" type="move" name="top.addak"/>
    </contour>
    <contour>
      <point x="406" y="635" type="move" name="top"/>
    </contour>
    <contour>
      <point x="406" y="635" type="move" name="top.bindi"/>
    </contour>
    <contour>
      <point x="406" y="635" type="move" name="top.tippi"/>
    </contour>
    <contour>
      <point x="262" y="-142" type="move" name="bottom"/>
    </contour>
  </outline>
</glyph>
<glyph name="grJHA_RAc2" format="1">
  <advance width="1162"/>
  <outline>
    <component base="grGHA"/>
    <contour>
      <point x="245" y="635" type="move" name="top.addak"/>
    </contour>
    <contour>
      <point x="405" y="635" type="move" name="top"/>
    </contour>
    <contour>
      <point x="245" y="635" type="move" name="top.bindi"/>
    </contour>
    <contour>
      <point x="245" y="635" type="move" name="top.tippi"/>
    </contour>
    <contour>
      <point x="254" y="-94" type="move" name="bottom"/>
    </contour>
  </outline>
</glyph>
<glyph name="grJxA_RAc2" format="1">
  <advance width="537"/>
  <outline>
    <contour>
      <point x="84" y="-65"/>
      <point x="65" y="-86"/>
      <point x="65" y="-112" type="curve" smooth="yes"/>
      <point x="65" y="-139"/>
      <point x="84" y="-159"/>
      <point x="111" y="-159" type="curve" smooth="yes"/>
      <point x="138" y="-159"/>
      <point x="159" y="-139"/>
      <point x="159" y="-112" type="curve" smooth="yes"/>
      <point x="159" y="-86"/>
      <point x="138" y="-65"/>
      <point x="111" y="-65" type="curve" smooth="yes"/>
    </contour>
    <contour>
      <point x="-20" y="635" type="line"/>
      <point x="-20" y="580" type="line"/>
      <point x="375" y="580" type="line"/>
      <point x="375" y="353" type="line"/>
      <point x="87" y="353" type="line"/>
      <point x="87" y="298" type="line"/>
      <point x="375" y="298" type="line"/>
      <point x="375" y="0" type="line"/>
      <point x="437" y="0" type="line"/>
      <point x="437" y="580" type="line"/>
      <point x="557" y="580" type="line"/>
      <point x="557" y="635" type="line"/>
    </contour>
    <contour>
      <point x="58" y="404"/>
      <point x="31" y="367"/>
      <point x="31" y="343" type="curve" smooth="yes"/>
      <point x="31" y="314"/>
      <point x="49" y="298"/>
      <point x="80" y="298" type="curve"/>
      <point x="80" y="0" type="line"/>
      <point x="142" y="0" type="line"/>
      <point x="142" y="425" type="line"/>
      <point x="78" y="425" type="line"/>
    </contour>
    <component base="grRAc2" xOffset="537" yOffset="30"/>
    <contour>
      <point x="406" y="635" type="move" name="top.addak"/>
    </contour>
    <contour>
      <point x="406" y="635" type="move" name="top"/>
    </contour>
    <contour>
      <point x="406" y="635" type="move" name="top.bindi"/>
    </contour>
    <contour>
      <point x="406" y="635" type="move" name="top.tippi"/>
    </contour>
    <contour>
      <point x="262" y="-141" type="move" name="bottom"/>
    </contour>
  </outline>
</glyph>
